# Blender 5.1.0
# www.blender.org
mtllib cottage2.mtl
o Cube
v 15.149136 9.285110 8.064301
v -15.144329 14.571601 0.053212
v 15.149135 14.571601 0.053212
v 15.149135 13.096975 -2.221896
v -15.144329 13.096975 2.287843
v -15.144329 13.096975 -2.221896
v -15.144329 9.285110 -2.687591
v 15.149136 0.000000 1.757122
v 15.149136 0.000000 -1.756358
v 15.149136 9.285110 -1.756358
v -15.144329 14.571601 0.048125
v -15.144329 14.571601 0.043038
v 15.149135 14.571601 0.043038
v 15.149135 14.571601 0.048125
v -15.144315 12.733788 1.441052
v -15.144315 12.733788 -1.380467
v 15.149122 10.085679 -1.396529
v -15.144317 10.085679 1.428053
v -15.144317 10.085679 -1.396529
v 15.149136 1.255534 -1.756358
v 15.149136 1.255534 1.757122
v 15.149136 9.285110 1.757122
v 15.149120 12.733788 1.441051
v 15.149135 13.096975 2.287843
v 15.149122 10.085679 1.428053
v 15.149135 10.770311 5.813645
v -15.144329 9.285110 8.064301
v 15.149135 0.000000 3.545933
v -15.144329 10.770311 5.813645
v -15.149135 9.285110 -8.064302
v -15.144329 14.571601 0.037952
v -15.144329 10.770311 -5.787484
v 15.149120 12.733788 -1.380467
v -15.149135 0.000000 -8.064302
v 15.149136 0.000000 8.064301
v -15.144329 0.000000 -2.687591
v -15.144329 0.000000 8.064301
v 15.149135 2.756716 3.545933
v 15.149135 2.756716 6.940656
v 15.149135 2.756716 -6.943613
v 15.149135 2.756716 -3.543325
v 15.149136 8.128112 -1.756358
v 15.149136 8.128112 1.757122
v -15.144329 9.285110 2.688355
v 15.149135 8.128112 3.545933
v 15.149135 8.128112 6.940656
v 15.149135 8.154601 -6.943613
v 15.149135 8.128112 -3.543325
v 14.946001 1.255534 -1.756358
v 14.946001 1.255534 1.757122
v 14.946001 8.128112 -1.756358
v 14.946001 8.128112 1.757122
v 15.149136 0.601673 1.757122
v 15.149136 0.613334 -1.756358
v 16.548273 0.000000 1.757122
v 16.548273 0.000000 -1.756358
v 16.548273 0.613334 -1.756358
v 16.548273 0.601673 1.757122
v 15.947547 1.255534 -1.756358
v 15.947547 1.255534 1.757122
v 15.947547 0.601673 1.757122
v 15.947547 0.613334 -1.756358
v 9.090443 0.000000 8.064301
v -9.085636 0.000000 8.064301
v 9.090443 8.128112 8.064301
v 4.626498 8.128112 8.064301
v -4.621690 8.128112 8.064301
v -9.085636 8.128112 8.064301
v 9.090443 9.285110 8.064301
v 4.626498 9.285110 8.064301
v -4.621690 9.285110 8.064301
v -9.085636 9.285110 8.064301
v 9.090443 2.756716 8.064301
v 4.626498 2.756716 8.064301
v -4.621690 2.756716 8.064301
v -9.085636 2.756716 8.064301
v 15.144329 9.285110 -8.064302
v 15.144329 0.000000 -8.064302
v 15.149135 0.000000 -3.543325
v 15.149135 10.770311 -5.787484
v 15.149135 14.571601 0.037952
v -15.144329 0.000000 2.688355
v 4.626498 0.000001 8.064301
v -4.621690 0.000001 8.064301
v -15.144329 5.255002 -2.687591
v -15.144329 5.256916 2.688355
v -12.259512 0.000000 -8.065067
v -12.259512 7.516989 -8.065067
v -12.259512 9.285110 -8.065067
v 9.080827 9.285110 -8.065067
v 9.080827 2.172545 -8.065067
v -8.859523 9.285110 -8.065065
v 9.080827 7.516989 -8.065067
v -12.259512 0.875935 -8.065067
v 9.080827 0.000000 -8.065067
v -8.859523 0.875935 -8.065065
v -8.859523 0.000001 -8.065067
v 4.616882 0.000001 -8.065065
v 4.616883 7.516989 -8.065065
v 4.616883 9.285110 -8.065065
v 4.616883 2.172545 -8.065065
v -12.259512 7.516989 -7.831666
v -12.259512 0.875935 -7.831666
v -8.859523 7.516989 -7.831665
v -8.859523 0.875935 -7.831665
v -8.859523 0.418471 -8.065066
v -12.259512 0.427462 -8.065067
v -8.859523 7.516989 -8.065065
v -8.217103 0.389748 -8.065065
v -12.259512 0.000001 -8.927336
v -8.859523 0.000001 -8.927336
v -12.259512 0.427462 -8.927336
v -8.859523 0.418472 -8.927334
v -8.859523 0.875935 -8.430925
v -12.259512 0.875935 -8.430927
v -8.859523 0.418471 -8.430927
v -12.259512 0.427462 -8.430927
v -15.285043 6.019529 -3.471661
v -15.332889 6.019529 3.525855
v -16.877304 6.019529 1.969424
v -16.850595 6.019529 -1.936495
v -14.845265 6.019529 -3.468654
v -14.893112 6.019529 3.528862
v -17.068741 6.019529 0.015064
v -16.067820 6.019529 -2.704078
v -16.105095 6.019529 2.747640
v -15.051707 7.733970 -0.087929
v -15.053305 7.733970 0.145630
v -15.104855 7.733970 0.093680
v -15.103963 7.733970 -0.036689
v -15.037029 7.733970 -0.087829
v -15.038626 7.733970 0.145730
v -15.111243 7.733970 0.028449
v -15.077835 7.733970 -0.062309
v -15.079081 7.733970 0.119655
v -17.052567 5.616901 2.193392
v -17.022781 5.616901 -2.162839
v -16.191332 5.616901 3.061327
v -17.266075 5.616901 0.013715
v -16.149759 5.616901 -3.018915
v -14.839622 5.616901 3.932616
v -15.330098 5.616901 3.929262
v -15.276736 5.616901 -3.874993
v -14.786260 5.616901 -3.871639
v -17.052567 5.768682 2.193392
v -17.022781 5.768682 -2.162839
v -16.191332 5.768682 3.061327
v -17.266075 5.768682 0.013715
v -16.149759 5.768682 -3.018915
v -14.839622 5.768682 3.932616
v -15.330098 5.768682 3.929262
v -15.276736 5.768682 -3.874993
v -14.786260 5.768682 -3.871639
v -16.750481 5.616901 1.575854
v -16.729168 5.616901 -1.541227
v -16.134228 5.616901 2.196901
v -16.903255 5.616901 0.016196
v -16.104479 5.616901 -2.153790
v -15.167016 5.616901 2.820348
v -15.517976 5.616901 2.817949
v -15.479793 5.616901 -2.766352
v -15.128834 5.616901 -2.763952
v -15.503617 5.740376 -2.962883
v -15.544485 5.740376 3.014133
v -17.035023 5.740376 1.161818
v -16.863667 5.740376 1.684688
v -16.840855 5.740376 -1.651602
v -17.019344 5.740376 -1.131124
v -15.127977 5.740376 -2.960315
v -15.168844 0.008965 3.016701
v -15.168844 5.740376 3.016701
v -15.503617 1.453064 -2.962883
v -15.503617 5.068700 -2.962883
v -15.544485 5.068700 3.014133
v -16.863667 1.453064 1.684688
v -16.863667 5.068700 1.684688
v -17.019344 1.453064 -1.131124
v -17.019344 5.068700 -1.131124
v -15.386840 1.583824 -2.745915
v -15.386840 4.937940 -2.745915
v -15.446918 4.937940 2.798630
v -15.446918 1.583824 2.798630
v -16.978046 1.634672 1.047031
v -16.670683 1.583824 1.565344
v -16.670683 4.937940 1.565344
v -16.963942 1.634672 -1.015569
v -16.963942 4.887092 -1.015569
v -17.035023 0.008965 1.161818
v -17.027184 5.740376 0.015347
v -17.035023 1.453064 1.161818
v -17.035023 5.068700 1.161818
v -16.978046 4.887092 1.047031
v -16.840855 0.008965 -1.651602
v -16.172235 5.740376 -2.307243
v -16.840855 1.453064 -1.651602
v -16.840855 5.068700 -1.651602
v -16.627356 4.937940 -1.529479
v -15.544485 0.008965 3.014133
v -16.204075 5.740376 2.349411
v -15.544485 1.453064 3.014133
v -15.503617 0.008966 -2.962883
v -16.863667 0.008965 1.684688
v -17.019344 0.008965 -1.131124
v -15.127977 0.008966 -2.960315
v -16.627356 1.583824 -1.529479
v -12.659316 7.834970 -7.701530
v -12.659316 7.932471 -7.735404
v -12.659317 7.258443 -9.360980
v -12.659317 7.355945 -9.394854
v -8.504162 7.834970 -7.701530
v -8.504162 7.932471 -7.735404
v -8.504162 7.258443 -9.360980
v -8.504162 7.355945 -9.394854
v -8.726256 7.258443 -9.360980
v -12.437223 7.258443 -9.360980
v -12.437223 7.355945 -9.394854
v -8.726256 7.355945 -9.394854
v -12.437222 7.834970 -7.701530
v -8.726255 7.834970 -7.701530
v -8.726255 7.932471 -7.735404
v -12.437222 7.932471 -7.735404
v -12.659316 7.342116 -9.120140
v -12.659316 7.439617 -9.154015
v -8.504162 7.342116 -9.120141
v -8.504162 7.439617 -9.154016
v -8.726255 7.439617 -9.154016
v -12.437223 7.439617 -9.154015
v -12.437223 7.342116 -9.120141
v -8.726255 7.342116 -9.120141
v -12.659316 7.025926 -8.002670
v -12.659316 7.373318 -7.893625
v -8.726255 7.373318 -7.893625
v -8.504162 7.373318 -7.893625
v -12.437223 7.373318 -7.893625
v -12.437223 7.025926 -8.002670
v -8.726255 7.025926 -8.002671
v -8.504162 7.025926 -8.002671
v 14.764846 8.562821 -2.090873
v 14.798718 8.660322 -2.090873
v 16.424295 7.986295 -2.090873
v 16.458168 8.083797 -2.090873
v 14.764846 8.562821 2.064282
v 14.798718 8.660322 2.064282
v 16.424295 7.986295 2.064282
v 16.458168 8.083797 2.064282
v 16.424295 7.986295 1.842188
v 16.424295 7.986295 -1.868779
v 16.458168 8.083797 -1.868779
v 16.458168 8.083797 1.842188
v 14.764846 8.562821 -1.868779
v 14.764846 8.562821 1.842188
v 14.798718 8.660322 1.842188
v 14.798718 8.660322 -1.868779
v 16.183456 8.069967 -2.090873
v 16.217329 8.167469 -2.090873
v 16.183456 8.069967 2.064282
v 16.217329 8.167469 2.064282
v 16.217329 8.167469 1.842188
v 16.217329 8.167469 -1.868779
v 16.183456 8.069967 -1.868779
v 16.183456 8.069967 1.842188
v 15.065987 7.753778 -2.090873
v 14.956941 8.101170 -2.090873
v 14.956941 8.101170 1.842188
v 14.956941 8.101170 2.064282
v 14.956941 8.101170 -1.868779
v 15.065987 7.753778 -1.868779
v 15.065987 7.753778 1.842188
v 15.065987 7.753778 2.064282
v -1.696120 9.639592 -6.802839
v -1.696120 9.639592 -7.597020
v 0.780485 14.039369 -7.597020
v 3.257091 9.639592 -6.802839
v 3.257091 9.639592 -7.597020
v -1.696120 11.969039 -3.029943
v -1.696120 11.969039 -7.597020
v 3.257091 11.969039 -7.597020
v 3.257091 11.969039 -3.029943
v 0.780485 14.174607 -0.538604
v 0.780485 14.174607 -7.597020
v 3.257091 12.104278 -7.597020
v 3.257091 12.104278 -3.029943
v 0.780485 14.039369 -7.969766
v -1.696120 11.969039 -7.969766
v 3.257091 11.969039 -7.969766
v 0.780485 14.174607 -7.969766
v -1.696120 12.104278 -7.969766
v 3.257091 12.104278 -7.969766
v 3.719857 11.574385 -7.597020
v 3.719857 11.574385 -3.569595
v -2.158885 11.574385 -3.569595
v -2.158885 11.574385 -7.597020
v 3.719857 11.709623 -7.597020
v 3.719857 11.709623 -3.569595
v -2.158885 11.709623 -3.569595
v -2.158885 11.709623 -7.597020
v 3.719857 11.709623 -7.969766
v 3.719857 11.574385 -7.969766
v -2.158885 11.709623 -7.969766
v -2.158885 11.574385 -7.969766
v -1.696120 9.639592 -7.597020
v 0.775631 14.039369 -7.597020
v 3.257091 9.639592 -7.597020
v 0.785340 14.039369 -7.597020
v -1.696120 11.969039 -7.597020
v 3.257091 11.969039 -7.597020
v 1.606020 9.639592 -7.597020
v -0.045050 9.639592 -7.597020
v 0.778867 14.039369 -7.597020
v 0.782104 14.039369 -7.597020
v -0.157282 11.011056 -7.597020
v 1.718253 11.011056 -7.597020
v -0.460245 13.004204 -7.597020
v 2.021215 13.004204 -7.597020
v -0.160688 12.753330 -7.597020
v 1.721659 12.753330 -7.597020
v -1.696120 12.104278 -3.029943
v 0.780485 14.174607 -0.538604
v 0.780485 14.174607 -7.597020
v -1.696120 12.104278 -7.597020
v 0.780485 14.174607 -7.969766
v -1.696120 12.104278 -7.969766
v -2.158885 11.709623 -3.569595
v -2.158885 11.709623 -7.597020
v -2.158885 11.709623 -7.969766
v -16.100147 8.716707 9.263762
v -16.100147 8.716707 -9.224624
v 16.090305 8.716707 9.263762
v 16.090305 8.716707 -9.224624
v -16.100147 14.673750 0.019569
v 16.090305 14.673750 0.019569
v -16.100147 8.567539 9.027171
v -16.100147 8.567539 -8.988033
v 16.090305 8.567539 9.027171
v 16.090305 8.567539 -8.988033
v -16.100147 14.461625 0.019569
v 16.090305 14.461625 0.019569
vn -0.0000 -0.0000 1.0000
vn -1.0000 0.0012 0.0006
vn -1.0000 -0.0000 -0.0000
vn 1.0000 -0.0000 -0.0000
vn -0.0000 -0.0000 -1.0000
vn 1.0000 0.0022 -0.0005
vn 1.0000 -0.0015 -0.0005
vn 1.0000 -0.0007 -0.0006
vn -1.0000 -0.0000 0.0009
vn 1.0000 -0.0000 -0.0043
vn -0.0000 -1.0000 -0.0000
vn -0.0000 1.0000 -0.0000
vn -0.0000 1.0000 0.0033
vn 0.0001 -0.0000 -1.0000
vn -0.0003 -0.0000 -1.0000
vn 0.0026 1.0000 -0.0000
vn -0.4716 0.7474 0.4680
vn -0.4652 0.7474 -0.4744
vn -0.6577 0.7505 0.0644
vn -0.3876 0.8328 -0.3952
vn -0.0031 0.8919 0.4521
vn -0.3929 0.8328 0.3899
vn 0.0031 0.8919 -0.4521
vn -0.6568 0.7505 -0.0734
vn -0.7001 -0.0000 -0.7140
vn -0.0068 -0.0000 1.0000
vn -0.7098 -0.0000 0.7044
vn 0.0068 -0.0000 -1.0000
vn -0.9938 -0.0000 -0.1111
vn -0.9952 -0.0000 0.0975
vn -0.7827 0.6162 -0.0875
vn -0.0036 0.8492 0.5281
vn 0.0036 0.8492 -0.5281
vn -0.7838 0.6162 0.0768
vn -0.9553 -0.2956 -0.0065
vn -1.0000 -0.0000 -0.0068
vn 0.4965 -0.0000 -0.8680
vn -0.3386 -0.8753 -0.3453
vn -0.9110 -0.0000 -0.4124
vn -0.8957 -0.0000 -0.4446
vn -0.3614 -0.8607 0.3586
vn -0.9553 0.2956 -0.0065
vn -0.3386 0.8753 -0.3453
vn -0.3614 0.8607 0.3586
vn 0.5260 -0.0000 0.8505
vn -0.9017 -0.0000 0.4323
vn -0.8806 -0.0000 0.4739
vn -0.9459 -0.0000 -0.3244
vn -0.9503 -0.0000 0.3114
vn -0.0000 -0.3282 -0.9446
vn -0.0000 0.9446 -0.3282
vn -0.0000 -0.9446 0.3282
vn -0.0000 -0.9622 -0.2723
vn 0.9446 -0.3282 -0.0000
vn 0.3282 0.9446 -0.0000
vn -0.3282 -0.9446 -0.0000
vn 0.2723 -0.9622 -0.0000
vn 0.6414 0.7672 -0.0000
vn -0.6489 -0.7609 -0.0000
vn 0.6414 -0.7672 -0.0000
vn -0.6414 -0.7672 -0.0000
vn 0.6489 -0.7609 -0.0000
vn 0.6489 0.7609 -0.0000
vn -0.6414 0.7672 -0.0000
vn -0.6489 0.7609 -0.0000
vn -0.0000 0.8406 0.5417
vn -0.0000 0.8406 -0.5417
vn -0.0000 -0.8368 -0.5475
vn -0.0000 -0.8368 0.5475
vn -0.0000 -0.8459 -0.5333
vn -0.0000 -0.8459 0.5333
vt 0.102892 0.659234
vt 0.102892 0.677529
vt 0.012336 0.677529
vt 0.301725 0.873631
vt 0.392168 0.873631
vt 0.413885 0.889283
vt 0.340024 0.902668
vt 0.482598 0.873631
vt 0.461398 0.889283
vt 0.120339 0.874156
vt 0.179582 0.874156
vt 0.173515 0.889846
vt 0.125887 0.889846
vt 0.414155 0.941055
vt 0.400001 0.948156
vt 0.438100 0.976985
vt 0.438015 0.976985
vt 0.461616 0.941055
vt 0.438186 0.976985
vt 0.125668 0.941743
vt 0.173244 0.941743
vt 0.149241 0.977760
vt 0.149155 0.977760
vt 0.209714 0.851482
vt 0.179582 0.851482
vt 0.120339 0.851482
vt 0.153291 0.296428
vt 0.153291 0.353313
vt 0.064472 0.353313
vt 0.064472 0.296428
vt 0.209714 0.692189
vt 0.179582 0.716795
vt 0.179582 0.704209
vt 0.120339 0.692189
vt 0.120339 0.703980
vt 0.090176 0.692189
vt 0.111390 0.948860
vt 0.149070 0.977760
vt 0.051939 0.903263
vt 0.013989 0.874156
vt 0.573027 0.873631
vt 0.535169 0.902668
vt 0.475861 0.948156
vt 0.438271 0.976985
vt 0.090176 0.851482
vt 0.032935 0.851482
vt 0.267048 0.852001
vt 0.285945 0.874156
vt 0.247554 0.903263
vt 0.187432 0.948860
vt 0.149327 0.977760
vt 0.285945 0.692189
vt 0.267048 0.746215
vt 0.209714 0.746215
vt 0.090176 0.746215
vt 0.032935 0.746215
vt 0.013989 0.692189
vt 0.120339 0.716795
vt 0.102892 0.530709
vt 0.102892 0.574299
vt 0.012336 0.530709
vt 0.392168 0.692101
vt 0.392168 0.794840
vt 0.301725 0.692101
vt 0.573027 0.692101
vt 0.482598 0.794877
vt 0.482598 0.692101
vt 0.185903 0.717829
vt 0.185903 0.847161
vt 0.182654 0.847161
vt 0.182654 0.717829
vt 0.369634 0.493505
vt 0.421769 0.493505
vt 0.421769 0.496694
vt 0.369634 0.496694
vt 0.117817 0.848334
vt 0.117817 0.719001
vt 0.114568 0.719001
vt 0.114568 0.848334
vt 0.285033 0.353779
vt 0.285033 0.249236
vt 0.288624 0.249236
vt 0.288624 0.353779
vt 0.061601 0.293105
vt 0.061601 0.353599
vt 0.010917 0.353599
vt 0.010917 0.293105
vt 0.179582 0.692189
vt 0.246184 0.353780
vt 0.203128 0.353780
vt 0.203947 0.249236
vt 0.246184 0.249236
vt 0.064315 0.296386
vt 0.064315 0.353402
vt 0.153134 0.353402
vt 0.153134 0.296386
vt 0.270918 0.249236
vt 0.270918 0.353781
vt 0.246184 0.353781
vt 0.203128 0.249236
vt 0.202310 0.353780
vt 0.157228 0.353780
vt 0.157228 0.249236
vt 0.270918 0.353779
vt 0.010917 0.353616
vt 0.010917 0.292972
vt 0.061601 0.292972
vt 0.061601 0.353616
vt 0.465114 0.530709
vt 0.465114 0.677529
vt 0.374559 0.659234
vt 0.374559 0.574299
vt 0.307839 0.574299
vt 0.307839 0.659234
vt 0.169611 0.659234
vt 0.169611 0.574299
vt 0.374559 0.530709
vt 0.307839 0.530709
vt 0.169611 0.530709
vt 0.374559 0.677529
vt 0.307839 0.677529
vt 0.169611 0.677529
vt 0.359676 0.510327
vt 0.359676 0.505073
vt 0.428152 0.505073
vt 0.428152 0.510327
vt 0.360946 0.378542
vt 0.370548 0.386230
vt 0.370548 0.491242
vt 0.169124 0.372380
vt 0.169124 0.406733
vt 0.011777 0.372380
vt 0.102404 0.406733
vt 0.102404 0.491242
vt 0.011777 0.519200
vt 0.421366 0.386230
vt 0.464555 0.372380
vt 0.464555 0.519200
vt 0.421366 0.491242
vt 0.102404 0.372380
vt 0.421366 0.519200
vt 0.370548 0.519200
vt 0.102404 0.519200
vt 0.169124 0.491242
vt 0.169124 0.519200
vt 0.099090 0.242105
vt 0.018529 0.242105
vt 0.018529 0.200351
vt 0.099091 0.200351
vt 0.370548 0.372380
vt 0.421366 0.372380
vt 0.421366 0.379139
vt 0.364280 0.489662
vt 0.367481 0.489662
vt 0.367481 0.386348
vt 0.364280 0.386348
vt 0.273417 0.243464
vt 0.263413 0.243464
vt 0.263413 0.147144
vt 0.273417 0.147144
vt 0.424564 0.386887
vt 0.427765 0.386887
vt 0.427765 0.490200
vt 0.424564 0.490200
vt 0.138401 0.242756
vt 0.104219 0.242756
vt 0.104219 0.198656
vt 0.138401 0.198656
vt 0.370548 0.378997
vt 0.226455 0.147144
vt 0.226455 0.243465
vt 0.185327 0.243465
vt 0.186192 0.147144
vt 0.099463 0.242089
vt 0.018901 0.242089
vt 0.018901 0.200274
vt 0.099463 0.200274
vt 0.226455 0.147144
vt 0.263413 0.147144
vt 0.263413 0.243468
vt 0.226455 0.243468
vt 0.142178 0.147144
vt 0.185327 0.147144
vt 0.185327 0.243465
vt 0.141313 0.243465
vt 0.138195 0.242703
vt 0.104013 0.242703
vt 0.104013 0.198833
vt 0.138195 0.198833
vt 0.289098 0.147144
vt 0.289098 0.243464
vt 0.909978 0.930907
vt 0.875791 0.896517
vt 0.885750 0.888833
vt 0.923878 0.927188
vt 0.944165 0.965297
vt 0.962007 0.965542
vt 0.668837 0.930907
vt 0.634650 0.965297
vt 0.616808 0.965542
vt 0.654936 0.927188
vt 0.789407 0.887459
vt 0.792290 0.974345
vt 0.789407 0.974043
vt 0.703024 0.896517
vt 0.786524 0.974345
vt 0.785383 0.975493
vt 0.784242 0.976641
vt 0.944165 0.984749
vt 0.794573 0.977290
vt 0.794573 0.976641
vt 0.793432 0.975493
vt 0.634650 0.984749
vt 0.784242 0.977290
vt 0.913137 0.874405
vt 0.858900 0.874405
vt 0.858900 0.869425
vt 0.913137 0.869425
vt 0.967374 0.874404
vt 0.967374 0.869425
vt 0.611155 0.874405
vt 0.584586 0.874405
vt 0.584586 0.869425
vt 0.611155 0.869425
vt 0.719634 0.874405
vt 0.665394 0.874405
vt 0.665395 0.869425
vt 0.719634 0.869425
vt 0.993942 0.874404
vt 0.993942 0.869425
vt 0.789267 0.874405
vt 0.789267 0.869425
vt 0.693065 0.888833
vt 0.789407 0.878730
vt 0.962007 0.987237
vt 0.616808 0.987237
vt 0.940904 0.298655
vt 0.907097 0.265043
vt 0.914716 0.308322
vt 0.938907 0.332372
vt 0.887958 0.569331
vt 0.907082 0.569332
vt 0.914705 0.526054
vt 0.901021 0.526053
vt 0.940893 0.535724
vt 0.974704 0.502116
vt 0.963092 0.477958
vt 0.938899 0.502006
vt 0.983613 0.417191
vt 0.974712 0.332266
vt 0.963098 0.356423
vt 0.969467 0.417191
vt 0.887973 0.265043
vt 0.901032 0.308321
vt 0.662645 0.860217
vt 0.616796 0.860216
vt 0.616796 0.827195
vt 0.708494 0.827195
vt 0.616796 0.578439
vt 0.602571 0.860216
vt 0.602572 0.578439
vt 0.848312 0.826765
vt 0.736111 0.826765
vt 0.741747 0.817878
vt 0.842677 0.817878
vt 0.920966 0.859590
vt 0.875145 0.859586
vt 0.875145 0.826718
vt 0.966788 0.826726
vt 0.580579 0.571495
vt 0.792212 0.859632
vt 0.736111 0.859632
vt 0.708494 0.578440
vt 0.702283 0.820766
vt 0.702283 0.655865
vt 0.622251 0.820766
vt 0.966788 0.579133
vt 0.960952 0.820251
vt 0.960953 0.656121
vt 0.848312 0.579180
vt 0.842677 0.658730
vt 0.879941 0.820244
vt 0.736111 0.649843
vt 0.848312 0.649843
vt 0.741747 0.658730
vt 0.848312 0.859632
vt 0.736111 0.579180
vt 0.616796 0.649437
vt 0.708494 0.649437
vt 0.622252 0.655865
vt 0.708494 0.860217
vt 0.875145 0.579125
vt 0.966788 0.649798
vt 0.875145 0.649790
vt 0.966788 0.859594
vt 0.879941 0.656113
vt 0.979985 0.579043
vt 0.979985 0.859504
vt 0.710583 0.859632
vt 0.710583 0.579180
vt 0.873840 0.579180
vt 0.873840 0.859632
vt 0.346874 0.160217
vt 0.337687 0.160249
vt 0.337766 0.182942
vt 0.346953 0.182910
vt 0.053471 0.009374
vt 0.053471 0.015756
vt 0.039642 0.015756
vt 0.039642 0.009374
vt 0.346810 0.160051
vt 0.337623 0.160082
vt 0.337160 0.026413
vt 0.346347 0.026381
vt 0.283549 0.038382
vt 0.297277 0.038382
vt 0.297277 0.126067
vt 0.283549 0.126067
vt 0.040444 0.038382
vt 0.054172 0.038382
vt 0.054172 0.126067
vt 0.040444 0.126067
vt 0.340258 0.190661
vt 0.340203 0.343043
vt 0.407755 0.246489
vt 0.378097 0.224459
vt 0.283975 0.038393
vt 0.054597 0.038393
vt 0.054597 0.126079
vt 0.283975 0.126079
vt 0.298358 0.009374
vt 0.298358 0.015756
vt 0.284529 0.015756
vt 0.284529 0.009374
vt 0.283975 0.023507
vt 0.054597 0.023507
vt 0.297702 0.023507
vt 0.297702 0.038393
vt 0.054172 0.023495
vt 0.283549 0.023496
vt 0.040444 0.023495
vt 0.297277 0.023496
vt 0.040870 0.023507
vt 0.040870 0.038393
vt 0.346888 0.182744
vt 0.337701 0.182776
vt 0.346412 0.026548
vt 0.337224 0.026580
vt 0.027488 0.125705
vt 0.007720 0.125788
vt 0.007302 0.026445
vt 0.027070 0.026362
vt 0.379653 0.055902
vt 0.405742 0.075128
vt 0.324723 0.125554
vt 0.304955 0.125637
vt 0.304537 0.026294
vt 0.324305 0.026211
vt 0.405807 0.075294
vt 0.379717 0.056069
vt 0.340203 0.343043
vt 0.340258 0.190661
vt 0.929195 0.010146
vt 0.982001 0.010149
vt 0.981993 0.159845
vt 0.929194 0.036177
vt 0.928975 0.036017
vt 0.981774 0.159684
vt 0.981782 0.009989
vt 0.928976 0.009986
vt 0.886859 0.021579
vt 0.886877 0.109857
vt 0.693831 0.109857
vt 0.761971 0.021579
vt 0.767429 0.234128
vt 0.934621 0.234128
vt 0.934621 0.255032
vt 0.787185 0.255032
vt 0.428587 0.160342
vt 0.541354 0.254807
vt 0.541354 0.260978
vt 0.428587 0.166513
vt 0.654121 0.160342
vt 0.654121 0.166512
vt 0.934284 0.123048
vt 0.934284 0.233866
vt 0.947930 0.233866
vt 0.947930 0.123048
vt 0.897052 0.021579
vt 0.897072 0.109857
vt 0.934621 0.123310
vt 0.948267 0.123310
vt 0.948267 0.234128
vt 0.986217 0.162544
vt 0.986226 0.009410
vt 0.989782 0.009410
vt 0.989774 0.162544
vt 0.989756 0.009662
vt 0.989757 0.162796
vt 0.986200 0.162796
vt 0.986200 0.009662
vt 0.989757 0.176968
vt 0.986200 0.176968
vt 0.989773 0.176717
vt 0.986217 0.176716
vt 0.407516 0.148505
vt 0.407516 0.142334
vt 0.934284 0.254770
vt 0.947930 0.254770
vt 0.675193 0.142334
vt 0.675193 0.148505
vt 0.886786 0.004986
vt 0.896972 0.004986
vt 0.767092 0.233866
vt 0.786847 0.254770
vt 0.776727 0.004986
vt 0.948267 0.255032
vt 0.493658 0.173899
vt 0.543080 0.241548
vt 0.542910 0.241548
vt 0.477900 0.187096
vt 0.499741 0.010110
vt 0.493837 0.082252
vt 0.412891 0.132644
vt 0.412891 0.010110
vt 0.673440 0.010110
vt 0.673440 0.132644
vt 0.592494 0.082252
vt 0.586590 0.010110
vt 0.608431 0.187096
vt 0.543421 0.241548
vt 0.543251 0.241548
vt 0.592673 0.173899
vt 0.763273 0.202785
vt 0.694431 0.115093
vt 0.887460 0.114908
vt 0.886359 0.202613
vt 0.896398 0.202599
vt 0.896082 0.218795
vt 0.886078 0.218809
vt 0.897643 0.114899
vt 0.777932 0.218969
vt 0.814030 0.417808
vt 0.489561 0.417808
vt 0.489561 0.296382
vt 0.814030 0.296382
vt 0.489206 0.433914
vt 0.813676 0.433914
vt 0.813676 0.554734
vt 0.489206 0.554734
vt 0.813975 0.296733
vt 0.813975 0.417631
vt 0.489505 0.417631
vt 0.489505 0.296733
vt 0.489505 0.554968
vt 0.489505 0.434070
vt 0.813975 0.434070
vt 0.813975 0.554968
vt 0.815161 0.290216
vt 0.489684 0.290216
vt 0.489684 0.268549
vt 0.815161 0.268549
vt 0.489512 0.268314
vt 0.813981 0.268314
vt 0.813981 0.290407
vt 0.489512 0.290408
vt 0.823012 0.312654
vt 0.891319 0.418653
vt 0.888887 0.418653
vt 0.821302 0.315367
vt 0.905675 0.417464
vt 0.832137 0.303348
vt 0.830296 0.306269
vt 0.903056 0.417464
vt 0.832137 0.531580
vt 0.830296 0.528659
vt 0.823012 0.524651
vt 0.821302 0.521938
vt 0.000000 0.000000
s 0
usemtl cottage_texture
f 68/1/1 72/2/1 27/3/1
f 30/4/2 7/5/2 19/6/2 32/7/2
f 7/5/3 44/8/3 18/9/3 19/6/3
f 22/10/4 10/11/4 17/12/4 25/13/4
f 32/7/3 19/6/3 16/14/3 6/15/3
f 6/15/3 16/14/3 12/16/3 31/17/3
f 16/14/3 15/18/3 11/19/3 12/16/3
f 23/20/4 33/21/4 13/22/4 14/23/4
f 48/24/4 10/11/4 42/25/4
f 42/25/4 10/11/4 22/10/4 43/26/4
f 9/27/5 54/28/5 57/29/5 56/30/5
f 79/31/4 20/32/4 54/33/4
f 8/34/4 53/35/4 28/36/4
f 24/37/4 23/20/4 14/23/4 3/38/4
f 26/39/4 25/13/4 23/20/4 24/37/4
f 1/40/4 22/10/4 25/13/4 26/39/4
f 44/8/3 27/41/3 29/42/3 18/9/3
f 18/9/3 29/42/3 5/43/3 15/18/3
f 15/18/3 5/43/3 2/44/3 11/19/3
f 43/26/4 22/10/4 45/45/4
f 45/45/4 22/10/4 1/40/4 46/46/4
f 47/47/6 77/48/6 10/11/6 48/24/6
f 10/11/7 77/48/7 80/49/7 17/12/7
f 17/12/4 80/49/4 4/50/4 33/21/4
f 33/21/4 4/50/4 81/51/4 13/22/4
f 78/52/8 40/53/8 41/54/8 79/31/8
f 28/36/4 38/55/4 39/56/4 35/57/4
f 21/58/4 38/55/4 28/36/4
f 79/31/4 41/54/4 20/32/4
f 64/59/1 76/60/1 37/61/1
f 36/62/9 85/63/9 30/4/9 34/64/9
f 78/52/10 77/48/10 47/47/10 40/53/10
f 21/58/4 43/26/4 45/45/4 38/55/4
f 37/65/3 27/41/3 86/66/3 82/67/3
f 20/68/1 42/69/1 51/70/1 49/71/1
f 41/54/4 48/24/4 42/25/4 20/32/4
f 76/60/1 68/1/1 27/3/1 37/61/1
f 39/56/4 46/46/4 1/40/4 35/57/4
f 23/20/4 25/13/4 17/12/4 33/21/4
f 49/32/4 51/25/4 52/26/4 50/58/4
f 42/72/11 43/73/11 52/74/11 51/75/11
f 43/76/5 21/77/5 50/78/5 52/79/5
f 21/80/12 20/81/12 49/82/12 50/83/12
f 54/84/5 20/85/5 59/86/5 62/87/5
f 54/33/4 9/88/4 79/31/4
f 28/36/4 53/35/4 21/58/4
f 56/89/4 57/90/4 58/91/4 55/92/4
f 53/93/1 8/94/1 55/95/1 58/96/1
f 54/97/13 53/98/13 58/99/13 57/92/13
f 61/100/4 62/101/4 59/102/4 60/103/4
f 20/81/12 21/80/12 60/104/12 59/97/12
f 21/105/1 53/106/1 61/107/1 60/108/1
f 35/109/1 1/110/1 65/111/1 73/112/1
f 74/113/1 66/114/1 67/115/1 75/116/1
f 35/109/1 73/112/1 63/117/1
f 63/117/1 73/112/1 74/113/1 83/118/1
f 83/118/1 74/113/1 75/116/1 84/119/1
f 84/119/1 75/116/1 76/60/1 64/59/1
f 1/110/1 69/120/1 65/111/1
f 65/111/1 69/120/1 70/121/1 66/114/1
f 66/114/1 70/121/1 71/122/1 67/115/1
f 67/115/1 71/122/1 72/2/1 68/1/1
f 66/114/1 74/113/1 73/112/1 65/111/1
f 68/1/1 76/60/1 75/116/1 67/115/1
f 85/63/3 86/66/3 44/8/3 7/5/3
f 30/4/9 85/63/9 7/5/9
f 86/66/3 27/41/3 44/8/3
f 108/123/11 104/124/11 102/125/11 88/126/11
f 109/127/5 96/128/5 108/129/5
f 98/130/5 109/127/5 101/131/5
f 78/132/14 91/133/14 93/134/14 77/135/14
f 94/136/15 34/137/15 30/138/15 88/139/15
f 78/132/14 95/140/14 91/133/14
f 95/140/5 98/130/5 101/131/5 91/133/5
f 108/129/5 88/139/5 89/141/5 92/142/5
f 77/135/14 93/134/14 90/143/14
f 93/134/5 99/144/5 100/145/5 90/143/5
f 88/139/15 30/138/15 89/141/15
f 91/133/5 101/131/5 99/144/5 93/134/5
f 97/146/4 111/147/4 113/148/4 106/149/4
f 98/130/5 97/150/5 109/127/5
f 87/151/15 34/137/15 107/152/15
f 105/128/5 103/136/5 102/139/5 104/129/5
f 88/153/4 102/154/4 103/155/4 94/156/4
f 94/157/12 103/158/12 105/159/12 96/160/12
f 96/161/3 105/162/3 104/163/3 108/164/3
f 106/165/4 116/166/4 114/167/4 96/168/4
f 34/137/15 94/136/15 107/152/15
f 99/144/5 108/129/5 92/142/5 100/145/5
f 101/131/5 109/127/5 108/129/5 99/144/5
f 106/169/5 96/128/5 109/127/5
f 97/150/5 106/169/5 109/127/5
f 111/170/5 110/171/5 112/172/5 113/173/5
f 107/174/3 112/175/3 110/176/3 87/177/3
f 106/178/16 113/179/16 112/180/16 107/181/16
f 117/182/5 115/183/5 114/184/5 116/185/5
f 94/186/3 115/187/3 117/188/3 107/189/3
f 96/160/12 114/190/12 115/191/12 94/157/12
f 38/55/4 45/45/4 46/46/4 39/56/4
f 40/53/4 47/47/4 48/24/4 41/54/4
f 16/14/3 19/6/3 18/9/3 15/18/3
f 126/192/17 120/193/17 145/194/17 147/195/17
f 119/196/17 126/192/17 147/195/17 151/197/17
f 125/198/18 118/199/18 152/200/18 149/201/18
f 124/202/19 120/193/19 129/203/19 133/204/19
f 125/198/20 121/205/20 130/206/20 134/207/20
f 118/199/20 125/198/20 134/207/20 127/208/20
f 119/196/21 123/209/21 132/210/21 128/211/21
f 120/193/22 126/192/22 135/212/22 129/203/22
f 126/192/22 119/196/22 128/211/22 135/212/22
f 122/213/23 118/199/23 127/208/23 131/214/23
f 121/205/24 124/202/24 133/204/24 130/206/24
f 140/215/25 137/216/25 146/217/25 149/218/25
f 143/219/25 140/215/25 149/218/25 152/220/25
f 142/221/26 141/222/26 150/223/26 151/224/26
f 136/225/27 138/226/27 147/227/27 145/228/27
f 138/226/27 142/221/27 151/224/27 147/227/27
f 144/229/28 143/219/28 152/220/28 153/230/28
f 137/216/29 139/231/29 148/232/29 146/217/29
f 139/231/30 136/225/30 145/228/30 148/232/30
f 124/202/31 121/205/31 146/233/31 148/234/31
f 121/205/18 125/198/18 149/201/18 146/233/18
f 123/209/32 119/196/32 151/197/32 150/235/32
f 118/199/33 122/213/33 153/236/33 152/200/33
f 120/193/34 124/202/34 148/234/34 145/194/34
f 140/237/11 143/238/11 161/239/11 158/240/11
f 141/241/11 142/242/11 160/243/11 159/244/11
f 138/245/11 136/246/11 154/247/11 156/248/11
f 139/249/11 137/250/11 155/251/11 157/252/11
f 142/242/11 138/245/11 156/248/11 160/243/11
f 143/238/11 144/253/11 162/254/11 161/239/11
f 137/250/11 140/237/11 158/240/11 155/251/11
f 136/246/11 139/249/11 157/252/11 154/247/11
f 194/255/25 163/256/25 173/257/25 196/258/25
f 201/259/28 163/256/28 169/260/28 204/261/28
f 191/262/35 178/263/35 187/264/35 192/265/35
f 199/266/27 166/267/27 176/268/27 174/269/27
f 188/270/5 165/270/5 191/270/5
f 193/270/1 167/270/1 196/270/1
f 189/271/36 168/272/36 178/263/36 191/262/36
f 193/273/37 196/258/37 197/274/37 205/275/37
f 196/258/38 173/257/38 180/276/38 197/274/38
f 198/277/39 174/269/39 181/278/39 182/279/39
f 188/280/40 191/262/40 192/265/40 183/281/40
f 174/269/41 176/268/41 185/282/41 181/278/41
f 177/283/42 190/284/42 183/281/42 186/285/42
f 165/286/36 189/271/36 191/262/36
f 203/287/36 188/280/36 190/284/36 177/283/36
f 172/288/43 195/289/43 205/275/43 179/290/43
f 201/259/25 193/273/25 195/289/25 172/288/25
f 167/291/25 194/255/25 196/258/25
f 202/292/27 198/277/27 200/293/27 175/294/27
f 164/295/27 199/266/27 174/269/27
f 175/294/44 200/293/44 182/279/44 184/296/44
f 176/268/45 202/292/45 184/296/45 185/282/45
f 178/263/46 203/287/46 186/285/46 187/264/46
f 163/270/1 201/270/1 173/270/1
f 168/270/12 203/270/12 178/270/12
f 173/257/47 201/259/47 179/290/47 180/276/47
f 164/295/26 198/277/26 170/297/26 171/298/26
f 167/299/48 193/300/48 203/287/48 168/272/48
f 165/286/49 188/280/49 202/301/49 166/302/49
f 166/270/5 202/270/5 176/270/5
f 183/281/36 192/265/36 187/264/36 186/285/36
f 205/275/25 197/274/25 180/276/25 179/290/25
f 182/279/27 181/278/27 185/282/27 184/296/27
f 222/303/3 223/304/3 209/305/3 208/306/3
f 214/307/50 217/308/50 213/309/50 212/310/50
f 224/311/4 225/312/4 211/313/4 210/314/4
f 227/315/51 223/316/51 207/317/51 221/318/51
f 225/319/51 226/320/51 220/321/51 211/322/51
f 226/320/51 227/315/51 221/318/51 220/321/51
f 219/323/3 229/324/3 236/325/3 232/326/3
f 228/327/52 229/328/52 219/329/52 218/330/52
f 208/331/50 209/332/50 216/333/50 215/334/50
f 215/334/50 216/333/50 217/308/50 214/307/50
f 215/335/52 214/336/52 229/328/52 228/327/52
f 208/337/52 215/335/52 228/327/52 222/338/52
f 217/339/51 216/340/51 227/315/51 226/320/51
f 213/341/51 217/339/51 226/320/51 225/319/51
f 216/340/51 209/342/51 223/316/51 227/315/51
f 214/336/52 212/343/52 224/344/52 229/328/52
f 212/345/4 213/346/4 225/312/4 224/311/4
f 206/347/3 207/348/3 223/304/3 222/303/3
f 229/349/53 224/350/53 237/351/53 236/352/53
f 224/311/4 210/314/4 233/353/4 237/354/4
f 222/355/53 228/356/53 235/357/53 230/358/53
f 206/347/3 222/303/3 230/359/3 231/360/3
f 228/361/4 218/362/4 234/326/4 235/325/4
f 254/303/5 255/304/5 241/305/5 240/306/5
f 246/307/54 249/308/54 245/309/54 244/310/54
f 256/311/1 257/312/1 243/313/1 242/314/1
f 259/315/55 255/316/55 239/317/55 253/318/55
f 257/319/55 258/320/55 252/321/55 243/322/55
f 258/320/55 259/315/55 253/318/55 252/321/55
f 251/323/5 261/324/5 268/325/5 264/326/5
f 260/327/56 261/328/56 251/329/56 250/330/56
f 240/331/54 241/332/54 248/333/54 247/334/54
f 247/334/54 248/333/54 249/308/54 246/307/54
f 247/335/56 246/336/56 261/328/56 260/327/56
f 240/337/56 247/335/56 260/327/56 254/338/56
f 249/339/55 248/340/55 259/315/55 258/320/55
f 245/341/55 249/339/55 258/320/55 257/319/55
f 248/340/55 241/342/55 255/316/55 259/315/55
f 246/336/56 244/343/56 256/344/56 261/328/56
f 244/345/1 245/346/1 257/312/1 256/311/1
f 238/347/5 239/348/5 255/304/5 254/303/5
f 261/349/57 256/350/57 269/351/57 268/352/57
f 256/311/1 242/314/1 265/353/1 269/354/1
f 254/355/57 260/356/57 267/357/57 262/358/57
f 238/347/5 254/303/5 262/359/5 263/360/5
f 260/361/1 250/362/1 266/326/1 267/325/1
f 274/363/4 277/364/4 278/365/4 273/366/4
f 270/367/3 275/368/3 276/369/3 271/370/3
f 281/371/58 280/372/58 279/373/58 282/374/58
f 278/375/59 277/376/59 289/377/59 290/378/59
f 285/379/5 283/380/5 286/381/5 288/382/5
f 283/380/5 284/383/5 287/384/5 286/381/5
f 272/385/60 276/386/60 284/387/60 283/388/60
f 280/372/58 281/371/58 288/389/58 286/390/58
f 277/376/61 272/391/61 283/392/61 285/393/61
f 292/394/3 291/395/3 295/396/3 296/397/3
f 290/398/4 289/399/4 293/400/4 294/401/4
f 293/400/4 289/399/4 298/402/4 297/403/4
f 292/394/3 296/397/3 299/404/3 300/405/3
f 285/379/5 288/382/5 297/406/5 298/407/5
f 284/387/62 276/386/62 292/408/62 300/409/62
f 287/384/5 284/383/5 300/410/5 299/411/5
f 288/389/63 281/371/63 293/412/63 297/413/63
f 276/386/62 275/414/62 291/415/62 292/408/62
f 281/371/63 282/374/63 294/416/63 293/412/63
f 277/376/59 285/393/59 298/417/59 289/377/59
f 316/418/5 310/419/5 304/420/5 314/421/5
f 307/422/5 312/423/5 306/424/5 303/425/5
f 301/426/5 305/427/5 311/428/5 308/429/5
f 308/429/5 311/428/5 312/423/5 307/422/5
f 313/430/5 302/431/5 309/432/5 315/433/5
f 315/433/5 309/432/5 310/419/5 316/418/5
f 305/427/5 313/430/5 315/433/5 311/428/5
f 312/423/5 316/418/5 314/421/5 306/424/5
f 312/423/5 311/428/5 315/433/5 316/418/5
f 317/434/64 318/435/64 319/436/64 320/437/64
f 320/437/65 322/438/65 325/439/65 324/440/65
f 320/437/64 319/436/64 321/441/64 322/438/64
f 317/434/65 320/437/65 324/440/65 323/442/65
f 326/443/66 328/444/66 331/445/66 330/446/66
f 329/447/67 327/448/67 330/449/67 331/450/67
f 332/451/68 336/452/68 337/453/68 334/454/68
f 335/455/69 337/456/69 336/457/69 333/458/69
f 327/459/70 329/460/70 335/461/70 333/462/70
f 328/463/71 326/464/71 332/465/71 334/466/71
f 329/467/4 331/468/4 337/469/4 335/470/4
f 330/471/3 327/472/3 333/473/3 336/474/3
f 326/475/3 330/471/3 336/474/3 332/476/3
f 331/468/4 328/477/4 334/478/4 337/469/4
f 37/479/12 35/479/12 78/479/12 34/479/12
