# Blender 5.1.0
# www.blender.org
mtllib road.mtl
o Cube
v 2.500000 -0.050000 10.500000
v 2.500000 0.050000 10.500000
v 2.500000 -0.050000 -10.500000
v 2.500000 0.050000 -10.500000
v -2.500000 -0.050000 -10.500000
v -2.500000 0.050000 -10.500000
v -2.500000 -0.050000 10.500000
v -2.500000 0.050000 10.500000
v -2.700000 0.050000 -10.500000
v -2.700000 -0.050000 -10.500000
v 2.700000 0.050000 10.500000
v 2.700000 -0.050000 10.500000
v 2.700000 0.050000 -10.500000
v 2.700000 -0.050000 -10.500000
v -2.700000 -0.050000 10.500000
v -2.700000 0.050000 10.500000
v 2.500000 0.250000 10.500000
v 2.500000 0.250000 -10.500000
v -2.500000 0.250000 -10.500000
v -2.500000 0.250000 10.500000
v 2.700000 0.250000 10.500000
v 2.700000 0.250000 -10.500000
v -2.700000 0.250000 -10.500000
v -2.700000 0.250000 10.500000
vn -0.0000 -0.0000 1.0000
vn -0.0000 -1.0000 -0.0000
vn -0.0000 1.0000 -0.0000
vn 1.0000 -0.0000 -0.0000
vn -1.0000 -0.0000 -0.0000
vn -0.0000 -0.0000 -1.0000
vt 0.018599 0.037062
vt 0.037117 0.000027
vt 0.037117 0.037062
vt 0.009574 2.999746
vt 0.247645 -1.999746
vt 0.247645 2.999746
vt 0.000051 -1.999746
vt 0.009574 -1.999746
vt -0.196079 3.426303
vt 1.197398 -2.426303
vt 1.197399 3.426303
vt 0.017861 2.999931
vt -0.000596 -1.999931
vt 0.017861 -1.999931
vt 0.036425 2.999931
vt 0.017968 -1.999931
vt 0.036424 -1.999931
vt 0.832989 4.544865
vt 0.585380 -3.454865
vt 0.832991 -3.454865
vt 0.037117 0.962938
vt 0.018600 0.999973
vt 0.018600 0.962938
vt 0.018545 0.962938
vt 0.000027 0.999973
vt 0.000027 0.962938
vt 0.058891 0.157343
vt -0.283629 0.499863
vt -0.283630 0.157343
vt 0.257168 2.999746
vt 0.000027 0.037062
vt 0.018545 0.000027
vt 0.018545 0.037062
vt 0.337769 -3.454865
vt 0.585379 4.544865
vt 0.337768 4.544865
vt 0.337768 -3.454865
vt 0.585380 4.544865
vt 0.337769 4.544865
vt 0.058891 0.500137
vt -0.283629 0.842657
vt -0.283629 0.500137
vt 0.059165 0.499863
vt 0.401685 0.157343
vt 0.401685 0.499863
vt 0.090159 -3.454865
vt 0.090157 4.544865
vt 0.832991 4.544865
vt 0.585379 -3.454865
vt 0.832990 -3.454865
vt 0.059165 0.842657
vt 0.401685 0.500137
vt 0.401685 0.842657
vt 0.090157 -3.454865
vt 0.090159 4.544865
vt 0.018599 0.000027
vt 0.000051 2.999746
vt -0.196079 -2.426303
vt -0.000596 2.999931
vt 0.017968 2.999931
vt 0.037117 0.999973
vt 0.018545 0.999973
vt 0.058891 0.499863
vt 0.257167 -1.999746
vt 0.000027 0.000027
vt 0.058891 0.842657
vt 0.059165 0.157343
vt 0.059164 0.500137
s 0
usemtl asfalt
f 8/1/1 15/2/1 7/3/1
f 7/4/2 3/5/2 1/6/2
f 7/4/2 10/7/2 5/8/2
f 2/9/3 6/10/3 8/11/3
f 11/12/4 14/13/4 13/14/4
f 15/15/5 9/16/5 10/17/5
f 1/21/1 11/22/1 2/23/1
f 5/24/6 9/25/6 6/26/6
f 9/27/6 19/28/6 6/29/6
f 3/5/2 12/30/2 1/6/2
f 4/31/6 14/32/6 3/33/6
f 4/40/6 22/41/6 13/42/6
f 8/43/1 24/44/1 16/45/1
f 11/51/1 17/52/1 2/53/1
f 1/21/1 8/1/1 7/3/1
f 6/26/6 3/33/6 5/24/6
f 8/1/1 16/56/1 15/2/1
f 7/4/2 5/8/2 3/5/2
f 7/4/2 15/57/2 10/7/2
f 2/9/3 4/58/3 6/10/3
f 11/12/4 12/59/4 14/13/4
f 15/15/5 16/60/5 9/16/5
f 1/21/1 12/61/1 11/22/1
f 5/24/6 10/62/6 9/25/6
f 9/27/6 23/63/6 19/28/6
f 3/5/2 14/64/2 12/30/2
f 4/31/6 13/65/6 14/32/6
f 4/40/6 18/66/6 22/41/6
f 8/43/1 20/67/1 24/44/1
f 11/51/1 21/68/1 17/52/1
f 1/21/1 2/23/1 8/1/1
f 6/26/6 4/31/6 3/33/6
usemtl bordur
f 13/18/4 21/19/4 11/20/4
f 17/34/3 22/35/3 18/36/3
f 19/37/3 24/38/3 20/39/3
f 2/46/5 18/36/5 4/47/5
f 16/48/5 23/49/5 9/50/5
f 6/54/4 20/39/4 8/55/4
f 13/18/4 22/35/4 21/19/4
f 17/34/3 21/19/3 22/35/3
f 19/37/3 23/49/3 24/38/3
f 2/46/5 17/34/5 18/36/5
f 16/48/5 24/38/5 23/49/5
f 6/54/4 19/37/4 20/39/4
