# Blender 5.1.1
# www.blender.org
mtllib brick_wall2.mtl
o Куб
v -0.266666 -0.499998 0.266666
v -0.266666 0.499998 0.266666
v -0.266666 -0.499998 -0.266666
v -0.266666 0.499998 -0.266666
v 0.266666 -0.499998 0.266666
v 0.266666 0.499998 0.266666
v 0.266666 -0.499998 -0.266666
v 0.266666 0.499998 -0.266666
v -0.499998 0.499998 0.499998
v -0.499998 0.499998 -0.499998
v 0.499998 0.499998 -0.499998
v 0.499998 0.499998 0.499998
v -0.499998 -0.499998 -0.499998
v -0.499998 -0.499998 0.499998
v 0.499998 -0.499998 -0.499998
v 0.499998 -0.499998 0.499998
v -0.466665 0.499998 0.466665
v -0.466665 0.499998 -0.466665
v 0.466665 0.499998 -0.466665
v 0.466665 0.499998 0.466665
v -0.466665 -0.499998 -0.466665
v -0.466665 -0.499998 0.466665
v 0.466665 -0.499998 -0.466665
v 0.466665 -0.499998 0.466665
vn -1.0000 -0.0000 -0.0000
vn -0.0000 -0.0000 -1.0000
vn 1.0000 -0.0000 -0.0000
vn -0.0000 -0.0000 1.0000
vn -0.0000 -1.0000 -0.0000
vn -0.0000 1.0000 -0.0000
vt 0.000000 -0.000000
vt 1.000000 1.000000
vt 0.000000 1.000000
vt 1.000000 1.000000
vt -0.000000 0.000000
vt 1.000000 0.000000
vt 0.316667 0.558333
vt 0.183333 0.691667
vt 0.183333 0.558333
vt 0.816667 0.558333
vt 0.683333 0.691667
vt 0.683333 0.558333
vt 0.866667 0.508333
vt 0.875000 0.750000
vt 0.866667 0.741667
vt 0.633333 0.508333
vt 0.875000 0.500000
vt 0.633333 0.741667
vt 0.625000 0.500000
vt 0.625000 0.750000
vt 0.133333 0.741667
vt 0.125000 0.500000
vt 0.133333 0.508333
vt 0.375000 0.500000
vt 0.366667 0.508333
vt 0.375000 0.750000
vt 0.366667 0.741667
vt 0.125000 0.750000
vt 0.816667 0.691667
vt 0.316667 0.691667
vt 1.000000 0.000000
vt -0.000000 1.000000
s 0
usemtl Brick
f 9/1/1 13/2/1 14/3/1
f 10/1/2 15/2/2 13/3/2
f 11/4/3 16/5/3 15/6/3
f 12/4/4 14/5/4 16/6/4
f 9/1/1 10/31/1 13/2/1
f 10/1/2 11/31/2 15/2/2
f 11/4/3 12/32/3 16/5/3
f 12/4/4 9/32/4 14/5/4
usemtl Black
f 7/7/5 1/8/5 3/9/5
f 4/10/6 6/11/6 8/12/6
f 18/13/6 9/14/6 17/15/6
f 19/16/6 10/17/6 18/13/6
f 20/18/6 11/19/6 19/16/6
f 17/15/6 12/20/6 20/18/6
f 22/21/5 13/22/5 21/23/5
f 21/23/5 15/24/5 23/25/5
f 23/25/5 16/26/5 24/27/5
f 24/27/5 14/28/5 22/21/5
f 7/7/5 5/30/5 1/8/5
f 4/10/6 2/29/6 6/11/6
f 18/13/6 10/17/6 9/14/6
f 19/16/6 11/19/6 10/17/6
f 20/18/6 12/20/6 11/19/6
f 17/15/6 9/14/6 12/20/6
f 22/21/5 14/28/5 13/22/5
f 21/23/5 13/22/5 15/24/5
f 23/25/5 15/24/5 16/26/5
f 24/27/5 16/26/5 14/28/5
usemtl Orange
f 4/10/6 17/15/6 2/29/6
f 8/12/6 18/13/6 4/10/6
f 6/11/6 19/16/6 8/12/6
f 2/29/6 20/18/6 6/11/6
f 1/8/5 21/23/5 3/9/5
f 3/9/5 23/25/5 7/7/5
f 7/7/5 24/27/5 5/30/5
f 5/30/5 22/21/5 1/8/5
f 4/10/6 18/13/6 17/15/6
f 8/12/6 19/16/6 18/13/6
f 6/11/6 20/18/6 19/16/6
f 2/29/6 17/15/6 20/18/6
f 1/8/5 22/21/5 21/23/5
f 3/9/5 21/23/5 23/25/5
f 7/7/5 23/25/5 24/27/5
f 5/30/5 24/27/5 22/21/5
