# Blender 5.1.1
# www.blender.org
mtllib cannon85mm.mtl
o Cannon85mm
v 0.000000 0.039993 -3.000000
v -0.000000 0.042500 0.000000
v 0.007802 0.039224 -3.000000
v 0.008291 0.041683 0.000000
v 0.015304 0.036948 -3.000000
v 0.016264 0.039265 0.000000
v 0.022219 0.033253 -3.000000
v 0.023612 0.035337 0.000000
v 0.028279 0.028279 -3.000000
v 0.030052 0.030052 0.000000
v 0.033253 0.022219 -3.000000
v 0.035337 0.023612 0.000000
v 0.036948 0.015305 -3.000000
v 0.039265 0.016264 0.000000
v 0.039224 0.007802 -3.000000
v 0.041683 0.008291 0.000000
v 0.039993 0.000000 -3.000000
v 0.042500 -0.000000 0.000000
v 0.039224 -0.007802 -3.000000
v 0.041683 -0.008291 0.000000
v 0.036948 -0.015304 -3.000000
v 0.039265 -0.016264 0.000000
v 0.033253 -0.022219 -3.000000
v 0.035337 -0.023612 0.000000
v 0.028279 -0.028279 -3.000000
v 0.030052 -0.030052 0.000000
v 0.022219 -0.033252 -3.000000
v 0.023612 -0.035337 0.000000
v 0.015304 -0.036948 -3.000000
v 0.016264 -0.039265 0.000000
v 0.007802 -0.039224 -3.000000
v 0.008291 -0.041683 0.000000
v 0.000000 -0.039992 -3.000000
v -0.000000 -0.042500 0.000000
v -0.007802 -0.039224 -3.000000
v -0.008291 -0.041683 0.000000
v -0.015304 -0.036948 -3.000000
v -0.016264 -0.039265 0.000000
v -0.022219 -0.033252 -3.000000
v -0.023612 -0.035337 0.000000
v -0.028279 -0.028279 -3.000000
v -0.030052 -0.030052 0.000000
v -0.033253 -0.022219 -3.000000
v -0.035337 -0.023612 0.000000
v -0.036948 -0.015304 -3.000000
v -0.039265 -0.016264 0.000000
v -0.039224 -0.007802 -3.000000
v -0.041683 -0.008291 0.000000
v -0.039992 0.000000 -3.000000
v -0.042500 -0.000000 0.000000
v -0.039224 0.007802 -3.000000
v -0.041683 0.008291 0.000000
v -0.036948 0.015305 -3.000000
v -0.039265 0.016264 0.000000
v -0.033253 0.022219 -3.000000
v -0.035337 0.023612 0.000000
v -0.028279 0.028279 -3.000000
v -0.030052 0.030052 0.000000
v -0.022219 0.033253 -3.000000
v -0.023612 0.035337 0.000000
v -0.015304 0.036948 -3.000000
v -0.016264 0.039265 0.000000
v -0.007802 0.039224 -3.000000
v -0.008291 0.041683 0.000000
v -0.000000 0.042500 -0.470000
v 0.008291 0.041683 -0.470000
v 0.016264 0.039265 -0.470000
v 0.023612 0.035338 -0.470000
v 0.030052 0.030052 -0.470000
v 0.035337 0.023612 -0.470000
v 0.039265 0.016264 -0.470000
v 0.041683 0.008291 -0.470000
v 0.042500 0.000000 -0.470000
v 0.041683 -0.008291 -0.470000
v 0.039265 -0.016264 -0.470000
v 0.035337 -0.023612 -0.470000
v 0.030052 -0.030052 -0.470000
v 0.023612 -0.035337 -0.470000
v 0.016264 -0.039265 -0.470000
v 0.008291 -0.041683 -0.470000
v -0.000000 -0.042500 -0.470000
v -0.008291 -0.041683 -0.470000
v -0.016264 -0.039265 -0.470000
v -0.023612 -0.035337 -0.470000
v -0.030052 -0.030052 -0.470000
v -0.035337 -0.023612 -0.470000
v -0.039265 -0.016264 -0.470000
v -0.041683 -0.008291 -0.470000
v -0.042500 0.000000 -0.470000
v -0.041683 0.008291 -0.470000
v -0.039265 0.016264 -0.470000
v -0.035337 0.023612 -0.470000
v -0.030052 0.030052 -0.470000
v -0.023612 0.035338 -0.470000
v -0.016264 0.039265 -0.470000
v -0.008291 0.041683 -0.470000
v 0.013169 0.066203 0.000000
v -0.000000 0.067500 0.000000
v 0.025831 0.062362 0.000000
v 0.037501 0.056124 0.000000
v 0.047730 0.047730 0.000000
v 0.056124 0.037501 0.000000
v 0.062362 0.025831 0.000000
v 0.066203 0.013169 0.000000
v 0.067500 -0.000000 -0.000000
v 0.066203 -0.013169 -0.000000
v 0.062362 -0.025831 -0.000000
v 0.056124 -0.037501 -0.000000
v 0.047730 -0.047730 -0.000000
v 0.037501 -0.056124 -0.000000
v 0.025831 -0.062362 -0.000000
v 0.013169 -0.066203 -0.000000
v -0.000000 -0.067500 -0.000000
v -0.013169 -0.066203 -0.000000
v -0.025831 -0.062362 -0.000000
v -0.037501 -0.056124 -0.000000
v -0.047730 -0.047730 -0.000000
v -0.056124 -0.037501 -0.000000
v -0.062362 -0.025831 -0.000000
v -0.066203 -0.013169 -0.000000
v -0.067500 -0.000000 -0.000000
v -0.066203 0.013169 0.000000
v -0.062362 0.025831 0.000000
v -0.056124 0.037501 0.000000
v -0.047730 0.047730 0.000000
v -0.037501 0.056124 0.000000
v -0.025831 0.062362 0.000000
v -0.013169 0.066203 0.000000
v -0.000000 0.067500 -0.350000
v 0.013169 0.066203 -0.350000
v 0.025831 0.062362 -0.350000
v 0.037501 0.056124 -0.350000
v 0.047730 0.047730 -0.350000
v 0.056124 0.037501 -0.350000
v 0.062362 0.025831 -0.350000
v 0.066203 0.013169 -0.350000
v 0.067500 0.000000 -0.350000
v 0.066203 -0.013169 -0.350000
v 0.062362 -0.025831 -0.350000
v 0.056124 -0.037501 -0.350000
v 0.047730 -0.047730 -0.350000
v 0.037501 -0.056124 -0.350000
v 0.025831 -0.062362 -0.350000
v 0.013169 -0.066203 -0.350000
v -0.000000 -0.067500 -0.350000
v -0.013169 -0.066203 -0.350000
v -0.025831 -0.062362 -0.350000
v -0.037501 -0.056124 -0.350000
v -0.047730 -0.047730 -0.350000
v -0.056124 -0.037501 -0.350000
v -0.062362 -0.025831 -0.350000
v -0.066203 -0.013169 -0.350000
v -0.067500 0.000000 -0.350000
v -0.066203 0.013169 -0.350000
v -0.062362 0.025831 -0.350000
v -0.056124 0.037501 -0.350000
v -0.047730 0.047730 -0.350000
v -0.037501 0.056124 -0.350000
v -0.025831 0.062362 -0.350000
v -0.013169 0.066203 -0.350000
v -0.000000 0.064478 -0.396366
v -0.000000 0.055228 -0.451866
v 0.010774 0.054166 -0.451866
v 0.012579 0.063239 -0.396366
v 0.021135 0.051024 -0.451866
v 0.024675 0.059570 -0.396366
v 0.030683 0.045920 -0.451866
v 0.035822 0.053611 -0.396366
v 0.039052 0.039052 -0.451866
v 0.045593 0.045593 -0.396366
v 0.045920 0.030683 -0.451866
v 0.053611 0.035822 -0.396366
v 0.051024 0.021135 -0.451866
v 0.059570 0.024675 -0.396366
v 0.054166 0.010774 -0.451866
v 0.063239 0.012579 -0.396366
v 0.055228 0.000000 -0.451866
v 0.064478 0.000000 -0.396366
v 0.054166 -0.010774 -0.451866
v 0.063239 -0.012579 -0.396366
v 0.051024 -0.021135 -0.451866
v 0.059570 -0.024674 -0.396366
v 0.045920 -0.030683 -0.451866
v 0.053611 -0.035822 -0.396366
v 0.039052 -0.039052 -0.451866
v 0.045593 -0.045593 -0.396366
v 0.030683 -0.045920 -0.451866
v 0.035822 -0.053611 -0.396366
v 0.021135 -0.051024 -0.451866
v 0.024675 -0.059570 -0.396366
v 0.010774 -0.054166 -0.451866
v 0.012579 -0.063239 -0.396366
v -0.000000 -0.055228 -0.451866
v -0.000000 -0.064478 -0.396366
v -0.010774 -0.054166 -0.451866
v -0.012579 -0.063239 -0.396366
v -0.021135 -0.051024 -0.451866
v -0.024675 -0.059570 -0.396366
v -0.030683 -0.045920 -0.451866
v -0.035822 -0.053611 -0.396366
v -0.039052 -0.039052 -0.451866
v -0.045593 -0.045593 -0.396366
v -0.045920 -0.030683 -0.451866
v -0.053611 -0.035822 -0.396366
v -0.051024 -0.021135 -0.451866
v -0.059570 -0.024674 -0.396366
v -0.054166 -0.010774 -0.451866
v -0.063239 -0.012579 -0.396366
v -0.055228 0.000000 -0.451866
v -0.064478 0.000000 -0.396366
v -0.054166 0.010774 -0.451866
v -0.063239 0.012579 -0.396366
v -0.051024 0.021135 -0.451866
v -0.059570 0.024675 -0.396366
v -0.045920 0.030683 -0.451866
v -0.053611 0.035822 -0.396366
v -0.039052 0.039052 -0.451866
v -0.045593 0.045593 -0.396366
v -0.030683 0.045920 -0.451866
v -0.035822 0.053611 -0.396366
v -0.021135 0.051024 -0.451866
v -0.024675 0.059570 -0.396366
v -0.010774 0.054166 -0.451866
v -0.012579 0.063239 -0.396366
v 0.008047 0.040454 -2.735000
v 0.015784 0.038107 -2.735000
v 0.022915 0.034295 -2.735000
v 0.029166 0.029166 -2.735000
v 0.034295 0.022915 -2.735000
v 0.038107 0.015784 -2.735000
v 0.040454 0.008047 -2.735000
v 0.041246 0.000000 -2.735000
v 0.040454 -0.008047 -2.735000
v 0.038107 -0.015784 -2.735000
v 0.034295 -0.022915 -2.735000
v 0.029166 -0.029165 -2.735000
v 0.022915 -0.034295 -2.735000
v 0.015784 -0.038106 -2.735000
v 0.008047 -0.040454 -2.735000
v 0.000000 -0.041246 -2.735000
v -0.008047 -0.040454 -2.735000
v -0.015784 -0.038106 -2.735000
v -0.022915 -0.034295 -2.735000
v -0.029166 -0.029165 -2.735000
v -0.034295 -0.022915 -2.735000
v -0.038107 -0.015784 -2.735000
v -0.040454 -0.008047 -2.735000
v -0.041246 0.000000 -2.735000
v -0.040454 0.008047 -2.735000
v -0.038107 0.015784 -2.735000
v -0.034295 0.022915 -2.735000
v -0.029166 0.029166 -2.735000
v -0.022915 0.034295 -2.735000
v -0.015784 0.038107 -2.735000
v -0.008047 0.040454 -2.735000
v 0.000000 0.041246 -2.735000
v 0.000000 0.049992 -3.000047
v 0.009753 0.049032 -3.000047
v 0.009998 0.050262 -2.750047
v 0.019131 0.046187 -3.000047
v 0.019611 0.047345 -2.750047
v 0.027774 0.041567 -3.000047
v 0.028471 0.042610 -2.750047
v 0.035350 0.035350 -3.000047
v 0.036236 0.036237 -2.750047
v 0.041567 0.027774 -3.000047
v 0.042610 0.028471 -2.750047
v 0.046187 0.019131 -3.000047
v 0.047345 0.019611 -2.750047
v 0.049032 0.009753 -3.000047
v 0.050261 0.009998 -2.750047
v 0.049992 0.000000 -3.000047
v 0.051246 0.000000 -2.750047
v 0.049032 -0.009753 -3.000047
v 0.050261 -0.009998 -2.750047
v 0.046187 -0.019131 -3.000047
v 0.047345 -0.019611 -2.750047
v 0.041567 -0.027774 -3.000047
v 0.042610 -0.028471 -2.750047
v 0.035350 -0.035350 -3.000047
v 0.036236 -0.036236 -2.750047
v 0.027774 -0.041567 -3.000047
v 0.028471 -0.042610 -2.750047
v 0.019131 -0.046187 -3.000047
v 0.019611 -0.047345 -2.750047
v 0.009753 -0.049032 -3.000047
v 0.009998 -0.050261 -2.750047
v 0.000000 -0.049992 -3.000047
v 0.000000 -0.051246 -2.750047
v -0.009753 -0.049032 -3.000047
v -0.009998 -0.050261 -2.750047
v -0.019131 -0.046187 -3.000047
v -0.019611 -0.047345 -2.750047
v -0.027774 -0.041567 -3.000047
v -0.028471 -0.042610 -2.750047
v -0.035350 -0.035350 -3.000047
v -0.036236 -0.036236 -2.750047
v -0.041567 -0.027774 -3.000047
v -0.042610 -0.028471 -2.750047
v -0.046187 -0.019131 -3.000047
v -0.047345 -0.019611 -2.750047
v -0.049032 -0.009753 -3.000047
v -0.050261 -0.009998 -2.750047
v -0.049992 0.000000 -3.000047
v -0.051246 0.000000 -2.750047
v -0.049032 0.009753 -3.000047
v -0.050261 0.009998 -2.750047
v -0.046187 0.019131 -3.000047
v -0.047345 0.019611 -2.750047
v -0.041567 0.027774 -3.000047
v -0.042610 0.028471 -2.750047
v -0.035350 0.035350 -3.000047
v -0.036236 0.036237 -2.750047
v -0.027774 0.041567 -3.000047
v -0.028471 0.042610 -2.750047
v -0.019131 0.046187 -3.000047
v -0.019611 0.047345 -2.750047
v -0.009753 0.049032 -3.000047
v -0.009998 0.050262 -2.750047
v 0.000000 0.051246 -2.750047
v 0.000000 0.039992 -2.750000
v 0.007802 0.039224 -2.750000
v 0.015304 0.036948 -2.750000
v 0.022219 0.033253 -2.750000
v 0.028279 0.028279 -2.750000
v 0.033253 0.022219 -2.750000
v 0.036948 0.015304 -2.750000
v 0.039224 0.007802 -2.750000
v 0.039993 0.000000 -2.750000
v 0.039224 -0.007802 -2.750000
v 0.036948 -0.015304 -2.750000
v 0.033253 -0.022219 -2.750000
v 0.028279 -0.028279 -2.750000
v 0.022219 -0.033253 -2.750000
v 0.015304 -0.036948 -2.750000
v 0.007802 -0.039224 -2.750000
v 0.000000 -0.039993 -2.750000
v -0.007802 -0.039224 -2.750000
v -0.015304 -0.036948 -2.750000
v -0.022219 -0.033253 -2.750000
v -0.028279 -0.028279 -2.750000
v -0.033253 -0.022219 -2.750000
v -0.036948 -0.015304 -2.750000
v -0.039224 -0.007802 -2.750000
v -0.039992 0.000000 -2.750000
v -0.039224 0.007802 -2.750000
v -0.036948 0.015304 -2.750000
v -0.033253 0.022219 -2.750000
v -0.028279 0.028279 -2.750000
v -0.022219 0.033253 -2.750000
v -0.015304 0.036948 -2.750000
v -0.007802 0.039224 -2.750000
vn -0.0000 -0.0000 1.0000
vn 0.0980 0.9952 -0.0000
vn -0.0980 0.9952 -0.0006
vn -0.2903 0.9569 -0.0006
vn -0.4714 0.8819 -0.0006
vn -0.6344 0.7730 -0.0006
vn -0.7730 0.6344 -0.0006
vn -0.8819 0.4714 -0.0006
vn -0.9569 0.2903 -0.0006
vn -0.9952 0.0980 -0.0006
vn -0.9952 -0.0980 -0.0006
vn -0.9569 -0.2903 -0.0006
vn -0.8819 -0.4714 -0.0006
vn -0.7730 -0.6344 -0.0006
vn -0.6344 -0.7730 -0.0006
vn -0.4714 -0.8819 -0.0006
vn -0.2903 -0.9569 -0.0006
vn -0.0980 -0.9952 -0.0006
vn 0.0980 -0.9952 -0.0006
vn 0.2903 -0.9569 -0.0006
vn 0.4714 -0.8819 -0.0006
vn 0.6344 -0.7730 -0.0006
vn 0.7730 -0.6344 -0.0006
vn 0.8819 -0.4714 -0.0006
vn 0.9569 -0.2903 -0.0006
vn 0.9952 -0.0980 -0.0006
vn 0.9952 0.0980 -0.0006
vn 0.9569 0.2903 -0.0006
vn 0.8819 0.4714 -0.0006
vn 0.7730 0.6344 -0.0006
vn 0.6344 0.7730 -0.0006
vn 0.4714 0.8819 -0.0006
vn 0.2903 0.9569 -0.0006
vn 0.0980 0.9952 -0.0006
vn 0.2903 0.9569 -0.0000
vn 0.4714 0.8819 -0.0000
vn 0.6344 0.7730 -0.0000
vn 0.7730 0.6344 -0.0000
vn 0.8819 0.4714 -0.0000
vn 0.9569 0.2903 -0.0000
vn 0.9952 0.0980 -0.0000
vn 0.9952 -0.0980 -0.0000
vn 0.9569 -0.2903 -0.0000
vn 0.8819 -0.4714 -0.0000
vn 0.7730 -0.6344 -0.0000
vn 0.6344 -0.7730 -0.0000
vn 0.4714 -0.8819 -0.0000
vn 0.2903 -0.9569 -0.0000
vn 0.0980 -0.9952 -0.0000
vn -0.0980 -0.9952 -0.0000
vn -0.2903 -0.9569 -0.0000
vn -0.4714 -0.8819 -0.0000
vn -0.6344 -0.7730 -0.0000
vn -0.7730 -0.6344 -0.0000
vn -0.8819 -0.4714 -0.0000
vn -0.9569 -0.2903 -0.0000
vn -0.9952 -0.0980 -0.0000
vn -0.9952 0.0980 -0.0000
vn -0.9569 0.2903 -0.0000
vn -0.8819 0.4714 -0.0000
vn -0.7730 0.6344 -0.0000
vn -0.6344 0.7730 -0.0000
vn -0.4714 0.8819 -0.0000
vn -0.2903 0.9569 -0.0000
vn -0.0980 0.9952 -0.0000
vn -0.0978 0.9931 -0.0647
vn -0.0967 0.9818 -0.1636
vn -0.0804 0.8159 -0.5726
vn -0.2897 0.9549 -0.0647
vn -0.2864 0.9440 -0.1636
vn -0.2380 0.7845 -0.5726
vn -0.4704 0.8801 -0.0647
vn -0.4650 0.8700 -0.1636
vn -0.3865 0.7230 -0.5726
vn -0.6331 0.7714 -0.0647
vn -0.6258 0.7626 -0.1636
vn -0.5201 0.6337 -0.5726
vn -0.7714 0.6331 -0.0647
vn -0.7626 0.6258 -0.1636
vn -0.6337 0.5201 -0.5726
vn -0.8801 0.4704 -0.0647
vn -0.8700 0.4650 -0.1636
vn -0.7230 0.3865 -0.5726
vn -0.9549 0.2897 -0.0647
vn -0.9440 0.2864 -0.1636
vn -0.7845 0.2380 -0.5726
vn -0.9931 0.0978 -0.0647
vn -0.9818 0.0967 -0.1636
vn -0.8159 0.0804 -0.5726
vn -0.9931 -0.0978 -0.0647
vn -0.9818 -0.0967 -0.1636
vn -0.8159 -0.0804 -0.5726
vn -0.9549 -0.2897 -0.0647
vn -0.9440 -0.2864 -0.1636
vn -0.7845 -0.2380 -0.5726
vn -0.8801 -0.4704 -0.0647
vn -0.8700 -0.4650 -0.1636
vn -0.7230 -0.3865 -0.5726
vn -0.7714 -0.6331 -0.0647
vn -0.7626 -0.6258 -0.1636
vn -0.6337 -0.5201 -0.5726
vn -0.6331 -0.7714 -0.0647
vn -0.6258 -0.7626 -0.1636
vn -0.5201 -0.6337 -0.5726
vn -0.4704 -0.8801 -0.0647
vn -0.4650 -0.8700 -0.1636
vn -0.3865 -0.7230 -0.5726
vn -0.2897 -0.9549 -0.0647
vn -0.2864 -0.9440 -0.1636
vn -0.2380 -0.7845 -0.5726
vn -0.0978 -0.9931 -0.0647
vn -0.0967 -0.9818 -0.1636
vn -0.0804 -0.8159 -0.5726
vn 0.0978 -0.9931 -0.0647
vn 0.0967 -0.9818 -0.1636
vn 0.0804 -0.8159 -0.5726
vn 0.2897 -0.9549 -0.0647
vn 0.2864 -0.9440 -0.1636
vn 0.2380 -0.7845 -0.5726
vn 0.4704 -0.8801 -0.0647
vn 0.4650 -0.8700 -0.1636
vn 0.3865 -0.7230 -0.5726
vn 0.6331 -0.7714 -0.0647
vn 0.6258 -0.7626 -0.1636
vn 0.5201 -0.6337 -0.5726
vn 0.7714 -0.6331 -0.0647
vn 0.7626 -0.6258 -0.1636
vn 0.6337 -0.5201 -0.5726
vn 0.8801 -0.4704 -0.0647
vn 0.8700 -0.4650 -0.1636
vn 0.7230 -0.3865 -0.5726
vn 0.9549 -0.2897 -0.0647
vn 0.9440 -0.2864 -0.1636
vn 0.7845 -0.2380 -0.5726
vn 0.9931 -0.0978 -0.0647
vn 0.9818 -0.0967 -0.1636
vn 0.8159 -0.0804 -0.5726
vn 0.9931 0.0978 -0.0647
vn 0.9818 0.0967 -0.1636
vn 0.8159 0.0804 -0.5726
vn 0.9549 0.2897 -0.0647
vn 0.9440 0.2864 -0.1636
vn 0.7845 0.2380 -0.5726
vn 0.8801 0.4704 -0.0647
vn 0.8700 0.4650 -0.1636
vn 0.7230 0.3865 -0.5726
vn 0.7714 0.6331 -0.0647
vn 0.7626 0.6258 -0.1636
vn 0.6337 0.5201 -0.5726
vn 0.6331 0.7714 -0.0647
vn 0.6258 0.7626 -0.1636
vn 0.5201 0.6337 -0.5726
vn 0.4704 0.8801 -0.0647
vn 0.4650 0.8700 -0.1636
vn 0.3865 0.7230 -0.5726
vn 0.2897 0.9549 -0.0647
vn 0.2864 0.9440 -0.1636
vn 0.2380 0.7845 -0.5726
vn 0.0978 0.9931 -0.0647
vn 0.0967 0.9818 -0.1636
vn 0.0804 0.8159 -0.5726
vn -0.0022 -0.0042 -1.0000
vn 0.3932 0.7356 0.5516
vn 0.0030 -0.0037 -1.0000
vn -0.5291 0.6448 0.5516
vn 0.0030 0.0036 -1.0000
vn 0.2421 0.7982 0.5516
vn -0.6448 0.5291 0.5516
vn -0.0042 0.0022 -1.0000
vn 0.0818 0.8301 0.5516
vn -0.7356 0.3932 0.5516
vn -0.0014 -0.0046 -1.0000
vn 0.0037 -0.0031 -1.0000
vn -0.7982 0.2421 0.5516
vn 0.0022 0.0042 -1.0000
vn -0.8301 0.0817 0.5516
vn -0.0045 0.0013 -1.0000
vn -0.8301 -0.0818 0.5516
vn -0.0005 -0.0047 -1.0000
vn 0.0042 -0.0022 -1.0000
vn -0.7982 -0.2421 0.5516
vn 0.0014 0.0046 -1.0000
vn -0.7356 -0.3932 0.5516
vn -0.0047 0.0004 -1.0000
vn -0.6448 -0.5291 0.5516
vn 0.0045 -0.0013 -1.0000
vn -0.5291 -0.6448 0.5516
vn 0.0005 0.0047 -1.0000
vn -0.3932 -0.7356 0.5516
vn -0.0047 -0.0005 -1.0000
vn -0.2421 -0.7982 0.5516
vn 0.0047 -0.0005 -1.0000
vn -0.0818 -0.8301 0.5516
vn 0.0980 0.9952 -0.0050
vn 0.2903 0.9569 -0.0050
vn 0.4714 0.8819 -0.0050
vn 0.6344 0.7730 -0.0050
vn 0.7730 0.6344 -0.0050
vn 0.8819 0.4714 -0.0050
vn 0.9569 0.2903 -0.0050
vn 0.9952 0.0980 -0.0050
vn 0.9952 -0.0980 -0.0050
vn 0.9569 -0.2903 -0.0050
vn 0.8819 -0.4714 -0.0050
vn 0.7730 -0.6344 -0.0050
vn 0.6344 -0.7730 -0.0050
vn 0.4714 -0.8819 -0.0050
vn 0.2903 -0.9569 -0.0050
vn 0.0980 -0.9952 -0.0050
vn -0.0980 -0.9952 -0.0050
vn -0.2903 -0.9569 -0.0050
vn -0.4714 -0.8819 -0.0050
vn -0.6344 -0.7730 -0.0050
vn -0.7730 -0.6344 -0.0050
vn -0.8819 -0.4714 -0.0050
vn -0.9569 -0.2903 -0.0050
vn -0.9952 -0.0980 -0.0050
vn -0.9952 0.0980 -0.0050
vn -0.9569 0.2903 -0.0050
vn -0.8819 0.4714 -0.0050
vn -0.7730 0.6344 -0.0050
vn -0.6344 0.7730 -0.0050
vn -0.4714 0.8819 -0.0050
vn -0.2903 0.9569 -0.0050
vn -0.0980 0.9952 -0.0050
vn -0.3932 0.7356 0.5516
vn 0.5291 0.6447 0.5516
vn -0.0037 0.0031 -1.0000
vn -0.2421 0.7982 0.5516
vn 0.6448 0.5291 0.5516
vn 0.0037 0.0031 -1.0000
vn -0.0818 0.8301 0.5516
vn 0.0022 -0.0042 -1.0000
vn 0.7356 0.3932 0.5516
vn -0.0030 -0.0037 -1.0000
vn 0.7982 0.2421 0.5516
vn -0.0030 0.0037 -1.0000
vn 0.0042 0.0022 -1.0000
vn 0.8301 0.0817 0.5516
vn 0.0014 -0.0045 -1.0000
vn 0.8301 -0.0818 0.5516
vn -0.0037 -0.0030 -1.0000
vn 0.7982 -0.2421 0.5516
vn -0.0022 0.0041 -1.0000
vn 0.0045 0.0014 -1.0000
vn 0.7356 -0.3932 0.5516
vn 0.0005 -0.0047 -1.0000
vn 0.6448 -0.5291 0.5516
vn -0.0042 -0.0022 -1.0000
vn 0.5292 -0.6447 0.5516
vn -0.0014 0.0045 -1.0000
vn 0.3932 -0.7356 0.5516
vn 0.0047 0.0004 -1.0000
vn 0.2421 -0.7982 0.5516
vn -0.0045 -0.0014 -1.0000
vn 0.0818 -0.8301 0.5516
vn -0.0005 0.0047 -1.0000
vn -0.0000 -0.0000 -1.0000
vn 0.0030 -0.0036 -1.0000
vn 0.0030 0.0037 -1.0000
vn 0.0818 0.8301 0.5517
vn -0.0014 -0.0045 -1.0000
vn 0.0037 -0.0030 -1.0000
vn 0.0022 0.0041 -1.0000
vn -0.8301 0.0818 0.5516
vn -0.0045 0.0014 -1.0000
vn -0.8301 -0.0817 0.5516
vn 0.0014 0.0045 -1.0000
vn -0.0047 0.0005 -1.0000
vn 0.0045 -0.0014 -1.0000
vn -0.0047 -0.0004 -1.0000
vn 0.0047 -0.0004 -1.0000
vn 0.5291 0.6448 0.5516
vn -0.0030 -0.0036 -1.0000
vn -0.0030 0.0036 -1.0000
vn 0.8301 0.0818 0.5516
vn 0.0014 -0.0046 -1.0000
vn 0.8301 -0.0817 0.5516
vn -0.0037 -0.0031 -1.0000
vn -0.0022 0.0042 -1.0000
vn 0.0045 0.0013 -1.0000
vn 0.5291 -0.6448 0.5516
vn 0.0047 0.0005 -1.0000
vn -0.0045 -0.0013 -1.0000
vn -0.0000 -0.0003 -1.0000
vn -0.0000 0.0003 -1.0000
vn -0.0000 -0.0002 -1.0000
vn -0.0000 0.0002 -1.0000
vn -0.0000 -0.0006 -1.0000
vn -0.0000 0.0006 -1.0000
vn -0.0000 0.0001 -1.0000
vn -0.0000 -0.0001 -1.0000
vt 0.490000 0.250000
vt 0.485388 0.203178
vt 0.028269 0.341844
vt 0.014612 0.296822
vt 0.203178 0.014612
vt 0.250000 0.010000
vt 0.485388 0.296822
vt 0.010000 0.250000
vt 0.296822 0.014612
vt 0.471731 0.341844
vt 0.014612 0.203178
vt 0.341844 0.028269
vt 0.449553 0.383337
vt 0.203178 0.485388
vt 0.250000 0.490000
vt 0.028269 0.158156
vt 0.383337 0.050447
vt 0.419706 0.419706
vt 0.158156 0.028269
vt 0.471731 0.158156
vt 0.341844 0.471731
vt 0.158156 0.471731
vt 0.750000 0.010000
vt 0.703178 0.014612
vt 0.031250 0.625000
vt 0.000000 0.750000
vt 0.000000 0.625000
vt 0.062500 0.750000
vt 0.062500 0.625000
vt 0.093750 0.750000
vt 0.093750 0.625000
vt 0.125000 0.750000
vt 0.125000 0.625000
vt 0.156250 0.750000
vt 0.156250 0.625000
vt 0.187500 0.750000
vt 0.187500 0.625000
vt 0.218750 0.750000
vt 0.218750 0.625000
vt 0.250000 0.750000
vt 0.250000 0.625000
vt 0.281250 0.750000
vt 0.281250 0.625000
vt 0.312500 0.750000
vt 0.312500 0.625000
vt 0.343750 0.750000
vt 0.343750 0.625000
vt 0.375000 0.750000
vt 0.375000 0.625000
vt 0.406250 0.750000
vt 0.406250 0.625000
vt 0.437500 0.625000
vt 0.468750 0.750000
vt 0.468750 0.625000
vt 0.500000 0.750000
vt 0.500000 0.625000
vt 0.531250 0.750000
vt 0.531250 0.625000
vt 0.562500 0.625000
vt 0.593750 0.750000
vt 0.593750 0.625000
vt 0.625000 0.625000
vt 0.656250 0.750000
vt 0.656250 0.625000
vt 0.687500 0.750000
vt 0.687500 0.625000
vt 0.718750 0.750000
vt 0.718750 0.625000
vt 0.750000 0.750000
vt 0.750000 0.625000
vt 0.781250 0.750000
vt 0.781250 0.625000
vt 0.812500 0.750000
vt 0.812500 0.625000
vt 0.843750 0.750000
vt 0.843750 0.625000
vt 0.875000 0.750000
vt 0.875000 0.625000
vt 0.906250 0.750000
vt 0.906250 0.625000
vt 0.937500 0.750000
vt 0.937500 0.625000
vt 0.968750 0.750000
vt 0.968750 0.625000
vt 1.000000 0.750000
vt 1.000000 0.625000
vt 1.000000 1.000000
vt 0.968750 0.875000
vt 1.000000 0.875000
vt 0.968750 1.000000
vt 0.937500 0.875000
vt 0.937500 1.000000
vt 0.906250 0.875000
vt 0.906250 1.000000
vt 0.875000 0.875000
vt 0.875000 1.000000
vt 0.843750 0.875000
vt 0.843750 1.000000
vt 0.812500 0.875000
vt 0.812500 1.000000
vt 0.781250 0.875000
vt 0.781250 1.000000
vt 0.750000 0.875000
vt 0.750000 1.000000
vt 0.718750 0.875000
vt 0.718750 1.000000
vt 0.687500 0.875000
vt 0.687500 1.000000
vt 0.656250 0.875000
vt 0.656250 1.000000
vt 0.625000 0.875000
vt 0.625000 1.000000
vt 0.593750 0.875000
vt 0.593750 1.000000
vt 0.562500 0.875000
vt 0.562500 1.000000
vt 0.531250 0.875000
vt 0.531250 1.000000
vt 0.500000 0.875000
vt 0.500000 1.000000
vt 0.468750 0.875000
vt 0.468750 1.000000
vt 0.437500 0.875000
vt 0.437500 1.000000
vt 0.406250 0.875000
vt 0.406250 1.000000
vt 0.375000 0.875000
vt 0.375000 1.000000
vt 0.343750 0.875000
vt 0.343750 1.000000
vt 0.312500 0.875000
vt 0.312500 1.000000
vt 0.281250 0.875000
vt 0.281250 1.000000
vt 0.250000 0.875000
vt 0.250000 1.000000
vt 0.218750 0.875000
vt 0.218750 1.000000
vt 0.187500 0.875000
vt 0.187500 1.000000
vt 0.156250 0.875000
vt 0.156250 1.000000
vt 0.125000 0.875000
vt 0.125000 1.000000
vt 0.093750 0.875000
vt 0.093750 1.000000
vt 0.062500 0.875000
vt 0.062500 1.000000
vt 0.031250 0.875000
vt 0.031250 1.000000
vt 0.000000 0.875000
vt 0.296822 0.485388
vt 0.050447 0.383337
vt 0.116663 0.050447
vt 0.080294 0.419706
vt 0.449553 0.116663
vt 0.080294 0.080294
vt 0.116663 0.449553
vt 0.383337 0.449553
vt 0.419706 0.080294
vt 0.050447 0.116663
vt 0.031250 0.811362
vt 0.000700 0.811362
vt 0.031250 0.750000
vt 0.062500 0.811362
vt 0.093750 0.811362
vt 0.093750 0.750000
vt 0.125000 0.811362
vt 0.125000 0.750000
vt 0.156250 0.811362
vt 0.187500 0.811362
vt 0.218750 0.811362
vt 0.218750 0.750000
vt 0.250000 0.811362
vt 0.250000 0.750000
vt 0.281250 0.811362
vt 0.312500 0.811362
vt 0.312500 0.750000
vt 0.343750 0.811362
vt 0.375000 0.811362
vt 0.406250 0.811362
vt 0.437500 0.811362
vt 0.437500 0.750000
vt 0.468750 0.811362
vt 0.500000 0.811362
vt 0.531250 0.811362
vt 0.562500 0.811362
vt 0.562500 0.750000
vt 0.593750 0.811362
vt 0.625000 0.811362
vt 0.625000 0.750000
vt 0.656250 0.811362
vt 0.687500 0.811362
vt 0.718750 0.811362
vt 0.750000 0.811362
vt 0.781250 0.811362
vt 0.812500 0.811362
vt 0.843750 0.811362
vt 0.875000 0.811362
vt 0.906250 0.811362
vt 0.937500 0.811362
vt 0.968750 0.811362
vt 0.999300 0.811362
vt 0.990000 0.250000
vt 0.985388 0.296822
vt 0.841844 0.471731
vt 0.883337 0.449553
vt 0.616663 0.449553
vt 0.580294 0.419706
vt 0.616663 0.050447
vt 0.580294 0.080294
vt 0.971731 0.158156
vt 0.949553 0.116663
vt 0.796822 0.485388
vt 0.550447 0.383337
vt 0.658156 0.028269
vt 0.985388 0.203178
vt 0.750000 0.490000
vt 0.528269 0.341844
vt 0.514612 0.296822
vt 0.510000 0.250000
vt 1.000000 0.500000
vt 0.968750 0.500000
vt 0.937500 0.500000
vt 0.906250 0.500000
vt 0.875000 0.500000
vt 0.843750 0.500000
vt 0.812500 0.500000
vt 0.781250 0.500000
vt 0.750000 0.500000
vt 0.718750 0.500000
vt 0.687500 0.500000
vt 0.656250 0.500000
vt 0.625000 0.500000
vt 0.593750 0.500000
vt 0.562500 0.500000
vt 0.531250 0.500000
vt 0.500000 0.500000
vt 0.468750 0.500000
vt 0.437500 0.500000
vt 0.406250 0.500000
vt 0.375000 0.500000
vt 0.343750 0.500000
vt 0.312500 0.500000
vt 0.281250 0.500000
vt 0.250000 0.500000
vt 0.218750 0.500000
vt 0.187500 0.500000
vt 0.156250 0.500000
vt 0.125000 0.500000
vt 0.093750 0.500000
vt 0.062500 0.500000
vt 0.031250 0.500000
vt 0.000000 0.500000
vt 0.919706 0.080294
vt 0.550447 0.116663
vt 0.658156 0.471731
vt 0.919706 0.419706
vt 0.883337 0.050447
vt 0.528269 0.158156
vt 0.703178 0.485388
vt 0.949553 0.383337
vt 0.841844 0.028269
vt 0.514612 0.203178
vt 0.971731 0.341844
vt 0.796822 0.014612
vt 0.000000 1.000000
s 0
usemtl Green
f 18/1/1 106/2/1 105/1/1
f 54/3/1 122/4/1 52/4/1
f 36/5/1 113/6/1 34/6/1
f 16/7/1 105/1/1 104/7/1
f 52/4/1 121/8/1 50/8/1
f 32/9/1 113/6/1 112/9/1
f 14/10/1 104/7/1 103/10/1
f 50/8/1 120/11/1 48/11/1
f 30/12/1 112/9/1 111/12/1
f 14/10/1 102/13/1 12/13/1
f 64/14/1 98/15/1 128/14/1
f 46/16/1 120/11/1 119/16/1
f 30/12/1 110/17/1 28/17/1
f 12/13/1 101/18/1 10/18/1
f 38/19/1 22/20/1 6/21/1
f 62/22/1 128/14/1 127/22/1
f 33/23/2 338/24/2 337/23/2
f 255/25/3 65/26/3 256/27/3
f 95/28/4 255/25/4 254/29/4
f 94/30/5 254/29/5 253/31/5
f 93/32/6 253/31/6 252/33/6
f 92/34/7 252/33/7 251/35/7
f 91/36/8 251/35/8 250/37/8
f 90/38/9 250/37/9 249/39/9
f 89/40/10 249/39/10 248/41/10
f 88/42/11 248/41/11 247/43/11
f 87/44/12 247/43/12 246/45/12
f 86/46/13 246/45/13 245/47/13
f 85/48/14 245/47/14 244/49/14
f 84/50/15 244/49/15 243/51/15
f 242/52/16 84/50/16 243/51/16
f 82/53/17 242/52/17 241/54/17
f 81/55/18 241/54/18 240/56/18
f 80/57/19 240/56/19 239/58/19
f 238/59/20 80/57/20 239/58/20
f 78/60/21 238/59/21 237/61/21
f 236/62/22 78/60/22 237/61/22
f 76/63/23 236/62/23 235/64/23
f 75/65/24 235/64/24 234/66/24
f 74/67/25 234/66/25 233/68/25
f 73/69/26 233/68/26 232/70/26
f 72/71/27 232/70/27 231/72/27
f 71/73/28 231/72/28 230/74/28
f 70/75/29 230/74/29 229/76/29
f 69/77/30 229/76/30 228/78/30
f 68/79/31 228/78/31 227/80/31
f 67/81/32 227/80/32 226/82/32
f 66/83/33 226/82/33 225/84/33
f 65/85/34 225/84/34 256/86/34
f 98/87/2 130/88/2 129/89/2
f 97/90/35 131/91/35 130/88/35
f 99/92/36 132/93/36 131/91/36
f 100/94/37 133/95/37 132/93/37
f 101/96/38 134/97/38 133/95/38
f 102/98/39 135/99/39 134/97/39
f 103/100/40 136/101/40 135/99/40
f 104/102/41 137/103/41 136/101/41
f 105/104/42 138/105/42 137/103/42
f 106/106/43 139/107/43 138/105/43
f 107/108/44 140/109/44 139/107/44
f 108/110/45 141/111/45 140/109/45
f 109/112/46 142/113/46 141/111/46
f 110/114/47 143/115/47 142/113/47
f 111/116/48 144/117/48 143/115/48
f 112/118/49 145/119/49 144/117/49
f 113/120/50 146/121/50 145/119/50
f 114/122/51 147/123/51 146/121/51
f 115/124/52 148/125/52 147/123/52
f 116/126/53 149/127/53 148/125/53
f 117/128/54 150/129/54 149/127/54
f 118/130/55 151/131/55 150/129/55
f 119/132/56 152/133/56 151/131/56
f 120/134/57 153/135/57 152/133/57
f 121/136/58 154/137/58 153/135/58
f 122/138/59 155/139/59 154/137/59
f 123/140/60 156/141/60 155/139/60
f 124/142/61 157/143/61 156/141/61
f 125/144/62 158/145/62 157/143/62
f 126/146/63 159/147/63 158/145/63
f 127/148/64 160/149/64 159/147/64
f 128/150/65 129/151/65 160/149/65
f 38/19/1 114/5/1 36/5/1
f 4/152/1 98/15/1 2/15/1
f 54/3/1 124/153/1 123/3/1
f 22/20/1 106/2/1 20/2/1
f 38/19/1 116/154/1 115/19/1
f 58/155/1 124/153/1 56/153/1
f 6/21/1 97/152/1 4/152/1
f 22/20/1 108/156/1 107/20/1
f 42/157/1 116/154/1 40/154/1
f 60/158/1 125/155/1 58/155/1
f 6/21/1 100/159/1 99/21/1
f 26/160/1 108/156/1 24/156/1
f 44/161/1 117/157/1 42/157/1
f 62/22/1 126/158/1 60/158/1
f 10/18/1 100/159/1 8/159/1
f 28/17/1 109/160/1 26/160/1
f 46/16/1 118/161/1 44/161/1
f 129/151/66 224/162/66 160/149/66
f 161/163/67 223/164/67 224/162/67
f 223/164/68 65/26/68 96/164/68
f 160/149/69 222/165/69 159/147/69
f 222/165/70 223/164/70 221/28/70
f 223/164/71 95/28/71 221/28/71
f 159/147/72 220/166/72 158/145/72
f 222/165/73 219/167/73 220/166/73
f 219/167/74 95/28/74 94/30/74
f 158/145/75 218/168/75 157/143/75
f 218/168/76 219/167/76 217/169/76
f 219/167/77 93/32/77 217/169/77
f 157/143/78 216/170/78 156/141/78
f 218/168/79 215/34/79 216/170/79
f 215/34/80 93/32/80 92/34/80
f 155/139/81 216/170/81 214/171/81
f 214/171/82 215/34/82 213/36/82
f 215/34/83 91/36/83 213/36/83
f 155/139/84 212/172/84 154/137/84
f 214/171/85 211/173/85 212/172/85
f 211/173/86 91/36/86 90/38/86
f 154/137/87 210/174/87 153/135/87
f 212/172/88 209/175/88 210/174/88
f 211/173/89 89/40/89 209/175/89
f 153/135/90 208/176/90 152/133/90
f 210/174/91 207/42/91 208/176/91
f 207/42/92 89/40/92 88/42/92
f 151/131/93 208/176/93 206/177/93
f 208/176/94 205/178/94 206/177/94
f 207/42/95 87/44/95 205/178/95
f 151/131/96 204/179/96 150/129/96
f 204/179/97 205/178/97 203/46/97
f 203/46/98 87/44/98 86/46/98
f 149/127/99 204/179/99 202/180/99
f 204/179/100 201/48/100 202/180/100
f 203/46/101 85/48/101 201/48/101
f 148/125/102 202/180/102 200/181/102
f 202/180/103 199/50/103 200/181/103
f 201/48/104 84/50/104 199/50/104
f 147/123/105 200/181/105 198/182/105
f 200/181/106 197/183/106 198/182/106
f 199/50/107 83/183/107 197/183/107
f 147/123/108 196/184/108 146/121/108
f 198/182/109 195/53/109 196/184/109
f 195/53/110 83/183/110 82/53/110
f 146/121/111 194/185/111 145/119/111
f 196/184/112 193/55/112 194/185/112
f 195/53/113 81/55/113 193/55/113
f 145/119/114 192/186/114 144/117/114
f 192/186/115 193/55/115 191/57/115
f 191/57/116 81/55/116 80/57/116
f 143/115/117 192/186/117 190/187/117
f 192/186/118 189/188/118 190/187/118
f 191/57/119 79/188/119 189/188/119
f 143/115/120 188/189/120 142/113/120
f 190/187/121 187/60/121 188/189/121
f 187/60/122 79/188/122 78/60/122
f 142/113/123 186/190/123 141/111/123
f 188/189/124 185/191/124 186/190/124
f 187/60/125 77/191/125 185/191/125
f 141/111/126 184/192/126 140/109/126
f 184/192/127 185/191/127 183/63/127
f 185/191/128 76/63/128 183/63/128
f 140/109/129 182/193/129 139/107/129
f 184/192/130 181/65/130 182/193/130
f 183/63/131 75/65/131 181/65/131
f 139/107/132 180/194/132 138/105/132
f 180/194/133 181/65/133 179/67/133
f 181/65/134 74/67/134 179/67/134
f 137/103/135 180/194/135 178/195/135
f 180/194/136 177/69/136 178/195/136
f 179/67/137 73/69/137 177/69/137
f 137/103/138 176/196/138 136/101/138
f 178/195/139 175/71/139 176/196/139
f 175/71/140 73/69/140 72/71/140
f 136/101/141 174/197/141 135/99/141
f 176/196/142 173/73/142 174/197/142
f 175/71/143 71/73/143 173/73/143
f 135/99/144 172/198/144 134/97/144
f 174/197/145 171/75/145 172/198/145
f 171/75/146 71/73/146 70/75/146
f 133/95/147 172/198/147 170/199/147
f 172/198/148 169/77/148 170/199/148
f 171/75/149 69/77/149 169/77/149
f 132/93/150 170/199/150 168/200/150
f 170/199/151 167/79/151 168/200/151
f 167/79/152 69/77/152 68/79/152
f 131/91/153 168/200/153 166/201/153
f 168/200/154 165/81/154 166/201/154
f 167/79/155 67/81/155 165/81/155
f 130/88/156 166/201/156 164/202/156
f 166/201/157 163/83/157 164/202/157
f 163/83/158 67/81/158 66/83/158
f 129/89/159 164/202/159 161/203/159
f 164/202/160 162/85/160 161/203/160
f 163/83/161 65/85/161 162/85/161
f 17/204/57 328/205/57 15/205/57
f 5/206/162 262/207/162 7/207/162
f 227/80/163 261/82/163 226/82/163
f 59/208/164 312/209/164 314/208/164
f 253/31/165 313/33/165 252/33/165
f 39/210/166 296/211/166 41/211/166
f 226/82/167 259/84/167 225/84/167
f 251/35/168 313/33/168 311/35/168
f 21/212/169 278/213/169 23/213/169
f 256/86/170 259/84/170 320/86/170
f 251/35/171 309/37/171 250/37/171
f 5/206/172 258/214/172 260/206/172
f 57/209/173 310/215/173 312/209/173
f 250/37/174 307/39/174 249/39/174
f 37/216/175 294/210/175 39/210/175
f 249/39/176 305/41/176 248/41/176
f 21/212/177 274/217/177 276/212/177
f 247/43/178 305/41/178 303/43/178
f 1/218/179 258/214/179 3/214/179
f 53/219/180 310/215/180 55/215/180
f 246/45/181 303/43/181 301/45/181
f 35/24/182 292/216/182 37/216/182
f 245/47/183 301/45/183 299/47/183
f 17/204/184 274/217/184 19/217/184
f 245/47/185 297/49/185 244/49/185
f 53/219/186 306/220/186 308/219/186
f 243/51/187 297/49/187 295/51/187
f 35/24/188 288/23/188 290/24/188
f 243/51/189 293/52/189 242/52/189
f 17/204/190 270/205/190 272/204/190
f 242/52/191 291/54/191 241/54/191
f 51/220/192 304/221/192 306/220/192
f 240/56/193 291/54/193 289/56/193
f 257/222/194 259/84/194 258/223/194
f 258/223/195 261/82/195 260/224/195
f 260/224/196 263/80/196 262/225/196
f 263/80/197 264/226/197 262/225/197
f 265/78/198 266/227/198 264/226/198
f 267/76/199 268/228/199 266/227/199
f 268/228/200 271/72/200 270/229/200
f 271/72/201 272/230/201 270/229/201
f 272/230/202 275/68/202 274/231/202
f 275/68/203 276/232/203 274/231/203
f 277/66/204 278/233/204 276/232/204
f 278/233/205 281/62/205 280/234/205
f 280/234/206 283/61/206 282/235/206
f 283/61/207 284/236/207 282/235/207
f 285/59/208 286/237/208 284/236/208
f 287/58/209 288/238/209 286/237/209
f 288/238/210 291/54/210 290/239/210
f 290/239/211 293/52/211 292/240/211
f 292/240/212 295/51/212 294/241/212
f 295/51/213 296/242/213 294/241/213
f 297/49/214 298/243/214 296/242/214
f 299/47/215 300/244/215 298/243/215
f 300/244/216 303/43/216 302/245/216
f 303/43/217 304/246/217 302/245/217
f 304/246/218 307/39/218 306/247/218
f 307/39/219 308/248/219 306/247/219
f 309/37/220 310/249/220 308/248/220
f 310/249/221 313/33/221 312/250/221
f 312/250/222 315/31/222 314/251/222
f 315/31/223 316/252/223 314/251/223
f 317/29/224 318/253/224 316/252/224
f 319/25/225 257/254/225 318/253/225
f 253/31/226 317/29/226 315/31/226
f 228/78/227 263/80/227 227/80/227
f 23/213/228 280/255/228 25/255/228
f 254/29/229 319/25/229 317/29/229
f 229/76/230 265/78/230 228/78/230
f 43/256/231 296/211/231 298/256/231
f 256/27/232 319/25/232 255/25/232
f 59/208/233 316/257/233 61/257/233
f 229/76/234 269/74/234 267/76/234
f 9/258/235 262/207/235 264/258/235
f 230/74/236 271/72/236 269/74/236
f 27/259/237 280/255/237 282/259/237
f 43/256/238 300/260/238 45/260/238
f 231/72/239 273/70/239 271/72/239
f 61/257/240 318/261/240 63/261/240
f 233/68/241 273/70/241 232/70/241
f 9/258/242 266/262/242 11/262/242
f 234/66/243 275/68/243 233/68/243
f 29/263/244 282/259/244 284/263/244
f 45/260/245 302/264/245 47/264/245
f 235/64/246 277/66/246 234/66/246
f 1/218/247 318/261/247 257/218/247
f 235/64/248 281/62/248 279/64/248
f 11/262/249 268/265/249 13/265/249
f 237/61/250 281/62/250 236/62/250
f 29/263/251 286/266/251 31/266/251
f 238/59/252 283/61/252 237/61/252
f 47/264/253 304/221/253 49/221/253
f 238/59/254 287/58/254 285/59/254
f 13/265/255 270/205/255 15/205/255
f 239/58/256 289/56/256 287/58/256
f 31/266/257 288/23/257 33/23/257
f 51/220/43 347/219/43 346/220/43
f 9/258/53 324/207/53 7/207/53
f 27/259/62 333/255/62 25/255/62
f 43/256/39 343/260/39 342/256/39
f 61/257/48 352/261/48 351/257/48
f 19/217/58 329/204/58 17/204/58
f 35/24/35 339/216/35 338/24/35
f 53/219/44 348/215/44 347/219/44
f 11/262/54 325/258/54 9/258/54
f 29/263/63 334/259/63 27/259/63
f 45/260/40 344/264/40 343/260/40
f 63/261/49 321/218/49 352/261/49
f 3/214/50 321/218/50 1/218/50
f 21/212/59 330/217/59 19/217/59
f 37/216/36 340/210/36 339/216/36
f 55/215/45 349/209/45 348/215/45
f 13/265/55 326/262/55 11/262/55
f 31/266/64 335/263/64 29/263/64
f 47/264/41 345/221/41 344/264/41
f 5/206/51 322/214/51 3/214/51
f 23/213/60 331/212/60 21/212/60
f 41/211/37 340/210/37 39/210/37
f 57/209/46 350/208/46 349/209/46
f 15/205/56 327/265/56 13/265/56
f 33/23/65 336/266/65 31/266/65
f 49/221/42 346/220/42 345/221/42
f 7/207/52 323/206/52 5/206/52
f 25/255/61 332/213/61 23/213/61
f 43/256/38 341/211/38 41/211/38
f 59/208/47 351/257/47 350/208/47
f 336/266/258 344/264/258 352/261/258
f 18/1/1 20/2/1 106/2/1
f 54/3/1 123/3/1 122/4/1
f 36/5/1 114/5/1 113/6/1
f 16/7/1 18/1/1 105/1/1
f 52/4/1 122/4/1 121/8/1
f 32/9/1 34/6/1 113/6/1
f 14/10/1 16/7/1 104/7/1
f 50/8/1 121/8/1 120/11/1
f 30/12/1 32/9/1 112/9/1
f 14/10/1 103/10/1 102/13/1
f 64/14/1 2/15/1 98/15/1
f 46/16/1 48/11/1 120/11/1
f 30/12/1 111/12/1 110/17/1
f 12/13/1 102/13/1 101/18/1
f 6/21/1 4/152/1 2/15/1
f 2/15/1 64/14/1 62/22/1
f 62/22/1 60/158/1 58/155/1
f 58/155/1 56/153/1 54/3/1
f 54/3/1 52/4/1 50/8/1
f 50/8/1 48/11/1 46/16/1
f 46/16/1 44/161/1 42/157/1
f 42/157/1 40/154/1 38/19/1
f 38/19/1 36/5/1 34/6/1
f 34/6/1 32/9/1 30/12/1
f 30/12/1 28/17/1 26/160/1
f 26/160/1 24/156/1 22/20/1
f 22/20/1 20/2/1 18/1/1
f 18/1/1 16/7/1 14/10/1
f 14/10/1 12/13/1 10/18/1
f 10/18/1 8/159/1 6/21/1
f 6/21/1 2/15/1 62/22/1
f 62/22/1 58/155/1 54/3/1
f 54/3/1 50/8/1 46/16/1
f 46/16/1 42/157/1 38/19/1
f 38/19/1 34/6/1 30/12/1
f 30/12/1 26/160/1 22/20/1
f 22/20/1 18/1/1 14/10/1
f 14/10/1 10/18/1 6/21/1
f 6/21/1 62/22/1 54/3/1
f 54/3/1 46/16/1 38/19/1
f 38/19/1 30/12/1 22/20/1
f 22/20/1 14/10/1 6/21/1
f 6/21/1 54/3/1 38/19/1
f 62/22/1 64/14/1 128/14/1
f 33/23/2 35/24/2 338/24/2
f 255/25/3 96/164/3 65/26/3
f 95/28/4 96/164/4 255/25/4
f 94/30/5 95/28/5 254/29/5
f 93/32/6 94/30/6 253/31/6
f 92/34/7 93/32/7 252/33/7
f 91/36/8 92/34/8 251/35/8
f 90/38/9 91/36/9 250/37/9
f 89/40/10 90/38/10 249/39/10
f 88/42/11 89/40/11 248/41/11
f 87/44/12 88/42/12 247/43/12
f 86/46/13 87/44/13 246/45/13
f 85/48/14 86/46/14 245/47/14
f 84/50/15 85/48/15 244/49/15
f 242/52/16 83/183/16 84/50/16
f 82/53/17 83/183/17 242/52/17
f 81/55/18 82/53/18 241/54/18
f 80/57/19 81/55/19 240/56/19
f 238/59/20 79/188/20 80/57/20
f 78/60/21 79/188/21 238/59/21
f 236/62/22 77/191/22 78/60/22
f 76/63/23 77/191/23 236/62/23
f 75/65/24 76/63/24 235/64/24
f 74/67/25 75/65/25 234/66/25
f 73/69/26 74/67/26 233/68/26
f 72/71/27 73/69/27 232/70/27
f 71/73/28 72/71/28 231/72/28
f 70/75/29 71/73/29 230/74/29
f 69/77/30 70/75/30 229/76/30
f 68/79/31 69/77/31 228/78/31
f 67/81/32 68/79/32 227/80/32
f 66/83/33 67/81/33 226/82/33
f 65/85/34 66/83/34 225/84/34
f 98/87/2 97/90/2 130/88/2
f 97/90/35 99/92/35 131/91/35
f 99/92/36 100/94/36 132/93/36
f 100/94/37 101/96/37 133/95/37
f 101/96/38 102/98/38 134/97/38
f 102/98/39 103/100/39 135/99/39
f 103/100/40 104/102/40 136/101/40
f 104/102/41 105/104/41 137/103/41
f 105/104/42 106/106/42 138/105/42
f 106/106/43 107/108/43 139/107/43
f 107/108/44 108/110/44 140/109/44
f 108/110/45 109/112/45 141/111/45
f 109/112/46 110/114/46 142/113/46
f 110/114/47 111/116/47 143/115/47
f 111/116/48 112/118/48 144/117/48
f 112/118/49 113/120/49 145/119/49
f 113/120/50 114/122/50 146/121/50
f 114/122/51 115/124/51 147/123/51
f 115/124/52 116/126/52 148/125/52
f 116/126/53 117/128/53 149/127/53
f 117/128/54 118/130/54 150/129/54
f 118/130/55 119/132/55 151/131/55
f 119/132/56 120/134/56 152/133/56
f 120/134/57 121/136/57 153/135/57
f 121/136/58 122/138/58 154/137/58
f 122/138/59 123/140/59 155/139/59
f 123/140/60 124/142/60 156/141/60
f 124/142/61 125/144/61 157/143/61
f 125/144/62 126/146/62 158/145/62
f 126/146/63 127/148/63 159/147/63
f 127/148/64 128/150/64 160/149/64
f 128/150/65 98/267/65 129/151/65
f 38/19/1 115/19/1 114/5/1
f 4/152/1 97/152/1 98/15/1
f 54/3/1 56/153/1 124/153/1
f 22/20/1 107/20/1 106/2/1
f 38/19/1 40/154/1 116/154/1
f 58/155/1 125/155/1 124/153/1
f 6/21/1 99/21/1 97/152/1
f 22/20/1 24/156/1 108/156/1
f 42/157/1 117/157/1 116/154/1
f 60/158/1 126/158/1 125/155/1
f 6/21/1 8/159/1 100/159/1
f 26/160/1 109/160/1 108/156/1
f 44/161/1 118/161/1 117/157/1
f 62/22/1 127/22/1 126/158/1
f 10/18/1 101/18/1 100/159/1
f 28/17/1 110/17/1 109/160/1
f 46/16/1 119/16/1 118/161/1
f 129/151/66 161/163/66 224/162/66
f 161/163/67 162/26/67 223/164/67
f 223/164/68 162/26/68 65/26/68
f 160/149/69 224/162/69 222/165/69
f 222/165/70 224/162/70 223/164/70
f 223/164/71 96/164/71 95/28/71
f 159/147/72 222/165/72 220/166/72
f 222/165/73 221/28/73 219/167/73
f 219/167/74 221/28/74 95/28/74
f 158/145/75 220/166/75 218/168/75
f 218/168/76 220/166/76 219/167/76
f 219/167/77 94/30/77 93/32/77
f 157/143/78 218/168/78 216/170/78
f 218/168/79 217/169/79 215/34/79
f 215/34/80 217/169/80 93/32/80
f 155/139/81 156/141/81 216/170/81
f 214/171/82 216/170/82 215/34/82
f 215/34/83 92/34/83 91/36/83
f 155/139/84 214/171/84 212/172/84
f 214/171/85 213/36/85 211/173/85
f 211/173/86 213/36/86 91/36/86
f 154/137/87 212/172/87 210/174/87
f 212/172/88 211/173/88 209/175/88
f 211/173/89 90/38/89 89/40/89
f 153/135/90 210/174/90 208/176/90
f 210/174/91 209/175/91 207/42/91
f 207/42/92 209/175/92 89/40/92
f 151/131/93 152/133/93 208/176/93
f 208/176/94 207/42/94 205/178/94
f 207/42/95 88/42/95 87/44/95
f 151/131/96 206/177/96 204/179/96
f 204/179/97 206/177/97 205/178/97
f 203/46/98 205/178/98 87/44/98
f 149/127/99 150/129/99 204/179/99
f 204/179/100 203/46/100 201/48/100
f 203/46/101 86/46/101 85/48/101
f 148/125/102 149/127/102 202/180/102
f 202/180/103 201/48/103 199/50/103
f 201/48/104 85/48/104 84/50/104
f 147/123/105 148/125/105 200/181/105
f 200/181/106 199/50/106 197/183/106
f 199/50/107 84/50/107 83/183/107
f 147/123/108 198/182/108 196/184/108
f 198/182/109 197/183/109 195/53/109
f 195/53/110 197/183/110 83/183/110
f 146/121/111 196/184/111 194/185/111
f 196/184/112 195/53/112 193/55/112
f 195/53/113 82/53/113 81/55/113
f 145/119/114 194/185/114 192/186/114
f 192/186/115 194/185/115 193/55/115
f 191/57/116 193/55/116 81/55/116
f 143/115/117 144/117/117 192/186/117
f 192/186/118 191/57/118 189/188/118
f 191/57/119 80/57/119 79/188/119
f 143/115/120 190/187/120 188/189/120
f 190/187/121 189/188/121 187/60/121
f 187/60/122 189/188/122 79/188/122
f 142/113/123 188/189/123 186/190/123
f 188/189/124 187/60/124 185/191/124
f 187/60/125 78/60/125 77/191/125
f 141/111/126 186/190/126 184/192/126
f 184/192/127 186/190/127 185/191/127
f 185/191/128 77/191/128 76/63/128
f 140/109/129 184/192/129 182/193/129
f 184/192/130 183/63/130 181/65/130
f 183/63/131 76/63/131 75/65/131
f 139/107/132 182/193/132 180/194/132
f 180/194/133 182/193/133 181/65/133
f 181/65/134 75/65/134 74/67/134
f 137/103/135 138/105/135 180/194/135
f 180/194/136 179/67/136 177/69/136
f 179/67/137 74/67/137 73/69/137
f 137/103/138 178/195/138 176/196/138
f 178/195/139 177/69/139 175/71/139
f 175/71/140 177/69/140 73/69/140
f 136/101/141 176/196/141 174/197/141
f 176/196/142 175/71/142 173/73/142
f 175/71/143 72/71/143 71/73/143
f 135/99/144 174/197/144 172/198/144
f 174/197/145 173/73/145 171/75/145
f 171/75/146 173/73/146 71/73/146
f 133/95/147 134/97/147 172/198/147
f 172/198/148 171/75/148 169/77/148
f 171/75/149 70/75/149 69/77/149
f 132/93/150 133/95/150 170/199/150
f 170/199/151 169/77/151 167/79/151
f 167/79/152 169/77/152 69/77/152
f 131/91/153 132/93/153 168/200/153
f 168/200/154 167/79/154 165/81/154
f 167/79/155 68/79/155 67/81/155
f 130/88/156 131/91/156 166/201/156
f 166/201/157 165/81/157 163/83/157
f 163/83/158 165/81/158 67/81/158
f 129/89/159 130/88/159 164/202/159
f 164/202/160 163/83/160 162/85/160
f 163/83/161 66/83/161 65/85/161
f 17/204/57 329/204/57 328/205/57
f 5/206/162 260/206/162 262/207/162
f 227/80/163 263/80/163 261/82/163
f 59/208/259 57/209/259 312/209/259
f 253/31/165 315/31/165 313/33/165
f 39/210/260 294/210/260 296/211/260
f 226/82/167 261/82/167 259/84/167
f 251/35/168 252/33/168 313/33/168
f 21/212/169 276/212/169 278/213/169
f 256/86/261 225/84/261 259/84/261
f 251/35/171 311/35/171 309/37/171
f 5/206/262 3/214/262 258/214/262
f 57/209/263 55/215/263 310/215/263
f 250/37/174 309/37/174 307/39/174
f 37/216/264 292/216/264 294/210/264
f 249/39/265 307/39/265 305/41/265
f 21/212/266 19/217/266 274/217/266
f 247/43/267 248/41/267 305/41/267
f 1/218/179 257/218/179 258/214/179
f 53/219/180 308/219/180 310/215/180
f 246/45/181 247/43/181 303/43/181
f 35/24/268 290/24/268 292/216/268
f 245/47/183 246/45/183 301/45/183
f 17/204/269 272/204/269 274/217/269
f 245/47/185 299/47/185 297/49/185
f 53/219/270 51/220/270 306/220/270
f 243/51/187 244/49/187 297/49/187
f 35/24/188 33/23/188 288/23/188
f 243/51/189 295/51/189 293/52/189
f 17/204/271 15/205/271 270/205/271
f 242/52/191 293/52/191 291/54/191
f 51/220/272 49/221/272 304/221/272
f 240/56/193 241/54/193 291/54/193
f 257/222/194 320/86/194 259/84/194
f 258/223/195 259/84/195 261/82/195
f 260/224/196 261/82/196 263/80/196
f 263/80/197 265/78/197 264/226/197
f 265/78/198 267/76/198 266/227/198
f 267/76/199 269/74/199 268/228/199
f 268/228/200 269/74/200 271/72/200
f 271/72/201 273/70/201 272/230/201
f 272/230/202 273/70/202 275/68/202
f 275/68/203 277/66/203 276/232/203
f 277/66/204 279/64/204 278/233/204
f 278/233/205 279/64/205 281/62/205
f 280/234/206 281/62/206 283/61/206
f 283/61/207 285/59/207 284/236/207
f 285/59/208 287/58/208 286/237/208
f 287/58/209 289/56/209 288/238/209
f 288/238/210 289/56/210 291/54/210
f 290/239/211 291/54/211 293/52/211
f 292/240/212 293/52/212 295/51/212
f 295/51/213 297/49/213 296/242/213
f 297/49/214 299/47/214 298/243/214
f 299/47/215 301/45/215 300/244/215
f 300/244/216 301/45/216 303/43/216
f 303/43/217 305/41/217 304/246/217
f 304/246/218 305/41/218 307/39/218
f 307/39/219 309/37/219 308/248/219
f 309/37/220 311/35/220 310/249/220
f 310/249/221 311/35/221 313/33/221
f 312/250/222 313/33/222 315/31/222
f 315/31/223 317/29/223 316/252/223
f 317/29/224 319/25/224 318/253/224
f 319/25/225 320/27/225 257/254/225
f 253/31/226 254/29/226 317/29/226
f 228/78/273 265/78/273 263/80/273
f 23/213/228 278/213/228 280/255/228
f 254/29/229 255/25/229 319/25/229
f 229/76/230 267/76/230 265/78/230
f 43/256/231 41/211/231 296/211/231
f 256/27/232 320/27/232 319/25/232
f 59/208/233 314/208/233 316/257/233
f 229/76/234 230/74/234 269/74/234
f 9/258/274 7/207/274 262/207/274
f 230/74/236 231/72/236 271/72/236
f 27/259/275 25/255/275 280/255/275
f 43/256/238 298/256/238 300/260/238
f 231/72/276 232/70/276 273/70/276
f 61/257/277 316/257/277 318/261/277
f 233/68/278 275/68/278 273/70/278
f 9/258/279 264/258/279 266/262/279
f 234/66/243 277/66/243 275/68/243
f 29/263/280 27/259/280 282/259/280
f 45/260/281 300/260/281 302/264/281
f 235/64/246 279/64/246 277/66/246
f 1/218/247 63/261/247 318/261/247
f 235/64/248 236/62/248 281/62/248
f 11/262/249 266/262/249 268/265/249
f 237/61/282 283/61/282 281/62/282
f 29/263/251 284/263/251 286/266/251
f 238/59/252 285/59/252 283/61/252
f 47/264/283 302/264/283 304/221/283
f 238/59/254 239/58/254 287/58/254
f 13/265/284 268/265/284 270/205/284
f 239/58/256 240/56/256 289/56/256
f 31/266/257 286/266/257 288/23/257
f 51/220/43 53/219/43 347/219/43
f 9/258/53 325/258/53 324/207/53
f 27/259/62 334/259/62 333/255/62
f 43/256/39 45/260/39 343/260/39
f 61/257/48 63/261/48 352/261/48
f 19/217/58 330/217/58 329/204/58
f 35/24/35 37/216/35 339/216/35
f 53/219/44 55/215/44 348/215/44
f 11/262/54 326/262/54 325/258/54
f 29/263/63 335/263/63 334/259/63
f 45/260/40 47/264/40 344/264/40
f 63/261/49 1/218/49 321/218/49
f 3/214/50 322/214/50 321/218/50
f 21/212/59 331/212/59 330/217/59
f 37/216/36 39/210/36 340/210/36
f 55/215/45 57/209/45 349/209/45
f 13/265/55 327/265/55 326/262/55
f 31/266/64 336/266/64 335/263/64
f 47/264/41 49/221/41 345/221/41
f 5/206/51 323/206/51 322/214/51
f 23/213/60 332/213/60 331/212/60
f 41/211/37 341/211/37 340/210/37
f 57/209/46 59/208/46 350/208/46
f 15/205/56 328/205/56 327/265/56
f 33/23/65 337/23/65 336/266/65
f 49/221/42 51/220/42 346/220/42
f 7/207/52 324/207/52 323/206/52
f 25/255/61 333/255/61 332/213/61
f 43/256/38 342/256/38 341/211/38
f 59/208/47 61/257/47 351/257/47
f 352/261/285 321/218/285 322/214/285
f 322/214/286 323/206/286 324/207/286
f 324/207/258 325/258/258 326/262/258
f 326/262/287 327/265/287 328/205/287
f 328/205/258 329/204/258 330/217/258
f 330/217/288 331/212/288 332/213/288
f 332/213/258 333/255/258 334/259/258
f 334/259/285 335/263/285 336/266/285
f 336/266/286 337/23/286 338/24/286
f 338/24/289 339/216/289 340/210/289
f 340/210/258 341/211/258 342/256/258
f 342/256/288 343/260/288 344/264/288
f 344/264/258 345/221/258 346/220/258
f 346/220/287 347/219/287 348/215/287
f 348/215/258 349/209/258 350/208/258
f 350/208/290 351/257/290 352/261/290
f 352/261/258 322/214/258 324/207/258
f 324/207/258 326/262/258 328/205/258
f 328/205/258 330/217/258 332/213/258
f 332/213/291 334/259/291 336/266/291
f 336/266/258 338/24/258 340/210/258
f 340/210/258 342/256/258 344/264/258
f 344/264/258 346/220/258 348/215/258
f 348/215/292 350/208/292 352/261/292
f 352/261/258 324/207/258 328/205/258
f 328/205/258 332/213/258 336/266/258
f 336/266/258 340/210/258 344/264/258
f 344/264/258 348/215/258 352/261/258
f 352/261/258 328/205/258 336/266/258
