# Blender 5.1.0
# www.blender.org
mtllib flower.mtl
o Cylinder.001
v 0.000000 0.000000 -0.004248
v 0.000000 0.608176 -0.008236
v 0.003679 0.000000 -0.002124
v 0.007132 0.608176 -0.004118
v 0.003679 0.000000 0.002124
v 0.007132 0.608176 0.004118
v -0.000000 0.000000 0.004248
v -0.000000 0.608176 0.008236
v -0.003679 0.000000 0.002124
v -0.007132 0.608176 0.004118
v -0.003679 0.000000 -0.002124
v -0.007132 0.608176 -0.004118
v 0.000000 0.077218 -0.004248
v 0.000000 0.154436 -0.004248
v 0.000000 0.231653 -0.004248
v 0.000000 0.308871 -0.004248
v 0.000000 0.386089 -0.004248
v 0.000000 0.463307 -0.004248
v 0.000000 0.562350 -0.004248
v 0.003679 0.562350 -0.002124
v 0.003679 0.463307 -0.002124
v 0.003679 0.386089 -0.002124
v 0.003679 0.308871 -0.002124
v 0.003679 0.231653 -0.002124
v 0.003679 0.154436 -0.002124
v 0.003679 0.077218 -0.002124
v 0.003679 0.562350 0.002124
v 0.003679 0.463307 0.002124
v 0.003679 0.386089 0.002124
v 0.003679 0.308871 0.002124
v 0.003679 0.231653 0.002124
v 0.003679 0.154436 0.002124
v 0.003679 0.077218 0.002124
v -0.000000 0.562350 0.004248
v -0.000000 0.463307 0.004248
v -0.000000 0.386089 0.004248
v -0.000000 0.308871 0.004248
v -0.000000 0.231653 0.004248
v -0.000000 0.154436 0.004248
v -0.000000 0.077218 0.004248
v -0.003679 0.562350 0.002124
v -0.003679 0.463307 0.002124
v -0.003679 0.386089 0.002124
v -0.003679 0.308871 0.002124
v -0.003679 0.231653 0.002124
v -0.003679 0.154436 0.002124
v -0.003679 0.077218 0.002124
v -0.003679 0.562350 -0.002124
v -0.003679 0.463307 -0.002124
v -0.003679 0.386089 -0.002124
v -0.003679 0.308871 -0.002124
v -0.003679 0.231653 -0.002124
v -0.003679 0.154436 -0.002124
v -0.003679 0.077218 -0.002124
v 0.003679 0.038609 -0.002124
v 0.003679 0.038609 0.002124
v -0.000000 0.038609 0.004248
v -0.003679 0.038609 0.002124
v -0.003679 0.038609 -0.002124
v 0.000000 0.038609 -0.004248
v 0.000000 0.583751 -0.008236
v 0.007132 0.583751 -0.004118
v 0.007132 0.583751 0.004118
v -0.000000 0.583751 0.008236
v -0.007132 0.583751 0.004118
v -0.007132 0.583751 -0.004118
v -0.119377 0.398140 -0.042788
v 0.054362 0.405566 0.053591
v -0.028503 0.315336 -0.213590
v 0.159242 0.320363 -0.148355
v -0.038397 0.374429 -0.189668
v -0.052218 0.412288 -0.152809
v -0.083182 0.419977 -0.088806
v 0.104564 0.425004 -0.023571
v 0.135527 0.417314 -0.087574
v 0.149348 0.379455 -0.124433
v -0.061464 0.421610 -0.012280
v -0.003551 0.424086 0.019846
v 0.096661 0.339682 -0.171718
v 0.034079 0.338007 -0.193463
v 0.042263 0.444524 -0.044322
v -0.019057 0.442593 -0.069386
v 0.072945 0.436634 -0.110937
v 0.010364 0.434958 -0.132682
v 0.086766 0.398775 -0.147796
v 0.024185 0.397099 -0.169541
v -0.054937 0.431056 -0.088341
v 0.011107 0.431056 0.059619
v 0.090674 0.374468 -0.159119
v 0.181120 0.374468 -0.024682
v 0.070344 0.420986 -0.145442
v 0.041946 0.449441 -0.126336
v -0.009727 0.451681 -0.099474
v 0.080719 0.451681 0.034964
v 0.132392 0.449441 0.008101
v 0.160790 0.420986 -0.011004
v -0.032923 0.448217 -0.039021
v -0.010908 0.448217 0.010299
v 0.150972 0.391629 -0.069494
v 0.120823 0.391629 -0.114307
v 0.049474 0.468842 -0.008003
v 0.021775 0.468842 -0.054370
v 0.102243 0.466601 -0.036711
v 0.072095 0.466601 -0.081524
v 0.130642 0.438147 -0.055817
v 0.100493 0.438147 -0.100629
v -0.075021 0.295943 -0.094623
v 0.019573 0.295943 0.067987
v 0.084290 0.230243 -0.194391
v 0.205376 0.230243 -0.050418
v 0.062518 0.284252 -0.176080
v 0.032106 0.317288 -0.150502
v -0.024212 0.319889 -0.113082
v 0.096874 0.319889 0.030891
v 0.153192 0.317288 -0.006529
v 0.183604 0.284252 -0.032107
v -0.043490 0.315867 -0.040419
v -0.011959 0.315867 0.013784
v 0.165014 0.250167 -0.098409
v 0.124652 0.250167 -0.146400
v 0.055475 0.339814 -0.014834
v 0.017748 0.339814 -0.064923
v 0.112830 0.337212 -0.054520
v 0.072468 0.337212 -0.102511
v 0.143242 0.304176 -0.080098
v 0.102880 0.304176 -0.128089
v -0.093689 0.175647 -0.036243
v 0.043046 0.175647 0.039834
v -0.022170 0.120999 -0.175277
v 0.125589 0.120999 -0.123783
v -0.029957 0.165922 -0.152932
v -0.040834 0.193401 -0.121720
v -0.065203 0.195564 -0.071033
v 0.082556 0.195564 -0.019539
v 0.106925 0.193401 -0.070227
v 0.117802 0.165922 -0.101439
v -0.048111 0.192219 -0.010884
v -0.002532 0.192219 0.014475
v 0.076336 0.137571 -0.140948
v 0.027083 0.137571 -0.158112
v 0.033524 0.212137 -0.034642
v -0.014736 0.212137 -0.054426
v 0.057672 0.209973 -0.087391
v 0.008419 0.209973 -0.104556
v 0.068549 0.182494 -0.118603
v 0.019296 0.182494 -0.135768
v -0.049283 0.201647 -0.080000
v 0.010359 0.201647 0.053619
v 0.082215 0.150544 -0.143917
v 0.163894 0.150544 -0.022511
v 0.063855 0.192553 -0.131566
v 0.038210 0.218250 -0.114312
v -0.008455 0.220273 -0.090053
v 0.073224 0.220273 0.031353
v 0.119889 0.218250 0.007094
v 0.145534 0.192553 -0.010159
v -0.029402 0.217144 -0.035460
v -0.009521 0.217144 0.009079
v 0.136667 0.166042 -0.062980
v 0.109441 0.166042 -0.103448
v 0.045008 0.235771 -0.007449
v 0.019993 0.235771 -0.049321
v 0.092662 0.233747 -0.033374
v 0.065436 0.233747 -0.073843
v 0.118308 0.208051 -0.050628
v 0.091082 0.208051 -0.091097
v -0.086129 0.099328 0.062807
v 0.073205 0.117578 0.002600
v -0.131660 -0.009593 -0.074819
v 0.016304 -0.000486 -0.160661
v -0.129652 0.045177 -0.065547
v -0.119036 0.085101 -0.043012
v -0.097265 0.106291 0.010594
v 0.050700 0.115399 -0.075247
v 0.028929 0.094209 -0.128854
v 0.018313 0.054285 -0.151388
v -0.036688 0.122600 0.038236
v 0.016424 0.128683 0.018167
v -0.036687 0.013667 -0.136549
v -0.086009 0.010631 -0.107935
v -0.000506 0.130250 -0.049922
v -0.051171 0.126251 -0.023891
v -0.024063 0.108361 -0.104742
v -0.073384 0.105325 -0.076128
v -0.034679 0.068437 -0.127277
v -0.084000 0.065401 -0.098663
v -0.016524 0.406052 -0.104758
v -0.013903 0.406052 0.060426
v 0.148356 0.348356 -0.112759
v 0.179274 0.348356 0.049527
v 0.123814 0.395785 -0.108084
v 0.089533 0.424797 -0.101553
v 0.030323 0.427081 -0.097077
v 0.061241 0.427081 0.065210
v 0.120452 0.424797 0.060734
v 0.154732 0.395785 0.054202
v -0.015651 0.423549 -0.049697
v -0.014777 0.423549 0.005365
v 0.168968 0.365853 -0.004569
v 0.158662 0.365853 -0.058664
v 0.049167 0.444579 0.012405
v 0.041780 0.444579 -0.042166
v 0.110146 0.442294 0.006638
v 0.099839 0.442294 -0.047457
v 0.144426 0.413282 0.000107
v 0.134120 0.413282 -0.053988
v 0.051567 0.275328 -0.096971
v -0.048855 0.275328 0.041530
v 0.193158 0.215580 -0.001196
v 0.117982 0.215580 0.152479
v 0.169919 0.264696 -0.012564
v 0.137457 0.294739 -0.028444
v 0.085615 0.297104 -0.061510
v 0.010439 0.297104 0.092165
v 0.062281 0.294739 0.125231
v 0.094743 0.264696 0.141111
v 0.018093 0.293447 -0.050804
v -0.015381 0.293447 -0.004637
v 0.143041 0.233699 0.101254
v 0.168099 0.233699 0.050029
v 0.033231 0.315223 0.040911
v 0.061004 0.315223 -0.008894
v 0.087340 0.312858 0.074006
v 0.112398 0.312858 0.022781
v 0.119802 0.282815 0.089886
v 0.144860 0.282815 0.038661
v 0.051320 0.214182 -0.131483
v -0.058009 0.214182 0.059329
v 0.245443 0.137379 -0.028517
v 0.170466 0.137379 0.178221
v 0.214179 0.200515 -0.039855
v 0.170509 0.239134 -0.055693
v 0.099707 0.242175 -0.090836
v 0.024730 0.242175 0.115903
v 0.095532 0.239134 0.151045
v 0.139202 0.200515 0.166883
v 0.014877 0.237473 -0.067879
v -0.021566 0.237473 -0.004275
v 0.195458 0.160670 0.109308
v 0.220450 0.160670 0.040396
v 0.046821 0.265467 0.047265
v 0.075478 0.265467 -0.020207
v 0.120524 0.262426 0.082132
v 0.145516 0.262426 0.013219
v 0.164195 0.223806 0.097970
v 0.189187 0.223806 0.029057
v -0.101259 0.250172 -0.041219
v 0.048716 0.250172 0.049576
v -0.015473 0.188944 -0.193953
v 0.147854 0.188944 -0.130231
v -0.025109 0.239276 -0.169255
v -0.038569 0.270064 -0.134754
v -0.067935 0.272488 -0.079002
v 0.095391 0.272488 -0.015280
v 0.124757 0.270064 -0.071032
v 0.138218 0.239276 -0.105533
v -0.051267 0.268740 -0.010954
v -0.001276 0.268740 0.019311
v 0.093412 0.207512 -0.151472
v 0.038970 0.207512 -0.172713
v 0.041112 0.291056 -0.034203
v -0.012111 0.291056 -0.058336
v 0.070315 0.288632 -0.092273
v 0.015873 0.288632 -0.113514
v 0.083775 0.257844 -0.126773
v 0.029333 0.257844 -0.148014
v 0.057622 0.195019 -0.109459
v -0.055497 0.195019 0.046553
v 0.217114 0.127718 -0.001574
v 0.132434 0.127718 0.171530
v 0.190936 0.183042 -0.014380
v 0.154371 0.216884 -0.032268
v 0.095974 0.219549 -0.069514
v 0.011294 0.219549 0.103590
v 0.069691 0.216884 0.140837
v 0.106257 0.183042 0.158724
v 0.019915 0.215429 -0.057455
v -0.017791 0.215429 -0.005451
v 0.160660 0.148127 0.113828
v 0.188887 0.148127 0.056127
v 0.036967 0.239959 0.045856
v 0.068251 0.239959 -0.010246
v 0.097917 0.237294 0.083135
v 0.126144 0.237294 0.025434
v 0.134483 0.203452 0.101023
v 0.162710 0.203452 0.043321
v 0.043641 0.142030 -0.110074
v -0.048066 0.142030 0.049981
v 0.206473 0.077606 -0.023705
v 0.143582 0.077606 0.149709
v 0.180249 0.130566 -0.033216
v 0.143618 0.162960 -0.046501
v 0.084228 0.165511 -0.075979
v 0.021337 0.165511 0.097436
v 0.080726 0.162960 0.126913
v 0.117357 0.130566 0.140198
v 0.013072 0.161567 -0.056723
v -0.017497 0.161567 -0.003371
v 0.164545 0.097143 0.091904
v 0.185509 0.097143 0.034099
v 0.039867 0.185048 0.039861
v 0.063905 0.185048 -0.016735
v 0.101690 0.182497 0.069109
v 0.122654 0.182497 0.011304
v 0.138321 0.150103 0.082394
v 0.159285 0.150103 0.024589
v -0.017741 0.095760 -0.111023
v -0.014962 0.095760 0.064107
v 0.157066 0.034589 -0.119506
v 0.189846 0.034589 0.052551
v 0.131047 0.084874 -0.114549
v 0.094703 0.115633 -0.107625
v 0.031927 0.118055 -0.102879
v 0.064707 0.118055 0.069178
v 0.127482 0.115633 0.064432
v 0.163827 0.084874 0.057508
v -0.016815 0.114310 -0.052647
v -0.015888 0.114310 0.005730
v 0.178919 0.053140 -0.004801
v 0.167993 0.053140 -0.062154
v 0.051906 0.136606 0.013194
v 0.044074 0.136606 -0.044663
v 0.116556 0.134184 0.007080
v 0.105629 0.134184 -0.050273
v 0.152900 0.103425 0.000156
v 0.141974 0.103425 -0.057197
v 0.091009 0.433951 -0.002471
v -0.050000 0.433951 -0.017155
v 0.080940 0.384438 0.138830
v -0.060498 0.384438 0.148552
v 0.079470 0.425140 0.117442
v 0.077416 0.450037 0.087565
v 0.079667 0.451997 0.036658
v -0.061772 0.451997 0.046380
v -0.064022 0.450037 0.097287
v -0.061969 0.425140 0.127164
v 0.044006 0.448966 -0.007365
v -0.002997 0.448966 -0.012260
v -0.013352 0.399453 0.145312
v 0.033794 0.399453 0.142071
v -0.015544 0.467013 0.041501
v 0.031708 0.467013 0.040796
v -0.016876 0.465052 0.094046
v 0.030270 0.465052 0.090806
v -0.014823 0.440155 0.123923
v 0.032324 0.440155 0.120682
v 0.132007 0.293102 -0.019933
v -0.075993 0.293102 -0.019250
v 0.139468 0.220459 0.187769
v -0.065332 0.220459 0.224122
v 0.133970 0.280175 0.156799
v 0.126291 0.316703 0.113537
v 0.121594 0.319579 0.038924
v -0.083206 0.319579 0.075277
v -0.078509 0.316703 0.149890
v -0.070830 0.280175 0.193152
v 0.062673 0.315132 -0.019706
v -0.006660 0.315132 -0.019478
v 0.002934 0.242489 0.212004
v 0.071201 0.242489 0.199887
v -0.016536 0.341609 0.060913
v 0.052283 0.341609 0.052478
v -0.010242 0.338733 0.137773
v 0.058024 0.338733 0.125655
v -0.002563 0.302205 0.181034
v 0.065703 0.302205 0.168916
v 0.096194 0.324782 -0.078624
v -0.069877 0.324782 0.020806
v 0.200904 0.257182 0.083986
v 0.054351 0.257182 0.210430
v 0.181783 0.312753 0.061824
v 0.155074 0.346745 0.030867
v 0.115845 0.349421 -0.026590
v -0.030709 0.349421 0.099854
v 0.008520 0.346745 0.157311
v 0.035230 0.312753 0.188268
v 0.040837 0.345282 -0.045481
v -0.014520 0.345282 -0.012338
v 0.103202 0.277683 0.168282
v 0.152053 0.277683 0.126134
v 0.015797 0.369921 0.056669
v 0.066841 0.369921 0.017204
v 0.057371 0.367245 0.115163
v 0.106223 0.367245 0.073015
v 0.084081 0.333253 0.146120
v 0.132932 0.333253 0.103972
v 0.092568 0.356385 -0.002583
v -0.050864 0.356385 -0.017520
v 0.082325 0.306022 0.141145
v -0.061542 0.306022 0.151034
v 0.080830 0.347423 0.119389
v 0.078741 0.372748 0.088999
v 0.081030 0.374742 0.037217
v -0.062838 0.374742 0.047106
v -0.065127 0.372748 0.098888
v -0.063038 0.347423 0.129278
v 0.044757 0.371658 -0.007562
v -0.003053 0.371658 -0.012541
v -0.013587 0.321295 0.147738
v 0.034369 0.321295 0.144441
v -0.015816 0.390015 0.042143
v 0.032248 0.390015 0.041427
v -0.017171 0.388021 0.095591
v 0.030785 0.388021 0.092295
v -0.015082 0.362696 0.125981
v 0.032874 0.362696 0.122685
v 0.127395 0.217275 0.015167
v -0.063955 0.217275 -0.036753
v 0.081781 0.148031 0.207956
v -0.115640 0.148031 0.189630
v 0.084552 0.204953 0.178101
v 0.088423 0.239772 0.136399
v 0.102956 0.242513 0.066633
v -0.094465 0.242513 0.048307
v -0.108998 0.239772 0.118073
v -0.112869 0.204953 0.159776
v 0.063612 0.238274 -0.002140
v -0.000172 0.238274 -0.019446
v -0.049833 0.169030 0.195739
v 0.015974 0.169030 0.201847
v -0.029558 0.263512 0.051948
v 0.035826 0.263512 0.061581
v -0.043191 0.260771 0.124182
v 0.022616 0.260771 0.130290
v -0.047062 0.225952 0.165884
v 0.018745 0.225952 0.171993
v 0.097200 0.092832 -0.079499
v -0.070654 0.092832 0.020999
v 0.203035 0.024506 0.084858
v 0.054909 0.024506 0.212659
v 0.183709 0.080673 0.062457
v 0.156712 0.115030 0.031168
v 0.117062 0.117735 -0.026906
v -0.031065 0.117735 0.100896
v 0.008586 0.115030 0.158969
v 0.035582 0.080673 0.190259
v 0.041249 0.113552 -0.046000
v -0.014702 0.113552 -0.012501
v 0.104284 0.045227 0.170059
v 0.153660 0.045227 0.127458
v 0.015940 0.138456 0.057247
v 0.067532 0.138456 0.017358
v 0.057961 0.135750 0.116369
v 0.107337 0.135750 0.073768
v 0.084958 0.101394 0.147659
v 0.134333 0.101394 0.105058
v 0.120240 0.118552 -0.004583
v -0.066200 0.118552 -0.023999
v 0.106927 0.053088 0.182243
v -0.080080 0.053088 0.195097
v 0.104983 0.106903 0.153963
v 0.102268 0.139821 0.114460
v 0.105243 0.142413 0.047152
v -0.081764 0.142413 0.060006
v -0.084740 0.139821 0.127315
v -0.082024 0.106903 0.166817
v 0.058094 0.138405 -0.011055
v -0.004053 0.138405 -0.017527
v -0.017745 0.072940 0.190812
v 0.044591 0.072940 0.186528
v -0.020643 0.162266 0.053555
v 0.041833 0.162266 0.052623
v -0.022404 0.159674 0.123030
v 0.039932 0.159674 0.118745
v -0.019689 0.126756 0.162533
v 0.042647 0.126756 0.158248
v 0.060011 0.378333 0.076902
v -0.016383 0.378333 -0.054422
v -0.068649 0.325274 0.157475
v -0.166438 0.325274 0.041202
v -0.051066 0.368891 0.142687
v -0.026505 0.395572 0.122030
v 0.018977 0.397673 0.091810
v -0.078812 0.397673 -0.024463
v -0.124294 0.395572 0.005758
v -0.148855 0.368891 0.026414
v 0.034546 0.394424 0.033127
v 0.009081 0.394424 -0.010647
v -0.133842 0.341365 0.079960
v -0.101245 0.341365 0.118717
v -0.045378 0.413763 0.012464
v -0.014909 0.413763 0.052916
v -0.091698 0.411663 0.044515
v -0.059101 0.411663 0.083273
v -0.116259 0.384982 0.065172
v -0.083662 0.384982 0.103929
v 0.129564 0.167195 0.048604
v -0.058849 0.167195 -0.056225
v 0.031014 0.091895 0.240184
v -0.172588 0.091895 0.169229
v 0.041744 0.153796 0.209394
v 0.056732 0.191660 0.166386
v 0.090311 0.194641 0.096542
v -0.113291 0.194641 0.025587
v -0.146870 0.191660 0.095431
v -0.161858 0.153796 0.138439
v 0.066759 0.190031 0.013661
v 0.003955 0.190031 -0.021282
v -0.104721 0.114730 0.192880
v -0.036853 0.114730 0.216532
v -0.045729 0.217477 0.046398
v 0.020771 0.217477 0.073659
v -0.079002 0.214495 0.119083
v -0.011135 0.214495 0.142734
v -0.093991 0.176631 0.162091
v -0.026123 0.176631 0.185743
v 0.068999 0.193821 0.109084
v -0.012965 0.193821 -0.074541
v -0.111712 0.123593 0.196923
v -0.223959 0.123593 0.030080
v -0.086481 0.181324 0.179949
v -0.051238 0.216637 0.156238
v 0.012890 0.219418 0.122900
v -0.099357 0.219418 -0.043943
v -0.163485 0.216637 -0.010605
v -0.198729 0.181324 0.013106
v 0.041677 0.215118 0.047876
v 0.014356 0.215118 -0.013333
v -0.186544 0.144890 0.085694
v -0.149128 0.144890 0.141309
v -0.060580 0.240715 0.009381
v -0.026204 0.240715 0.066924
v -0.126070 0.237935 0.045009
v -0.088654 0.237935 0.100624
v -0.161313 0.202621 0.068720
v -0.123897 0.202621 0.124334
v 0.061360 0.068997 0.078495
v -0.016670 0.068997 -0.055641
v -0.070055 0.014801 0.160793
v -0.169939 0.014801 0.042031
v -0.052096 0.059353 0.145689
v -0.027009 0.086605 0.124590
v 0.019448 0.088751 0.093722
v -0.080435 0.088751 -0.025040
v -0.126892 0.086605 0.005827
v -0.151979 0.059353 0.026926
v 0.035350 0.085433 0.033783
v 0.009340 0.085433 -0.010929
v -0.136644 0.031237 0.081618
v -0.103350 0.031237 0.121206
v -0.046285 0.105186 0.012677
v -0.015164 0.105186 0.053996
v -0.093597 0.103040 0.045415
v -0.060303 0.103040 0.085002
v -0.118685 0.075788 0.066514
v -0.085390 0.075788 0.106101
v 0.023922 0.119672 0.110163
v 0.014405 0.119672 -0.060314
v -0.146020 0.060042 0.125224
v -0.184640 0.060042 -0.041094
v -0.120869 0.109061 0.119384
v -0.085736 0.139046 0.111226
v -0.024774 0.141407 0.104162
v -0.063394 0.141407 -0.062156
v -0.124356 0.139046 -0.055092
v -0.159489 0.109061 -0.046934
v 0.020749 0.137756 0.053337
v 0.017577 0.137756 -0.003488
v -0.171766 0.078125 0.014345
v -0.158893 0.078125 0.069785
v -0.048748 0.159490 -0.008122
v -0.038870 0.159490 0.047928
v -0.111483 0.157129 0.000347
v -0.098609 0.157129 0.055786
v -0.146615 0.127145 0.008505
v -0.133742 0.127145 0.063944
v -0.046386 0.432408 0.086285
v 0.043172 0.432408 -0.037232
v -0.172658 0.379125 0.000872
v -0.105616 0.379125 -0.136177
v -0.151933 0.422926 0.011010
v -0.122984 0.449719 0.025172
v -0.076750 0.451829 0.054661
v -0.009708 0.451829 -0.082389
v -0.055941 0.449719 -0.111877
v -0.084891 0.422926 -0.126039
v -0.016534 0.448567 0.045113
v 0.013319 0.448567 0.003941
v -0.127963 0.395283 -0.090494
v -0.150311 0.395283 -0.044811
v -0.030034 0.467988 -0.036680
v -0.054802 0.467988 0.007737
v -0.078289 0.465878 -0.066194
v -0.100636 0.465878 -0.020511
v -0.107239 0.439085 -0.080356
v -0.129586 0.439085 -0.034673
v -0.050391 0.292013 0.128892
v 0.056806 0.292013 -0.058198
v -0.240727 0.216707 0.027935
v -0.167213 0.216707 -0.174771
v -0.210073 0.278612 0.039052
v -0.167255 0.316478 0.054581
v -0.097834 0.319460 0.089038
v -0.024319 0.319460 -0.113668
v -0.093740 0.316478 -0.148125
v -0.136559 0.278612 -0.163654
v -0.014659 0.314850 0.066529
v 0.021074 0.314850 0.004166
v -0.191717 0.239544 -0.107202
v -0.216222 0.239544 -0.039634
v -0.045980 0.342297 -0.046369
v -0.074077 0.342297 0.019787
v -0.118245 0.339316 -0.080556
v -0.142750 0.339316 -0.012988
v -0.161064 0.301449 -0.096085
v -0.185569 0.301449 -0.028517
v 0.021511 0.245790 0.130440
v 0.018243 0.245790 -0.075513
v -0.184062 0.173853 0.140416
v -0.222611 0.173853 -0.061923
v -0.153464 0.232989 0.134586
v -0.110723 0.269161 0.126444
v -0.036899 0.272009 0.120863
v -0.075448 0.272009 -0.081476
v -0.149271 0.269161 -0.075896
v -0.192013 0.232989 -0.067753
v 0.020421 0.267605 0.061789
v 0.019332 0.267605 -0.006862
v -0.209761 0.195669 0.005523
v -0.196912 0.195669 0.072970
v -0.060394 0.293825 -0.015639
v -0.051184 0.293825 0.052400
v -0.136422 0.290976 -0.008449
v -0.123572 0.290976 0.058997
v -0.179163 0.254804 -0.000306
v -0.166314 0.254804 0.067140
v -0.049802 0.199011 0.093331
v 0.046919 0.199011 -0.040066
v -0.186174 0.141466 0.001085
v -0.113770 0.141466 -0.146926
v -0.163792 0.188771 0.012035
v -0.132526 0.217707 0.027329
v -0.082595 0.219985 0.059177
v -0.010190 0.219985 -0.088835
v -0.060122 0.217707 -0.120682
v -0.091387 0.188771 -0.135976
v -0.017562 0.216462 0.048865
v 0.014679 0.216462 0.004400
v -0.137905 0.158917 -0.097589
v -0.162039 0.158917 -0.048252
v -0.032142 0.237436 -0.039470
v -0.058891 0.237436 0.008500
v -0.084257 0.235158 -0.071345
v -0.108391 0.235158 -0.022008
v -0.115522 0.206222 -0.086639
v -0.139657 0.206222 -0.037302
v -0.134644 0.346377 0.026746
v 0.077533 0.346217 0.026068
v -0.142255 0.225441 -0.162347
v 0.066658 0.216895 -0.198432
v -0.136647 0.291998 -0.145644
v -0.128814 0.338426 -0.111289
v -0.124023 0.358822 -0.037901
v 0.084891 0.350276 -0.073986
v 0.080099 0.329880 -0.147374
v 0.072266 0.283452 -0.181729
v -0.063918 0.368191 0.021341
v 0.006807 0.368137 0.021115
v -0.002980 0.241611 -0.191583
v -0.072617 0.244460 -0.179554
v 0.016882 0.375520 -0.064907
v -0.053319 0.377503 -0.056535
v 0.010462 0.354596 -0.140524
v -0.059176 0.357445 -0.128496
v 0.002628 0.308167 -0.174879
v -0.067009 0.311016 -0.162851
v -0.074876 0.176637 0.060101
v 0.053431 0.176637 -0.016719
v -0.155776 0.124409 -0.065533
v -0.042548 0.124409 -0.163224
v -0.141003 0.167343 -0.048410
v -0.120367 0.193605 -0.024493
v -0.090059 0.195673 0.019899
v 0.023169 0.195673 -0.077793
v -0.007139 0.193605 -0.122184
v -0.027775 0.167343 -0.146102
v -0.032107 0.192475 0.034494
v 0.010662 0.192475 0.008887
v -0.080291 0.140247 -0.130661
v -0.118034 0.140247 -0.098097
v -0.012761 0.211511 -0.044427
v -0.052198 0.211511 -0.013937
v -0.044882 0.209443 -0.089620
v -0.082624 0.209443 -0.057056
v -0.065518 0.183181 -0.113538
v -0.103260 0.183181 -0.080974
v -0.125234 0.117437 0.004944
v 0.068967 0.117437 0.025168
v -0.111367 0.049247 -0.189660
v 0.083426 0.049247 -0.203049
v -0.109342 0.105303 -0.160203
v -0.106514 0.139591 -0.119055
v -0.109613 0.142291 -0.048945
v 0.085179 0.142291 -0.062334
v 0.088279 0.139591 -0.132445
v 0.085451 0.105303 -0.173592
v -0.060500 0.138117 0.011685
v 0.004234 0.138117 0.018426
v 0.018495 0.069926 -0.198586
v -0.046436 0.069926 -0.194123
v 0.021514 0.162971 -0.055615
v -0.043563 0.162971 -0.054644
v 0.023348 0.160271 -0.127982
v -0.041583 0.160271 -0.123518
v 0.020520 0.125982 -0.169129
v -0.044411 0.125982 -0.164666
v -0.063408 0.595002 0.066168
v 0.063071 0.595002 0.066168
v -0.063408 0.595002 -0.062690
v 0.063071 0.595002 -0.062690
v -0.021248 0.595002 0.066168
v 0.020911 0.595002 0.066168
v 0.020911 0.595002 -0.062690
v -0.021248 0.595002 -0.062690
v -0.063408 0.595002 -0.019737
v -0.063408 0.595002 0.023216
v 0.063071 0.595002 0.023216
v 0.063071 0.595002 -0.019737
v -0.022143 0.609345 0.024128
v -0.022143 0.609345 -0.020649
v 0.021807 0.609345 0.024128
v 0.021807 0.609345 -0.020649
v -0.056790 0.626286 0.053837
v 0.055085 0.626286 0.053837
v -0.056790 0.626286 -0.060143
v 0.055085 0.626286 -0.060143
v -0.019498 0.626286 0.053837
v 0.017793 0.626286 0.053837
v 0.017793 0.626286 -0.060143
v -0.019498 0.626286 -0.060143
v -0.056790 0.626286 -0.022149
v -0.056790 0.626286 0.015844
v 0.055085 0.626286 0.015844
v 0.055085 0.626286 -0.022149
v -0.019498 0.611290 0.015844
v -0.019498 0.611290 -0.022149
v 0.017793 0.611290 0.015844
v 0.017793 0.611290 -0.022149
v -0.044413 0.605246 0.081727
v 0.084033 0.605246 0.042611
v -0.084265 0.605246 -0.049134
v 0.044181 0.605246 -0.088251
v -0.001598 0.605246 0.068689
v 0.041218 0.605246 0.055650
v 0.001365 0.605246 -0.075212
v -0.041450 0.605246 -0.062173
v -0.070981 0.605246 -0.005514
v -0.057697 0.605246 0.038107
v 0.070749 0.605246 -0.001010
v 0.057465 0.605246 -0.044630
v -0.014882 0.610215 0.025068
v -0.028166 0.610215 -0.018552
v 0.027934 0.610215 0.012029
v 0.014649 0.610215 -0.031591
v 0.004809 0.618157 0.088573
v 0.091795 0.618157 -0.006475
v -0.092027 0.618157 -0.000049
v -0.005041 0.618157 -0.095097
v 0.033804 0.618157 0.056891
v 0.062799 0.618157 0.025208
v -0.034036 0.618157 -0.063414
v -0.063032 0.618157 -0.031731
v -0.059748 0.618157 0.029492
v -0.027470 0.618157 0.059033
v 0.059516 0.618157 -0.036015
v 0.027238 0.618157 -0.065556
v 0.001595 0.610390 0.028639
v -0.032043 0.610390 -0.002146
v 0.031811 0.610390 -0.004378
v -0.001827 0.610390 -0.035163
v -0.047549 0.632431 -0.025781
v -0.024347 0.632431 0.043114
v 0.022642 0.632431 -0.049420
v 0.045844 0.632431 0.019476
v -0.039815 0.632431 -0.002816
v -0.032081 0.632431 0.020149
v 0.038110 0.632431 -0.003489
v 0.030376 0.632431 -0.026455
v -0.000755 0.632431 -0.041540
v -0.024152 0.632431 -0.033661
v -0.000950 0.632431 0.035235
v 0.022447 0.632431 0.027355
v -0.016923 0.612241 -0.010940
v 0.007233 0.612241 -0.019075
v -0.008938 0.612241 0.012769
v 0.015218 0.612241 0.004635
v 0.001185 0.635121 0.029254
v 0.031587 0.635121 -0.004586
v -0.033292 0.635121 -0.001719
v -0.002890 0.635121 -0.035560
v 0.011319 0.635121 0.017974
v 0.021453 0.635121 0.006694
v -0.013024 0.635121 -0.024279
v -0.023158 0.635121 -0.012999
v -0.021799 0.635121 0.008605
v -0.010307 0.635121 0.018930
v 0.020094 0.635121 -0.014911
v 0.008602 0.635121 -0.025235
v -0.000103 0.614569 0.008768
v -0.012785 0.614569 -0.002625
v 0.011080 0.614569 -0.003680
v -0.001602 0.614569 -0.015073
v -0.005516 0.631332 0.062510
v 0.064712 0.631332 0.002733
v -0.066417 0.631332 -0.009039
v 0.003811 0.631332 -0.068816
v 0.017893 0.631332 0.042585
v 0.041303 0.631332 0.022659
v -0.019599 0.631332 -0.048890
v -0.043008 0.631332 -0.028964
v -0.046117 0.631332 0.014811
v -0.025816 0.631332 0.038661
v 0.044412 0.631332 -0.021116
v 0.024111 0.631332 -0.044966
v -0.002738 0.613234 0.023399
v -0.027364 0.613234 -0.005533
v 0.025659 0.613234 -0.000773
v 0.001033 0.613234 -0.029704
v 0.022642 0.634375 -0.049420
v 0.030376 0.634375 -0.026455
v -0.000755 0.634375 -0.041540
v 0.007233 0.614185 -0.019075
vn -0.0000 -0.0000 -1.0000
vn 0.8660 -0.0000 -0.5000
vn 0.8660 -0.0000 0.5000
vn -0.0000 -0.0000 1.0000
vn -0.8660 -0.0000 0.5000
vn -0.8660 -0.0000 -0.5000
vn -0.0000 -0.0948 -0.9955
vn 0.8621 -0.0948 -0.4977
vn 0.8621 -0.0948 0.4978
vn -0.0000 -0.0948 0.9955
vn -0.8621 -0.0948 0.4977
vn -0.8621 -0.0948 -0.4978
vn -0.0000 -0.0894 -0.9960
vn 0.8626 -0.0894 -0.4980
vn 0.8626 -0.0894 0.4980
vn -0.0000 -0.0894 0.9960
vn -0.8626 -0.0894 0.4980
vn -0.8626 -0.0894 -0.4980
vn -0.4183 0.9029 0.0994
vn 0.1260 0.9270 0.3533
vn 0.1497 0.3924 -0.9075
vn 0.4263 0.3999 -0.8114
vn 0.0787 0.5314 -0.8434
vn -0.1432 0.8494 -0.5079
vn -0.3373 0.9402 -0.0481
vn 0.2416 0.9555 0.1692
vn 0.3856 0.8668 -0.3162
vn 0.4356 0.5410 -0.7194
vn -0.2908 0.9446 0.1520
vn -0.0345 0.9558 0.2919
vn 0.3651 0.4012 -0.8401
vn 0.2154 0.3972 -0.8921
vn 0.0881 0.9878 0.1286
vn -0.1795 0.9837 -0.0108
vn 0.2494 0.9065 -0.3406
vn -0.0116 0.8945 -0.4469
vn 0.3465 0.5823 -0.7354
vn 0.1565 0.5772 -0.8015
vn -0.4358 0.8925 -0.1161
vn -0.1532 0.8971 0.4144
vn 0.6444 0.4610 -0.6101
vn 0.8079 0.4610 -0.3670
vn 0.5429 0.5947 -0.5930
vn 0.1500 0.8859 -0.4389
vn -0.2845 0.9411 -0.1829
vn 0.0480 0.9397 0.3386
vn 0.4577 0.8885 0.0323
vn 0.7539 0.5947 -0.2794
vn -0.3671 0.9302 0.0049
vn -0.2462 0.9306 0.2709
vn 0.7760 0.4646 -0.4265
vn 0.6875 0.4646 -0.5581
vn -0.0519 0.9750 0.2161
vn -0.1825 0.9816 -0.0558
vn 0.3615 0.9300 -0.0664
vn 0.2168 0.9262 -0.3085
vn 0.6902 0.6371 -0.3431
vn 0.5779 0.6371 -0.5101
vn -0.4457 0.8925 -0.0688
vn -0.1080 0.8971 0.4284
vn 0.5755 0.4610 -0.6754
vn 0.7641 0.4610 -0.4512
vn 0.4765 0.5947 -0.6476
vn 0.1022 0.8859 -0.4524
vn -0.3024 0.9411 -0.1514
vn 0.0840 0.9397 0.3316
vn 0.4586 0.8885 -0.0168
vn 0.7197 0.5947 -0.3584
vn -0.3645 0.9302 0.0441
vn -0.2158 0.9306 0.2957
vn 0.7260 0.4646 -0.5070
vn 0.6240 0.4646 -0.6284
vn -0.0286 0.9750 0.2204
vn -0.1874 0.9816 -0.0360
vn 0.3523 0.9300 -0.1046
vn 0.1826 0.9262 -0.3299
vn 0.6496 0.6371 -0.4149
vn 0.5201 0.6371 -0.5689
vn -0.4183 0.8925 0.1685
vn 0.1260 0.8971 0.4234
vn 0.1497 0.4610 -0.8747
vn 0.4263 0.4610 -0.7783
vn 0.0788 0.5947 -0.8001
vn -0.1432 0.8859 -0.4411
vn -0.3373 0.9411 0.0243
vn 0.2416 0.9397 0.2422
vn 0.3856 0.8885 -0.2487
vn 0.4356 0.5947 -0.6758
vn -0.2908 0.9302 0.2241
vn -0.0345 0.9306 0.3644
vn 0.3651 0.4646 -0.8068
vn 0.2154 0.4646 -0.8589
vn 0.0881 0.9750 0.2041
vn -0.1795 0.9816 0.0648
vn 0.2494 0.9300 -0.2699
vn -0.0116 0.9262 -0.3769
vn 0.3465 0.6371 -0.6885
vn 0.1565 0.6371 -0.7548
vn 0.0480 0.9397 0.3387
vn -0.3368 0.9212 0.1947
vn 0.2071 0.9768 -0.0549
vn -0.6237 0.1527 -0.7666
vn -0.3707 0.1682 -0.9134
vn -0.6442 0.3066 -0.7008
vn -0.5919 0.7078 -0.3856
vn -0.3968 0.9173 0.0331
vn 0.1446 0.9537 -0.2638
vn -0.1028 0.7426 -0.6618
vn -0.3178 0.3267 -0.8901
vn -0.2198 0.9676 0.1246
vn 0.0513 0.9985 0.0200
vn -0.4326 0.1659 -0.8862
vn -0.5695 0.1575 -0.8068
vn 0.0082 0.9834 -0.1815
vn -0.2711 0.9600 -0.0696
vn -0.2170 0.7825 -0.5836
vn -0.4664 0.7591 -0.4541
vn -0.3947 0.3676 -0.8421
vn -0.5685 0.3569 -0.7412
vn -0.3551 0.8925 -0.2780
vn -0.3037 0.8971 0.3208
vn 0.8323 0.4610 -0.3077
vn 0.8872 0.4610 -0.0199
vn 0.7323 0.5947 -0.3319
vn 0.3104 0.8859 -0.3446
vn -0.1897 0.9411 -0.2800
vn -0.0889 0.9397 0.3303
vn 0.4082 0.8885 0.2096
vn 0.8030 0.5947 0.0394
vn -0.3395 0.9302 -0.1398
vn -0.3329 0.9306 0.1524
vn 0.8812 0.4646 -0.0872
vn 0.8516 0.4646 -0.2429
vn -0.1327 0.9750 0.1783
vn -0.1459 0.9816 -0.1231
vn 0.3585 0.9300 0.0810
vn 0.3206 0.9262 -0.1985
vn 0.7695 0.6371 -0.0442
vn 0.7319 0.6371 -0.2419
vn -0.1174 0.8925 -0.4354
vn -0.4355 0.8971 0.0745
vn 0.8506 0.4610 0.2530
vn 0.7218 0.4610 0.5162
vn 0.7850 0.5947 0.1737
vn 0.4551 0.8859 -0.0896
vn 0.0161 0.9411 -0.3378
vn -0.2693 0.9397 0.2109
vn 0.2009 0.8885 0.4125
vn 0.6189 0.5947 0.5131
vn -0.1878 0.9302 -0.3154
vn -0.3577 0.9306 -0.0777
vn 0.7574 0.4646 0.4588
vn 0.8271 0.4646 0.3164
vn -0.2131 0.9750 0.0631
vn -0.0429 0.9816 -0.1860
vn 0.2382 0.9300 0.2798
vn 0.3756 0.9262 0.0335
vn 0.6423 0.6371 0.4262
vn 0.7307 0.6371 0.2454
vn -0.1632 0.8925 -0.4204
vn -0.4250 0.8971 0.1206
vn 0.8727 0.4610 0.1607
vn 0.7728 0.4610 0.4361
vn 0.7991 0.5947 0.0888
vn 0.4429 0.8859 -0.1377
vn -0.0200 0.9411 -0.3376
vn -0.2452 0.9397 0.2385
vn 0.2438 0.8885 0.3887
vn 0.6702 0.5947 0.4441
vn -0.2205 0.9302 -0.2936
vn -0.3640 0.9306 -0.0391
vn 0.8021 0.4646 0.3752
vn 0.8562 0.4646 0.2262
vn -0.2052 0.9750 0.0855
vn -0.0625 0.9816 -0.1803
vn 0.2668 0.9300 0.2528
vn 0.3770 0.9262 -0.0068
vn 0.6841 0.6371 0.3552
vn 0.7527 0.6371 0.1659
vn -0.4242 0.8925 0.1531
vn 0.1104 0.8971 0.4278
vn 0.1817 0.4610 -0.8686
vn 0.4546 0.4610 -0.7621
vn 0.1080 0.5947 -0.7967
vn -0.1270 0.8859 -0.4461
vn -0.3380 0.9411 0.0119
vn 0.2325 0.9397 0.2508
vn 0.3945 0.8885 -0.2344
vn 0.4601 0.5947 -0.6593
vn -0.2988 0.9302 0.2133
vn -0.0478 0.9306 0.3629
vn 0.3944 0.4646 -0.7928
vn 0.2467 0.4646 -0.8505
vn 0.0805 0.9750 0.2072
vn -0.1818 0.9816 0.0582
vn 0.2591 0.9300 -0.2606
vn 0.0022 0.9262 -0.3771
vn 0.3715 0.6371 -0.6754
vn 0.1840 0.6371 -0.7485
vn 0.6841 0.6371 0.3551
vn 0.3184 0.8925 -0.3194
vn -0.2823 0.8971 -0.3398
vn 0.2062 0.4610 0.8631
vn -0.0861 0.4610 0.8832
vn 0.2421 0.5947 0.7667
vn 0.3051 0.8859 0.3493
vn 0.3006 0.9411 -0.1549
vn -0.3173 0.9397 -0.1277
vn -0.2568 0.8885 0.3802
vn -0.1349 0.5947 0.7926
vn 0.1793 0.9302 -0.3204
vn -0.1115 0.9306 -0.3487
vn -0.0186 0.4646 0.8853
vn 0.1396 0.4646 0.8745
vn -0.1612 0.9750 -0.1530
vn 0.1396 0.9816 -0.1301
vn -0.1232 0.9300 0.3462
vn 0.1588 0.9262 0.3420
vn -0.0480 0.6371 0.7693
vn 0.1528 0.6371 0.7555
vn 0.2824 0.8925 -0.3515
vn -0.3170 0.8971 -0.3077
vn 0.2972 0.4610 0.8362
vn 0.0087 0.4610 0.8874
vn 0.3226 0.5947 0.7364
vn 0.3407 0.8859 0.3147
vn 0.2823 0.9411 -0.1862
vn -0.3291 0.9397 -0.0931
vn -0.2147 0.8885 0.4055
vn -0.0495 0.5947 0.8025
vn 0.1440 0.9302 -0.3377
vn -0.1482 0.9306 -0.3348
vn 0.0761 0.4646 0.8823
vn 0.2322 0.4646 0.8546
vn -0.1766 0.9750 -0.1349
vn 0.1249 0.9816 -0.1443
vn -0.0855 0.9300 0.3574
vn 0.1944 0.9262 0.3231
vn 0.0345 0.6371 0.7700
vn 0.2326 0.6371 0.7349
vn 0.0632 0.8925 -0.4465
vn -0.4297 0.8971 -0.1026
vn 0.6826 0.4610 0.5670
vn 0.4608 0.4610 0.7584
vn 0.6535 0.5947 0.4683
vn 0.4536 0.8859 0.0965
vn 0.1476 0.9411 -0.3043
vn -0.3305 0.9397 0.0881
vn 0.0226 0.8885 0.4583
vn 0.3674 0.5947 0.7151
vn -0.0487 0.9302 -0.3639
vn -0.2984 0.9306 -0.2121
vn 0.5161 0.4646 0.7196
vn 0.6362 0.4646 0.6160
vn -0.2208 0.9750 -0.0258
vn 0.0336 0.9816 -0.1879
vn 0.1091 0.9300 0.3510
vn 0.3322 0.9262 0.1784
vn 0.4230 0.6371 0.6444
vn 0.5754 0.6371 0.5129
vn 0.3655 0.8925 -0.2641
vn -0.2241 0.8971 -0.3807
vn 0.0650 0.4610 0.8850
vn -0.2267 0.4610 0.8579
vn 0.1159 0.5947 0.7956
vn 0.2451 0.8859 0.3938
vn 0.3216 0.9411 -0.1047
vn -0.2927 0.9397 -0.1770
vn -0.3145 0.8885 0.3341
vn -0.2604 0.5947 0.7607
vn 0.2284 0.9302 -0.2875
vn -0.0541 0.9306 -0.3620
vn -0.1605 0.4646 0.8709
vn -0.0026 0.4646 0.8855
vn -0.1345 0.9750 -0.1769
vn 0.1587 0.9816 -0.1061
vn -0.1772 0.9300 0.3220
vn 0.1018 0.9262 0.3631
vn -0.1708 0.6371 0.7516
vn 0.0296 0.6371 0.7702
vn 0.4457 0.8925 0.0688
vn 0.1080 0.8971 -0.4284
vn -0.5755 0.4610 0.6754
vn -0.7641 0.4610 0.4512
vn -0.4765 0.5947 0.6476
vn -0.1022 0.8859 0.4524
vn 0.3024 0.9411 0.1514
vn -0.0840 0.9397 -0.3316
vn -0.4586 0.8885 0.0168
vn -0.7197 0.5947 0.3584
vn 0.3645 0.9302 -0.0441
vn 0.2158 0.9306 -0.2957
vn -0.7260 0.4646 0.5070
vn -0.6240 0.4646 0.6284
vn 0.0286 0.9750 -0.2204
vn 0.1874 0.9816 0.0360
vn -0.3523 0.9300 0.1046
vn -0.1826 0.9262 0.3299
vn -0.6496 0.6371 0.4149
vn -0.5201 0.6371 0.5689
vn 0.4183 0.8925 -0.1685
vn -0.1260 0.8971 -0.4234
vn -0.1497 0.4610 0.8747
vn -0.4263 0.4610 0.7783
vn -0.0787 0.5947 0.8001
vn 0.1432 0.8859 0.4411
vn 0.3373 0.9411 -0.0243
vn -0.2416 0.9397 -0.2422
vn -0.3856 0.8885 0.2487
vn -0.4356 0.5947 0.6758
vn 0.2908 0.9302 -0.2241
vn 0.0345 0.9306 -0.3644
vn -0.3651 0.4646 0.8068
vn -0.2154 0.4646 0.8589
vn -0.0881 0.9750 -0.2041
vn 0.1795 0.9816 -0.0648
vn -0.2494 0.9300 0.2699
vn 0.0116 0.9262 0.3769
vn -0.3465 0.6371 0.6885
vn -0.1565 0.6371 0.7548
vn 0.4358 0.8925 0.1161
vn 0.1532 0.8971 -0.4144
vn -0.6444 0.4610 0.6101
vn -0.8079 0.4610 0.3670
vn -0.5429 0.5947 0.5930
vn -0.1500 0.8859 0.4389
vn 0.2845 0.9411 0.1829
vn -0.0480 0.9397 -0.3386
vn -0.4577 0.8885 -0.0323
vn -0.7539 0.5947 0.2794
vn 0.3671 0.9302 -0.0049
vn 0.2462 0.9306 -0.2709
vn -0.7760 0.4646 0.4265
vn -0.6875 0.4646 0.5581
vn 0.0519 0.9750 -0.2161
vn 0.1825 0.9816 0.0558
vn -0.3615 0.9300 0.0664
vn -0.2168 0.9262 0.3085
vn -0.6902 0.6371 0.3431
vn -0.5779 0.6371 0.5101
vn 0.3659 0.8925 0.2636
vn 0.2907 0.8971 -0.3327
vn -0.8194 0.4610 0.3406
vn -0.8857 0.4610 0.0553
vn -0.7185 0.5947 0.3608
vn -0.2964 0.8859 0.3567
vn 0.2007 0.9411 0.2722
vn 0.0757 0.9397 -0.3336
vn -0.4162 0.8885 -0.1932
vn -0.8039 0.5947 -0.0073
vn 0.3448 0.9302 0.1261
vn 0.3265 0.9306 -0.1655
vn -0.8771 0.4646 0.1223
vn -0.8412 0.4646 0.2767
vn 0.1255 0.9750 -0.1835
vn 0.1507 0.9816 0.1171
vn -0.3614 0.9300 -0.0667
vn -0.3124 0.9262 0.2111
vn -0.7672 0.6371 0.0748
vn -0.7216 0.6371 0.2709
vn 0.1174 0.8925 0.4354
vn 0.4355 0.8971 -0.0745
vn -0.8506 0.4610 -0.2530
vn -0.7218 0.4610 -0.5162
vn -0.7850 0.5947 -0.1737
vn -0.4551 0.8859 0.0896
vn -0.0161 0.9411 0.3378
vn 0.2693 0.9397 -0.2109
vn -0.2009 0.8885 -0.4125
vn -0.6189 0.5947 -0.5131
vn 0.1878 0.9302 0.3154
vn 0.3577 0.9306 0.0777
vn -0.7574 0.4646 -0.4588
vn -0.8271 0.4646 -0.3164
vn 0.2131 0.9750 -0.0631
vn 0.0429 0.9816 0.1860
vn -0.2382 0.9300 -0.2798
vn -0.3756 0.9262 -0.0335
vn -0.6422 0.6371 -0.4262
vn -0.7307 0.6371 -0.2454
vn 0.1632 0.8925 0.4204
vn 0.4250 0.8971 -0.1206
vn -0.8727 0.4610 -0.1607
vn -0.7728 0.4610 -0.4361
vn -0.7991 0.5947 -0.0888
vn -0.4429 0.8859 0.1377
vn 0.0200 0.9411 0.3376
vn 0.2452 0.9397 -0.2385
vn -0.2438 0.8885 -0.3887
vn -0.6702 0.5947 -0.4441
vn 0.2205 0.9302 0.2936
vn 0.3640 0.9306 0.0391
vn -0.8021 0.4646 -0.3752
vn -0.8562 0.4646 -0.2262
vn 0.2052 0.9750 -0.0855
vn 0.0625 0.9816 0.1803
vn -0.2668 0.9300 -0.2528
vn -0.3770 0.9262 0.0068
vn -0.6841 0.6371 -0.3552
vn -0.7527 0.6371 -0.1659
vn 0.3551 0.8925 0.2780
vn 0.3037 0.8971 -0.3208
vn -0.8323 0.4610 0.3077
vn -0.8872 0.4610 0.0199
vn -0.7323 0.5947 0.3319
vn -0.3104 0.8859 0.3446
vn 0.1897 0.9411 0.2800
vn 0.0889 0.9397 -0.3303
vn -0.4082 0.8885 -0.2096
vn -0.8030 0.5947 -0.0394
vn 0.3395 0.9302 0.1398
vn 0.3329 0.9306 -0.1524
vn -0.8812 0.4646 0.0872
vn -0.8516 0.4646 0.2429
vn 0.1327 0.9750 -0.1783
vn 0.1459 0.9816 0.1231
vn -0.3585 0.9300 -0.0810
vn -0.3206 0.9262 0.1985
vn -0.7695 0.6371 0.0442
vn -0.7319 0.6371 0.2419
vn -0.6423 0.6371 -0.4262
vn -0.2824 0.9495 0.1364
vn 0.3170 0.9439 0.0927
vn -0.2972 0.2559 -0.9199
vn -0.0087 0.2441 -0.9697
vn -0.3226 0.4089 -0.8536
vn -0.3407 0.7896 -0.5104
vn -0.2823 0.9586 -0.0357
vn 0.3291 0.9358 -0.1260
vn 0.2147 0.7711 -0.5994
vn 0.0495 0.3937 -0.9179
vn -0.1440 0.9830 0.1142
vn 0.1482 0.9827 0.1113
vn -0.0761 0.2487 -0.9656
vn -0.2322 0.2551 -0.9386
vn 0.1766 0.9798 -0.0934
vn -0.1249 0.9885 -0.0858
vn 0.0855 0.8226 -0.5621
vn -0.1944 0.8268 -0.5278
vn -0.0345 0.4425 -0.8961
vn -0.2326 0.4506 -0.8619
vn -0.0632 0.8925 0.4465
vn 0.4297 0.8971 0.1026
vn -0.6826 0.4610 -0.5670
vn -0.4608 0.4610 -0.7584
vn -0.6535 0.5947 -0.4683
vn -0.4536 0.8859 -0.0965
vn -0.1476 0.9411 0.3043
vn 0.3305 0.9397 -0.0881
vn -0.0226 0.8885 -0.4583
vn -0.3674 0.5947 -0.7151
vn 0.0487 0.9302 0.3639
vn 0.2984 0.9306 0.2121
vn -0.5161 0.4646 -0.7196
vn -0.6362 0.4646 -0.6160
vn 0.2208 0.9750 0.0258
vn -0.0336 0.9816 0.1879
vn -0.1091 0.9300 -0.3510
vn -0.3322 0.9262 -0.1784
vn -0.4230 0.6371 -0.6444
vn -0.5754 0.6371 -0.5129
vn -0.3184 0.8925 0.3194
vn 0.2823 0.8971 0.3398
vn -0.2062 0.4610 -0.8631
vn 0.0861 0.4610 -0.8832
vn -0.2421 0.5947 -0.7667
vn -0.3051 0.8859 -0.3493
vn -0.3006 0.9411 0.1549
vn 0.3173 0.9397 0.1277
vn 0.2568 0.8885 -0.3802
vn 0.1349 0.5947 -0.7926
vn -0.1793 0.9302 0.3204
vn 0.1115 0.9306 0.3487
vn 0.0186 0.4646 -0.8853
vn -0.1396 0.4646 -0.8745
vn 0.1612 0.9750 0.1530
vn -0.1396 0.9816 0.1301
vn 0.1232 0.9300 -0.3462
vn -0.1588 0.9262 -0.3420
vn 0.0480 0.6371 -0.7693
vn -0.1528 0.6371 -0.7555
vn -0.0000 1.0000 -0.0000
vn -0.0823 0.9661 0.2448
vn 0.0823 0.9661 0.2448
vn 0.0823 0.9661 -0.2448
vn -0.0823 0.9661 -0.2448
vn -0.2509 0.9645 -0.0825
vn -0.2509 0.9645 0.0825
vn 0.2509 0.9645 0.0825
vn 0.2509 0.9645 -0.0825
vn -0.1643 0.9731 0.1614
vn -0.1642 0.9731 -0.1614
vn 0.1642 0.9731 0.1614
vn 0.1643 0.9731 -0.1614
vn 0.0946 0.9562 -0.2771
vn -0.0946 0.9562 -0.2772
vn -0.0946 0.9562 0.2771
vn 0.0946 0.9562 0.2772
vn 0.2839 0.9541 0.0949
vn 0.2839 0.9541 -0.0949
vn -0.2839 0.9541 -0.0949
vn -0.2839 0.9541 0.0949
vn 0.1833 0.9664 -0.1801
vn 0.1833 0.9664 0.1801
vn -0.1833 0.9664 -0.1801
vn -0.1833 0.9664 0.1801
vn -0.0025 0.9963 0.0854
vn 0.0497 0.9963 0.0695
vn 0.0025 0.9963 -0.0854
vn -0.0497 0.9963 -0.0695
vn -0.0875 0.9962 -0.0020
vn -0.0716 0.9962 0.0505
vn 0.0875 0.9962 0.0020
vn 0.0716 0.9962 -0.0505
vn -0.0369 0.9970 0.0678
vn -0.0684 0.9970 -0.0357
vn 0.0684 0.9970 0.0357
vn 0.0369 0.9970 -0.0678
vn -0.0060 0.9917 -0.1282
vn -0.1282 0.9917 0.0054
vn 0.1282 0.9917 -0.0054
vn 0.0060 0.9917 0.1282
vn -0.1316 0.9840 -0.1205
vn 0.1316 0.9840 0.1205
vn 0.1226 0.9834 -0.1340
vn -0.1226 0.9834 0.1340
vn -0.0030 0.9954 -0.0961
vn 0.0960 0.9954 -0.0055
vn -0.0960 0.9954 0.0055
vn 0.0030 0.9954 0.0961
vn 0.5261 0.8504 0.0059
vn 0.4153 0.8504 -0.3230
vn -0.5261 0.8504 -0.0059
vn -0.4153 0.8504 0.3230
vn -0.0025 0.8447 0.5352
vn 0.3258 0.8447 0.4246
vn 0.0025 0.8447 -0.5352
vn -0.3258 0.8447 -0.4246
vn 0.3942 0.8972 0.1990
vn -0.1935 0.8972 0.3969
vn 0.1935 0.8972 -0.3969
vn -0.3942 0.8972 -0.1990
vn -0.3306 0.7173 -0.6134
vn -0.6451 0.7173 -0.2632
vn 0.3306 0.7173 0.6134
vn 0.6451 0.7173 0.2632
vn 0.6184 0.7090 -0.3389
vn 0.2709 0.7090 -0.6510
vn -0.6184 0.7090 0.3389
vn -0.2709 0.7090 0.6510
vn -0.0277 0.8220 -0.5689
vn 0.5686 0.8219 -0.0332
vn -0.5686 0.8219 0.0332
vn 0.0277 0.8220 0.5689
vn 0.0326 0.9079 -0.4178
vn -0.4177 0.9079 -0.0346
vn 0.4177 0.9079 0.0346
vn -0.0326 0.9079 0.4178
vn -0.3520 0.8397 -0.4135
vn 0.3520 0.8397 0.4135
vn 0.4190 0.8350 -0.3566
vn -0.4190 0.8350 0.3566
vn 0.0280 0.9506 -0.3092
vn 0.3097 0.9506 0.0218
vn -0.3097 0.9506 -0.0218
vn -0.0280 0.9506 0.3092
vn -0.2046 0.8831 0.4221
vn -0.2082 0.8787 0.4296
vn -0.3358 0.6381 0.6929
vt 0.000000 0.000000
vt 1.000000 0.750000
vt 0.666667 1.000000
vt 0.666667 0.750000
vt 1.000000 0.000000
vt 0.666667 0.250000
vt 0.666667 0.000000
vt 1.000000 0.250000
vt 0.666667 0.500000
vt 1.000000 0.500000
vt 0.000000 0.500000
vt 0.333333 0.750000
vt 0.000000 0.750000
vt 0.333333 0.500000
vt 0.333333 0.250000
vt 0.000000 0.250000
vt 0.333333 0.000000
vt 0.333333 1.000000
vt 0.000000 1.000000
vt 1.000000 0.666667
vt 0.666667 0.666667
vt 0.000000 0.666667
vt 0.333333 0.666667
vt 0.666667 0.333333
vt 0.333333 0.333333
vt 0.000000 0.333333
vt 1.000000 0.333333
vt 1.000000 1.000000
s 1
usemtl Material.013
f 2/1/1 62/1/14 61/1/13
f 4/1/2 63/1/15 62/1/14
f 6/1/3 64/1/16 63/1/15
f 8/1/4 65/1/17 64/1/16
f 10/1/5 66/1/18 65/1/17
f 12/1/6 61/1/13 66/1/18
f 59/1/6 13/1/1 60/1/1
f 54/1/6 14/1/1 13/1/1
f 53/1/6 15/1/1 14/1/1
f 52/1/6 16/1/1 15/1/1
f 51/1/6 17/1/1 16/1/1
f 50/1/6 18/1/1 17/1/1
f 48/1/12 18/1/1 49/1/6
f 47/1/5 59/1/6 58/1/5
f 46/1/5 54/1/6 47/1/5
f 45/1/5 53/1/6 46/1/5
f 44/1/5 52/1/6 45/1/5
f 43/1/5 51/1/6 44/1/5
f 42/1/5 50/1/6 43/1/5
f 41/1/11 49/1/6 42/1/5
f 40/1/4 58/1/5 57/1/4
f 39/1/4 47/1/5 40/1/4
f 38/1/4 46/1/5 39/1/4
f 37/1/4 45/1/5 38/1/4
f 36/1/4 44/1/5 37/1/4
f 35/1/4 43/1/5 36/1/4
f 34/1/10 42/1/5 35/1/4
f 33/1/3 57/1/4 56/1/3
f 32/1/3 40/1/4 33/1/3
f 31/1/3 39/1/4 32/1/3
f 30/1/3 38/1/4 31/1/3
f 29/1/3 37/1/4 30/1/3
f 28/1/3 36/1/4 29/1/3
f 27/1/9 35/1/4 28/1/3
f 26/1/2 56/1/3 55/1/2
f 25/1/2 33/1/3 26/1/2
f 24/1/2 32/1/3 25/1/2
f 23/1/2 31/1/3 24/1/2
f 22/1/2 30/1/3 23/1/2
f 21/1/2 29/1/3 22/1/2
f 20/1/8 28/1/3 21/1/2
f 13/1/1 55/1/2 60/1/1
f 14/1/1 26/1/2 13/1/1
f 15/1/1 25/1/2 14/1/1
f 16/1/1 24/1/2 15/1/1
f 17/1/1 23/1/2 16/1/1
f 18/1/1 22/1/2 17/1/1
f 19/1/7 21/1/2 18/1/1
f 60/1/1 3/1/2 1/1/1
f 55/1/2 5/1/3 3/1/2
f 56/1/3 7/1/4 5/1/3
f 57/1/4 9/1/5 7/1/4
f 58/1/5 11/1/6 9/1/5
f 11/1/6 60/1/1 1/1/1
f 66/1/18 19/1/7 48/1/12
f 65/1/17 48/1/12 41/1/11
f 34/1/10 65/1/17 41/1/11
f 63/1/15 34/1/10 27/1/9
f 62/1/14 27/1/9 20/1/8
f 19/1/7 62/1/14 20/1/8
f 2/1/1 4/1/2 62/1/14
f 4/1/2 6/1/3 63/1/15
f 6/1/3 8/1/4 64/1/16
f 8/1/4 10/1/5 65/1/17
f 10/1/5 12/1/6 66/1/18
f 12/1/6 2/1/1 61/1/13
f 59/1/6 54/1/6 13/1/1
f 54/1/6 53/1/6 14/1/1
f 53/1/6 52/1/6 15/1/1
f 52/1/6 51/1/6 16/1/1
f 51/1/6 50/1/6 17/1/1
f 50/1/6 49/1/6 18/1/1
f 48/1/12 19/1/7 18/1/1
f 47/1/5 54/1/6 59/1/6
f 46/1/5 53/1/6 54/1/6
f 45/1/5 52/1/6 53/1/6
f 44/1/5 51/1/6 52/1/6
f 43/1/5 50/1/6 51/1/6
f 42/1/5 49/1/6 50/1/6
f 41/1/11 48/1/12 49/1/6
f 40/1/4 47/1/5 58/1/5
f 39/1/4 46/1/5 47/1/5
f 38/1/4 45/1/5 46/1/5
f 37/1/4 44/1/5 45/1/5
f 36/1/4 43/1/5 44/1/5
f 35/1/4 42/1/5 43/1/5
f 34/1/10 41/1/11 42/1/5
f 33/1/3 40/1/4 57/1/4
f 32/1/3 39/1/4 40/1/4
f 31/1/3 38/1/4 39/1/4
f 30/1/3 37/1/4 38/1/4
f 29/1/3 36/1/4 37/1/4
f 28/1/3 35/1/4 36/1/4
f 27/1/9 34/1/10 35/1/4
f 26/1/2 33/1/3 56/1/3
f 25/1/2 32/1/3 33/1/3
f 24/1/2 31/1/3 32/1/3
f 23/1/2 30/1/3 31/1/3
f 22/1/2 29/1/3 30/1/3
f 21/1/2 28/1/3 29/1/3
f 20/1/8 27/1/9 28/1/3
f 13/1/1 26/1/2 55/1/2
f 14/1/1 25/1/2 26/1/2
f 15/1/1 24/1/2 25/1/2
f 16/1/1 23/1/2 24/1/2
f 17/1/1 22/1/2 23/1/2
f 18/1/1 21/1/2 22/1/2
f 19/1/7 20/1/8 21/1/2
f 60/1/1 55/1/2 3/1/2
f 55/1/2 56/1/3 5/1/3
f 56/1/3 57/1/4 7/1/4
f 57/1/4 58/1/5 9/1/5
f 58/1/5 59/1/6 11/1/6
f 11/1/6 59/1/6 60/1/1
f 66/1/18 61/1/13 19/1/7
f 65/1/17 66/1/18 48/1/12
f 34/1/10 64/1/16 65/1/17
f 63/1/15 64/1/16 34/1/10
f 62/1/14 63/1/15 27/1/9
f 19/1/7 61/1/13 62/1/14
usemtl Leaves0151_1_M
f 76/2/28 79/3/31 85/4/37
f 68/5/20 81/6/33 78/7/30
f 74/8/26 83/9/35 81/6/33
f 75/10/27 85/4/37 83/9/35
f 72/11/24 86/12/38 71/13/23
f 83/9/35 86/12/38 84/14/36
f 82/15/34 72/11/24 73/16/25
f 81/6/33 84/14/36 82/15/34
f 77/17/29 73/16/25 67/1/19
f 78/7/30 82/15/34 77/17/29
f 71/13/23 80/18/32 69/19/21
f 85/4/37 80/18/32 86/12/38
f 96/2/48 99/3/51 105/4/57
f 88/5/40 101/6/53 98/7/50
f 94/8/46 103/9/55 101/6/53
f 95/10/47 105/4/57 103/9/55
f 92/11/44 106/12/58 91/13/43
f 103/9/55 106/12/58 104/14/56
f 102/15/54 92/11/44 93/16/45
f 101/6/53 104/14/56 102/15/54
f 97/17/49 93/16/45 87/1/39
f 98/7/50 102/15/54 97/17/49
f 91/13/43 100/18/52 89/19/41
f 105/4/57 100/18/52 106/12/58
f 116/2/68 119/3/71 125/4/77
f 108/5/60 121/6/73 118/7/70
f 114/8/66 123/9/75 121/6/73
f 115/10/67 125/4/77 123/9/75
f 112/11/64 126/12/78 111/13/63
f 123/9/75 126/12/78 124/14/76
f 122/15/74 112/11/64 113/16/65
f 121/6/73 124/14/76 122/15/74
f 117/17/69 113/16/65 107/1/59
f 118/7/70 122/15/74 117/17/69
f 111/13/63 120/18/72 109/19/61
f 125/4/77 120/18/72 126/12/78
f 136/2/88 139/3/91 145/4/97
f 128/5/80 141/6/93 138/7/90
f 134/8/86 143/9/95 141/6/93
f 135/10/87 145/4/97 143/9/95
f 132/11/84 146/12/98 131/13/83
f 143/9/95 146/12/98 144/14/96
f 142/15/94 132/11/84 133/16/85
f 141/6/93 144/14/96 142/15/94
f 137/17/89 133/16/85 127/1/79
f 138/7/90 142/15/94 137/17/89
f 131/13/83 140/18/92 129/19/81
f 145/4/97 140/18/92 146/12/98
f 156/2/48 159/3/51 165/4/57
f 148/5/40 161/6/53 158/7/50
f 154/8/99 163/9/55 161/6/53
f 155/10/47 165/4/57 163/9/55
f 152/11/44 166/12/58 151/13/43
f 163/9/55 166/12/58 164/14/56
f 162/15/54 152/11/44 153/16/45
f 161/6/53 164/14/56 162/15/54
f 157/17/49 153/16/45 147/1/39
f 158/7/50 162/15/54 157/17/49
f 151/13/43 160/18/52 149/19/41
f 165/4/57 160/18/52 166/12/58
f 176/2/109 179/3/112 185/4/118
f 168/5/101 181/6/114 178/7/111
f 174/8/107 183/9/116 181/6/114
f 175/10/108 185/4/118 183/9/116
f 172/11/105 186/12/119 171/13/104
f 183/9/116 186/12/119 184/14/117
f 182/15/115 172/11/105 173/16/106
f 181/6/114 184/14/117 182/15/115
f 177/17/110 173/16/106 167/1/100
f 178/7/111 182/15/115 177/17/110
f 171/13/104 180/18/113 169/19/102
f 185/4/118 180/18/113 186/12/119
f 196/2/129 199/3/132 205/4/138
f 188/5/121 201/6/134 198/7/131
f 194/8/127 203/9/136 201/6/134
f 195/10/128 205/4/138 203/9/136
f 192/11/125 206/12/139 191/13/124
f 203/9/136 206/12/139 204/14/137
f 202/15/135 192/11/125 193/16/126
f 201/6/134 204/14/137 202/15/135
f 197/17/130 193/16/126 187/1/120
f 198/7/131 202/15/135 197/17/130
f 191/13/124 200/18/133 189/19/122
f 205/4/138 200/18/133 206/12/139
f 216/2/149 219/3/152 225/4/158
f 208/5/141 221/6/154 218/7/151
f 214/8/147 223/9/156 221/6/154
f 215/10/148 225/4/158 223/9/156
f 212/11/145 226/12/159 211/13/144
f 223/9/156 226/12/159 224/14/157
f 222/15/155 212/11/145 213/16/146
f 221/6/154 224/14/157 222/15/155
f 217/17/150 213/16/146 207/1/140
f 218/7/151 222/15/155 217/17/150
f 211/13/144 220/18/153 209/19/142
f 225/4/158 220/18/153 226/12/159
f 236/2/169 239/3/172 245/4/178
f 228/5/161 241/6/174 238/7/171
f 234/8/167 243/9/176 241/6/174
f 235/10/168 245/4/178 243/9/176
f 232/11/165 246/12/179 231/13/164
f 243/9/176 246/12/179 244/14/177
f 242/15/175 232/11/165 233/16/166
f 241/6/174 244/14/177 242/15/175
f 237/17/170 233/16/166 227/1/160
f 238/7/171 242/15/175 237/17/170
f 231/13/164 240/18/173 229/19/162
f 245/4/178 240/18/173 246/12/179
f 256/2/189 259/3/192 265/4/198
f 248/5/181 261/6/194 258/7/191
f 254/8/187 263/9/196 261/6/194
f 255/10/188 265/4/198 263/9/196
f 252/11/185 266/12/199 251/13/184
f 263/9/196 266/12/199 264/14/197
f 262/15/195 252/11/185 253/16/186
f 261/6/194 264/14/197 262/15/195
f 257/17/190 253/16/186 247/1/180
f 258/7/191 262/15/195 257/17/190
f 251/13/184 260/18/193 249/19/182
f 266/12/199 259/3/192 260/18/193
f 276/2/149 279/3/152 285/4/158
f 268/5/141 281/6/154 278/7/151
f 274/8/147 283/9/156 281/6/154
f 275/10/148 285/4/158 283/9/156
f 272/11/145 286/12/159 271/13/144
f 284/14/157 285/4/158 286/12/159
f 282/15/155 272/11/145 273/16/146
f 281/6/154 284/14/157 282/15/155
f 277/17/150 273/16/146 267/1/140
f 278/7/151 282/15/155 277/17/150
f 271/13/144 280/18/153 269/19/142
f 285/4/158 280/18/153 286/12/159
f 296/2/169 299/3/172 305/4/200
f 288/5/161 301/6/174 298/7/171
f 294/8/167 303/9/176 301/6/174
f 295/10/168 305/4/200 303/9/176
f 292/11/165 306/12/179 291/13/164
f 304/14/177 305/4/200 306/12/179
f 302/15/175 292/11/165 293/16/166
f 301/6/174 304/14/177 302/15/175
f 297/17/170 293/16/166 287/1/160
f 298/7/171 302/15/175 297/17/170
f 291/13/164 300/18/173 289/19/162
f 305/4/200 300/18/173 306/12/179
f 316/2/129 319/3/132 325/4/138
f 308/5/121 321/6/134 318/7/131
f 314/8/127 323/9/136 321/6/134
f 315/10/128 325/4/138 323/9/136
f 312/11/125 326/12/139 311/13/124
f 323/9/136 326/12/139 324/14/137
f 322/15/135 312/11/125 313/16/126
f 321/6/134 324/14/137 322/15/135
f 317/17/130 313/16/126 307/1/120
f 318/7/131 322/15/135 317/17/130
f 311/13/124 320/18/133 309/19/122
f 326/12/139 319/3/132 320/18/133
f 336/2/210 339/3/213 345/4/219
f 328/5/202 341/6/215 338/7/212
f 334/8/208 343/9/217 341/6/215
f 335/10/209 345/4/219 343/9/217
f 332/11/206 346/12/220 331/13/205
f 344/14/218 345/4/219 346/12/220
f 342/15/216 332/11/206 333/16/207
f 341/6/215 344/14/218 342/15/216
f 337/17/211 333/16/207 327/1/201
f 338/7/212 342/15/216 337/17/211
f 331/13/205 340/18/214 329/19/203
f 346/12/220 339/3/213 340/18/214
f 356/2/230 359/3/233 365/4/239
f 348/5/222 361/6/235 358/7/232
f 354/8/228 363/9/237 361/6/235
f 355/10/229 365/4/239 363/9/237
f 352/11/226 366/12/240 351/13/225
f 363/9/237 366/12/240 364/14/238
f 362/15/236 352/11/226 353/16/227
f 361/6/235 364/14/238 362/15/236
f 357/17/231 353/16/227 347/1/221
f 358/7/232 362/15/236 357/17/231
f 351/13/225 360/18/234 349/19/223
f 366/12/240 359/3/233 360/18/234
f 376/2/250 379/3/253 385/4/259
f 368/5/242 381/6/255 378/7/252
f 374/8/248 383/9/257 381/6/255
f 375/10/249 385/4/259 383/9/257
f 372/11/246 386/12/260 371/13/245
f 383/9/257 386/12/260 384/14/258
f 382/15/256 372/11/246 373/16/247
f 381/6/255 384/14/258 382/15/256
f 377/17/251 373/16/247 367/1/241
f 378/7/252 382/15/256 377/17/251
f 371/13/245 380/18/254 369/19/243
f 385/4/259 380/18/254 386/12/260
f 396/2/210 399/3/213 405/4/219
f 388/5/202 401/6/215 398/7/212
f 394/8/208 403/9/217 401/6/215
f 395/10/209 405/4/219 403/9/217
f 392/11/206 406/12/220 391/13/205
f 403/9/217 406/12/220 404/14/218
f 402/15/216 392/11/206 393/16/207
f 401/6/215 404/14/218 402/15/216
f 397/17/211 393/16/207 387/1/201
f 398/7/212 402/15/216 397/17/211
f 391/13/205 400/18/214 389/19/203
f 405/4/219 400/18/214 406/12/220
f 416/2/270 419/3/273 425/4/279
f 408/5/262 421/6/275 418/7/272
f 414/8/268 423/9/277 421/6/275
f 415/10/269 425/4/279 423/9/277
f 412/11/266 426/12/280 411/13/265
f 423/9/277 426/12/280 424/14/278
f 422/15/276 412/11/266 413/16/267
f 421/6/275 424/14/278 422/15/276
f 417/17/271 413/16/267 407/1/261
f 418/7/272 422/15/276 417/17/271
f 411/13/265 420/18/274 409/19/263
f 425/4/279 420/18/274 426/12/280
f 436/2/250 439/3/253 445/4/259
f 428/5/242 441/6/255 438/7/252
f 434/8/248 443/9/257 441/6/255
f 435/10/249 445/4/259 443/9/257
f 432/11/246 446/12/260 431/13/245
f 443/9/257 446/12/260 444/14/258
f 442/15/256 432/11/246 433/16/247
f 441/6/255 444/14/258 442/15/256
f 437/17/251 433/16/247 427/1/241
f 438/7/252 442/15/256 437/17/251
f 431/13/245 440/18/254 429/19/243
f 446/12/260 439/3/253 440/18/254
f 456/2/210 459/3/213 465/4/219
f 448/5/202 461/6/215 458/7/212
f 454/8/208 463/9/217 461/6/215
f 455/10/209 465/4/219 463/9/217
f 452/11/206 466/12/220 451/13/205
f 463/9/217 466/12/220 464/14/218
f 462/15/216 452/11/206 453/16/207
f 461/6/215 464/14/218 462/15/216
f 457/17/211 453/16/207 447/1/201
f 458/7/212 462/15/216 457/17/211
f 451/13/205 460/18/214 449/19/203
f 465/4/219 460/18/214 466/12/220
f 476/2/290 479/3/293 485/4/299
f 468/5/282 481/6/295 478/7/292
f 474/8/288 483/9/297 481/6/295
f 475/10/289 485/4/299 483/9/297
f 472/11/286 486/12/300 471/13/285
f 484/14/298 485/4/299 486/12/300
f 482/15/296 472/11/286 473/16/287
f 481/6/295 484/14/298 482/15/296
f 477/17/291 473/16/287 467/1/281
f 478/7/292 482/15/296 477/17/291
f 471/13/285 480/18/294 469/19/283
f 485/4/299 480/18/294 486/12/300
f 496/2/310 499/3/313 505/4/319
f 488/5/302 501/6/315 498/7/312
f 494/8/308 503/9/317 501/6/315
f 495/10/309 505/4/319 503/9/317
f 492/11/306 506/12/320 491/13/305
f 503/9/317 506/12/320 504/14/318
f 502/15/316 492/11/306 493/16/307
f 501/6/315 504/14/318 502/15/316
f 497/17/311 493/16/307 487/1/301
f 498/7/312 502/15/316 497/17/311
f 491/13/305 500/18/314 489/19/303
f 505/4/319 500/18/314 506/12/320
f 516/2/330 519/3/333 525/4/339
f 508/5/322 521/6/335 518/7/332
f 514/8/328 523/9/337 521/6/335
f 515/10/329 525/4/339 523/9/337
f 512/11/326 526/12/340 511/13/325
f 523/9/337 526/12/340 524/14/338
f 522/15/336 512/11/326 513/16/327
f 521/6/335 524/14/338 522/15/336
f 517/17/331 513/16/327 507/1/321
f 518/7/332 522/15/336 517/17/331
f 511/13/325 520/18/334 509/19/323
f 525/4/339 520/18/334 526/12/340
f 536/2/290 539/3/293 545/4/299
f 528/5/282 541/6/295 538/7/292
f 534/8/288 543/9/297 541/6/295
f 535/10/289 545/4/299 543/9/297
f 532/11/286 546/12/300 531/13/285
f 543/9/297 546/12/300 544/14/298
f 542/15/296 532/11/286 533/16/287
f 541/6/295 544/14/298 542/15/296
f 537/17/291 533/16/287 527/1/281
f 538/7/292 542/15/296 537/17/291
f 531/13/285 540/18/294 529/19/283
f 545/4/299 540/18/294 546/12/300
f 556/2/350 559/3/353 565/4/359
f 548/5/342 561/6/355 558/7/352
f 554/8/348 563/9/357 561/6/355
f 555/10/349 565/4/359 563/9/357
f 552/11/346 566/12/360 551/13/345
f 564/14/358 565/4/359 566/12/360
f 562/15/356 552/11/346 553/16/347
f 561/6/355 564/14/358 562/15/356
f 557/17/351 553/16/347 547/1/341
f 558/7/352 562/15/356 557/17/351
f 551/13/345 560/18/354 549/19/343
f 565/4/359 560/18/354 566/12/360
f 576/2/370 579/3/373 585/4/379
f 568/5/362 581/6/375 578/7/372
f 574/8/368 583/9/377 581/6/375
f 575/10/369 585/4/379 583/9/377
f 572/11/366 586/12/380 571/13/365
f 583/9/377 586/12/380 584/14/378
f 582/15/376 572/11/366 573/16/367
f 581/6/375 584/14/378 582/15/376
f 577/17/371 573/16/367 567/1/361
f 578/7/372 582/15/376 577/17/371
f 571/13/365 580/18/374 569/19/363
f 586/12/380 579/3/373 580/18/374
f 596/2/390 599/3/393 605/4/399
f 588/5/382 601/6/395 598/7/392
f 594/8/388 603/9/397 601/6/395
f 595/10/389 605/4/399 603/9/397
f 592/11/386 606/12/400 591/13/385
f 603/9/397 606/12/400 604/14/398
f 602/15/396 592/11/386 593/16/387
f 601/6/395 604/14/398 602/15/396
f 597/17/391 593/16/387 587/1/381
f 598/7/392 602/15/396 597/17/391
f 591/13/385 600/18/394 589/19/383
f 605/4/399 600/18/394 606/12/400
f 616/2/410 619/3/413 625/4/419
f 608/5/402 621/6/415 618/7/412
f 614/8/408 623/9/417 621/6/415
f 615/10/409 625/4/419 623/9/417
f 612/11/406 626/12/420 611/13/405
f 623/9/417 626/12/420 624/14/418
f 622/15/416 612/11/406 613/16/407
f 621/6/415 624/14/418 622/15/416
f 617/17/411 613/16/407 607/1/401
f 618/7/412 622/15/416 617/17/411
f 611/13/405 620/18/414 609/19/403
f 625/4/419 620/18/414 626/12/420
f 636/2/370 639/3/373 645/4/421
f 628/5/362 641/6/375 638/7/372
f 634/8/368 643/9/377 641/6/375
f 635/10/369 645/4/421 643/9/377
f 632/11/366 646/12/380 631/13/365
f 643/9/377 646/12/380 644/14/378
f 642/15/376 632/11/366 633/16/367
f 641/6/375 644/14/378 642/15/376
f 637/17/371 633/16/367 627/1/361
f 638/7/372 642/15/376 637/17/371
f 631/13/365 640/18/374 629/19/363
f 645/4/421 640/18/374 646/12/380
f 656/2/431 659/3/434 665/4/440
f 648/5/423 661/6/436 658/7/433
f 654/8/429 663/9/438 661/6/436
f 655/10/430 665/4/440 663/9/438
f 652/11/427 666/12/441 651/13/426
f 664/14/439 665/4/440 666/12/441
f 662/15/437 652/11/427 653/16/428
f 661/6/436 664/14/439 662/15/437
f 657/17/432 653/16/428 647/1/422
f 658/7/433 662/15/437 657/17/432
f 651/13/426 660/18/435 649/19/424
f 665/4/440 660/18/435 666/12/441
f 676/2/451 679/3/454 685/4/460
f 668/5/443 681/6/456 678/7/453
f 674/8/449 683/9/458 681/6/456
f 675/10/450 685/4/460 683/9/458
f 672/11/447 686/12/461 671/13/446
f 683/9/458 686/12/461 684/14/459
f 682/15/457 672/11/447 673/16/448
f 681/6/456 684/14/459 682/15/457
f 677/17/452 673/16/448 667/1/442
f 678/7/453 682/15/457 677/17/452
f 671/13/446 680/18/455 669/19/444
f 685/4/460 680/18/455 686/12/461
f 696/2/471 699/3/474 705/4/480
f 688/5/463 701/6/476 698/7/473
f 694/8/469 703/9/478 701/6/476
f 695/10/470 705/4/480 703/9/478
f 692/11/467 706/12/481 691/13/466
f 703/9/478 706/12/481 704/14/479
f 702/15/477 692/11/467 693/16/468
f 701/6/476 704/14/479 702/15/477
f 697/17/472 693/16/468 687/1/462
f 698/7/473 702/15/477 697/17/472
f 691/13/466 700/18/475 689/19/464
f 705/4/480 700/18/475 706/12/481
f 76/2/28 70/28/22 79/3/31
f 68/5/20 74/8/26 81/6/33
f 74/8/26 75/10/27 83/9/35
f 75/10/27 76/2/28 85/4/37
f 72/11/24 84/14/36 86/12/38
f 83/9/35 85/4/37 86/12/38
f 82/15/34 84/14/36 72/11/24
f 81/6/33 83/9/35 84/14/36
f 77/17/29 82/15/34 73/16/25
f 78/7/30 81/6/33 82/15/34
f 71/13/23 86/12/38 80/18/32
f 85/4/37 79/3/31 80/18/32
f 96/2/48 90/28/42 99/3/51
f 88/5/40 94/8/46 101/6/53
f 94/8/46 95/10/47 103/9/55
f 95/10/47 96/2/48 105/4/57
f 92/11/44 104/14/56 106/12/58
f 103/9/55 105/4/57 106/12/58
f 102/15/54 104/14/56 92/11/44
f 101/6/53 103/9/55 104/14/56
f 97/17/49 102/15/54 93/16/45
f 98/7/50 101/6/53 102/15/54
f 91/13/43 106/12/58 100/18/52
f 105/4/57 99/3/51 100/18/52
f 116/2/68 110/28/62 119/3/71
f 108/5/60 114/8/66 121/6/73
f 114/8/66 115/10/67 123/9/75
f 115/10/67 116/2/68 125/4/77
f 112/11/64 124/14/76 126/12/78
f 123/9/75 125/4/77 126/12/78
f 122/15/74 124/14/76 112/11/64
f 121/6/73 123/9/75 124/14/76
f 117/17/69 122/15/74 113/16/65
f 118/7/70 121/6/73 122/15/74
f 111/13/63 126/12/78 120/18/72
f 125/4/77 119/3/71 120/18/72
f 136/2/88 130/28/82 139/3/91
f 128/5/80 134/8/86 141/6/93
f 134/8/86 135/10/87 143/9/95
f 135/10/87 136/2/88 145/4/97
f 132/11/84 144/14/96 146/12/98
f 143/9/95 145/4/97 146/12/98
f 142/15/94 144/14/96 132/11/84
f 141/6/93 143/9/95 144/14/96
f 137/17/89 142/15/94 133/16/85
f 138/7/90 141/6/93 142/15/94
f 131/13/83 146/12/98 140/18/92
f 145/4/97 139/3/91 140/18/92
f 156/2/48 150/28/42 159/3/51
f 148/5/40 154/8/99 161/6/53
f 154/8/99 155/10/47 163/9/55
f 155/10/47 156/2/48 165/4/57
f 152/11/44 164/14/56 166/12/58
f 163/9/55 165/4/57 166/12/58
f 162/15/54 164/14/56 152/11/44
f 161/6/53 163/9/55 164/14/56
f 157/17/49 162/15/54 153/16/45
f 158/7/50 161/6/53 162/15/54
f 151/13/43 166/12/58 160/18/52
f 165/4/57 159/3/51 160/18/52
f 176/2/109 170/28/103 179/3/112
f 168/5/101 174/8/107 181/6/114
f 174/8/107 175/10/108 183/9/116
f 175/10/108 176/2/109 185/4/118
f 172/11/105 184/14/117 186/12/119
f 183/9/116 185/4/118 186/12/119
f 182/15/115 184/14/117 172/11/105
f 181/6/114 183/9/116 184/14/117
f 177/17/110 182/15/115 173/16/106
f 178/7/111 181/6/114 182/15/115
f 171/13/104 186/12/119 180/18/113
f 185/4/118 179/3/112 180/18/113
f 196/2/129 190/28/123 199/3/132
f 188/5/121 194/8/127 201/6/134
f 194/8/127 195/10/128 203/9/136
f 195/10/128 196/2/129 205/4/138
f 192/11/125 204/14/137 206/12/139
f 203/9/136 205/4/138 206/12/139
f 202/15/135 204/14/137 192/11/125
f 201/6/134 203/9/136 204/14/137
f 197/17/130 202/15/135 193/16/126
f 198/7/131 201/6/134 202/15/135
f 191/13/124 206/12/139 200/18/133
f 205/4/138 199/3/132 200/18/133
f 216/2/149 210/28/143 219/3/152
f 208/5/141 214/8/147 221/6/154
f 214/8/147 215/10/148 223/9/156
f 215/10/148 216/2/149 225/4/158
f 212/11/145 224/14/157 226/12/159
f 223/9/156 225/4/158 226/12/159
f 222/15/155 224/14/157 212/11/145
f 221/6/154 223/9/156 224/14/157
f 217/17/150 222/15/155 213/16/146
f 218/7/151 221/6/154 222/15/155
f 211/13/144 226/12/159 220/18/153
f 225/4/158 219/3/152 220/18/153
f 236/2/169 230/28/163 239/3/172
f 228/5/161 234/8/167 241/6/174
f 234/8/167 235/10/168 243/9/176
f 235/10/168 236/2/169 245/4/178
f 232/11/165 244/14/177 246/12/179
f 243/9/176 245/4/178 246/12/179
f 242/15/175 244/14/177 232/11/165
f 241/6/174 243/9/176 244/14/177
f 237/17/170 242/15/175 233/16/166
f 238/7/171 241/6/174 242/15/175
f 231/13/164 246/12/179 240/18/173
f 245/4/178 239/3/172 240/18/173
f 256/2/189 250/28/183 259/3/192
f 248/5/181 254/8/187 261/6/194
f 254/8/187 255/10/188 263/9/196
f 255/10/188 256/2/189 265/4/198
f 252/11/185 264/14/197 266/12/199
f 263/9/196 265/4/198 266/12/199
f 262/15/195 264/14/197 252/11/185
f 261/6/194 263/9/196 264/14/197
f 257/17/190 262/15/195 253/16/186
f 258/7/191 261/6/194 262/15/195
f 251/13/184 266/12/199 260/18/193
f 266/12/199 265/4/198 259/3/192
f 276/2/149 270/28/143 279/3/152
f 268/5/141 274/8/147 281/6/154
f 274/8/147 275/10/148 283/9/156
f 275/10/148 276/2/149 285/4/158
f 272/11/145 284/14/157 286/12/159
f 284/14/157 283/9/156 285/4/158
f 282/15/155 284/14/157 272/11/145
f 281/6/154 283/9/156 284/14/157
f 277/17/150 282/15/155 273/16/146
f 278/7/151 281/6/154 282/15/155
f 271/13/144 286/12/159 280/18/153
f 285/4/158 279/3/152 280/18/153
f 296/2/169 290/28/163 299/3/172
f 288/5/161 294/8/167 301/6/174
f 294/8/167 295/10/168 303/9/176
f 295/10/168 296/2/169 305/4/200
f 292/11/165 304/14/177 306/12/179
f 304/14/177 303/9/176 305/4/200
f 302/15/175 304/14/177 292/11/165
f 301/6/174 303/9/176 304/14/177
f 297/17/170 302/15/175 293/16/166
f 298/7/171 301/6/174 302/15/175
f 291/13/164 306/12/179 300/18/173
f 305/4/200 299/3/172 300/18/173
f 316/2/129 310/28/123 319/3/132
f 308/5/121 314/8/127 321/6/134
f 314/8/127 315/10/128 323/9/136
f 315/10/128 316/2/129 325/4/138
f 312/11/125 324/14/137 326/12/139
f 323/9/136 325/4/138 326/12/139
f 322/15/135 324/14/137 312/11/125
f 321/6/134 323/9/136 324/14/137
f 317/17/130 322/15/135 313/16/126
f 318/7/131 321/6/134 322/15/135
f 311/13/124 326/12/139 320/18/133
f 326/12/139 325/4/138 319/3/132
f 336/2/210 330/28/204 339/3/213
f 328/5/202 334/8/208 341/6/215
f 334/8/208 335/10/209 343/9/217
f 335/10/209 336/2/210 345/4/219
f 332/11/206 344/14/218 346/12/220
f 344/14/218 343/9/217 345/4/219
f 342/15/216 344/14/218 332/11/206
f 341/6/215 343/9/217 344/14/218
f 337/17/211 342/15/216 333/16/207
f 338/7/212 341/6/215 342/15/216
f 331/13/205 346/12/220 340/18/214
f 346/12/220 345/4/219 339/3/213
f 356/2/230 350/28/224 359/3/233
f 348/5/222 354/8/228 361/6/235
f 354/8/228 355/10/229 363/9/237
f 355/10/229 356/2/230 365/4/239
f 352/11/226 364/14/238 366/12/240
f 363/9/237 365/4/239 366/12/240
f 362/15/236 364/14/238 352/11/226
f 361/6/235 363/9/237 364/14/238
f 357/17/231 362/15/236 353/16/227
f 358/7/232 361/6/235 362/15/236
f 351/13/225 366/12/240 360/18/234
f 366/12/240 365/4/239 359/3/233
f 376/2/250 370/28/244 379/3/253
f 368/5/242 374/8/248 381/6/255
f 374/8/248 375/10/249 383/9/257
f 375/10/249 376/2/250 385/4/259
f 372/11/246 384/14/258 386/12/260
f 383/9/257 385/4/259 386/12/260
f 382/15/256 384/14/258 372/11/246
f 381/6/255 383/9/257 384/14/258
f 377/17/251 382/15/256 373/16/247
f 378/7/252 381/6/255 382/15/256
f 371/13/245 386/12/260 380/18/254
f 385/4/259 379/3/253 380/18/254
f 396/2/210 390/28/204 399/3/213
f 388/5/202 394/8/208 401/6/215
f 394/8/208 395/10/209 403/9/217
f 395/10/209 396/2/210 405/4/219
f 392/11/206 404/14/218 406/12/220
f 403/9/217 405/4/219 406/12/220
f 402/15/216 404/14/218 392/11/206
f 401/6/215 403/9/217 404/14/218
f 397/17/211 402/15/216 393/16/207
f 398/7/212 401/6/215 402/15/216
f 391/13/205 406/12/220 400/18/214
f 405/4/219 399/3/213 400/18/214
f 416/2/270 410/28/264 419/3/273
f 408/5/262 414/8/268 421/6/275
f 414/8/268 415/10/269 423/9/277
f 415/10/269 416/2/270 425/4/279
f 412/11/266 424/14/278 426/12/280
f 423/9/277 425/4/279 426/12/280
f 422/15/276 424/14/278 412/11/266
f 421/6/275 423/9/277 424/14/278
f 417/17/271 422/15/276 413/16/267
f 418/7/272 421/6/275 422/15/276
f 411/13/265 426/12/280 420/18/274
f 425/4/279 419/3/273 420/18/274
f 436/2/250 430/28/244 439/3/253
f 428/5/242 434/8/248 441/6/255
f 434/8/248 435/10/249 443/9/257
f 435/10/249 436/2/250 445/4/259
f 432/11/246 444/14/258 446/12/260
f 443/9/257 445/4/259 446/12/260
f 442/15/256 444/14/258 432/11/246
f 441/6/255 443/9/257 444/14/258
f 437/17/251 442/15/256 433/16/247
f 438/7/252 441/6/255 442/15/256
f 431/13/245 446/12/260 440/18/254
f 446/12/260 445/4/259 439/3/253
f 456/2/210 450/28/204 459/3/213
f 448/5/202 454/8/208 461/6/215
f 454/8/208 455/10/209 463/9/217
f 455/10/209 456/2/210 465/4/219
f 452/11/206 464/14/218 466/12/220
f 463/9/217 465/4/219 466/12/220
f 462/15/216 464/14/218 452/11/206
f 461/6/215 463/9/217 464/14/218
f 457/17/211 462/15/216 453/16/207
f 458/7/212 461/6/215 462/15/216
f 451/13/205 466/12/220 460/18/214
f 465/4/219 459/3/213 460/18/214
f 476/2/290 470/28/284 479/3/293
f 468/5/282 474/8/288 481/6/295
f 474/8/288 475/10/289 483/9/297
f 475/10/289 476/2/290 485/4/299
f 472/11/286 484/14/298 486/12/300
f 484/14/298 483/9/297 485/4/299
f 482/15/296 484/14/298 472/11/286
f 481/6/295 483/9/297 484/14/298
f 477/17/291 482/15/296 473/16/287
f 478/7/292 481/6/295 482/15/296
f 471/13/285 486/12/300 480/18/294
f 485/4/299 479/3/293 480/18/294
f 496/2/310 490/28/304 499/3/313
f 488/5/302 494/8/308 501/6/315
f 494/8/308 495/10/309 503/9/317
f 495/10/309 496/2/310 505/4/319
f 492/11/306 504/14/318 506/12/320
f 503/9/317 505/4/319 506/12/320
f 502/15/316 504/14/318 492/11/306
f 501/6/315 503/9/317 504/14/318
f 497/17/311 502/15/316 493/16/307
f 498/7/312 501/6/315 502/15/316
f 491/13/305 506/12/320 500/18/314
f 505/4/319 499/3/313 500/18/314
f 516/2/330 510/28/324 519/3/333
f 508/5/322 514/8/328 521/6/335
f 514/8/328 515/10/329 523/9/337
f 515/10/329 516/2/330 525/4/339
f 512/11/326 524/14/338 526/12/340
f 523/9/337 525/4/339 526/12/340
f 522/15/336 524/14/338 512/11/326
f 521/6/335 523/9/337 524/14/338
f 517/17/331 522/15/336 513/16/327
f 518/7/332 521/6/335 522/15/336
f 511/13/325 526/12/340 520/18/334
f 525/4/339 519/3/333 520/18/334
f 536/2/290 530/28/284 539/3/293
f 528/5/282 534/8/288 541/6/295
f 534/8/288 535/10/289 543/9/297
f 535/10/289 536/2/290 545/4/299
f 532/11/286 544/14/298 546/12/300
f 543/9/297 545/4/299 546/12/300
f 542/15/296 544/14/298 532/11/286
f 541/6/295 543/9/297 544/14/298
f 537/17/291 542/15/296 533/16/287
f 538/7/292 541/6/295 542/15/296
f 531/13/285 546/12/300 540/18/294
f 545/4/299 539/3/293 540/18/294
f 556/2/350 550/28/344 559/3/353
f 548/5/342 554/8/348 561/6/355
f 554/8/348 555/10/349 563/9/357
f 555/10/349 556/2/350 565/4/359
f 552/11/346 564/14/358 566/12/360
f 564/14/358 563/9/357 565/4/359
f 562/15/356 564/14/358 552/11/346
f 561/6/355 563/9/357 564/14/358
f 557/17/351 562/15/356 553/16/347
f 558/7/352 561/6/355 562/15/356
f 551/13/345 566/12/360 560/18/354
f 565/4/359 559/3/353 560/18/354
f 576/2/370 570/28/364 579/3/373
f 568/5/362 574/8/368 581/6/375
f 574/8/368 575/10/369 583/9/377
f 575/10/369 576/2/370 585/4/379
f 572/11/366 584/14/378 586/12/380
f 583/9/377 585/4/379 586/12/380
f 582/15/376 584/14/378 572/11/366
f 581/6/375 583/9/377 584/14/378
f 577/17/371 582/15/376 573/16/367
f 578/7/372 581/6/375 582/15/376
f 571/13/365 586/12/380 580/18/374
f 586/12/380 585/4/379 579/3/373
f 596/2/390 590/28/384 599/3/393
f 588/5/382 594/8/388 601/6/395
f 594/8/388 595/10/389 603/9/397
f 595/10/389 596/2/390 605/4/399
f 592/11/386 604/14/398 606/12/400
f 603/9/397 605/4/399 606/12/400
f 602/15/396 604/14/398 592/11/386
f 601/6/395 603/9/397 604/14/398
f 597/17/391 602/15/396 593/16/387
f 598/7/392 601/6/395 602/15/396
f 591/13/385 606/12/400 600/18/394
f 605/4/399 599/3/393 600/18/394
f 616/2/410 610/28/404 619/3/413
f 608/5/402 614/8/408 621/6/415
f 614/8/408 615/10/409 623/9/417
f 615/10/409 616/2/410 625/4/419
f 612/11/406 624/14/418 626/12/420
f 623/9/417 625/4/419 626/12/420
f 622/15/416 624/14/418 612/11/406
f 621/6/415 623/9/417 624/14/418
f 617/17/411 622/15/416 613/16/407
f 618/7/412 621/6/415 622/15/416
f 611/13/405 626/12/420 620/18/414
f 625/4/419 619/3/413 620/18/414
f 636/2/370 630/28/364 639/3/373
f 628/5/362 634/8/368 641/6/375
f 634/8/368 635/10/369 643/9/377
f 635/10/369 636/2/370 645/4/421
f 632/11/366 644/14/378 646/12/380
f 643/9/377 645/4/421 646/12/380
f 642/15/376 644/14/378 632/11/366
f 641/6/375 643/9/377 644/14/378
f 637/17/371 642/15/376 633/16/367
f 638/7/372 641/6/375 642/15/376
f 631/13/365 646/12/380 640/18/374
f 645/4/421 639/3/373 640/18/374
f 656/2/431 650/28/425 659/3/434
f 648/5/423 654/8/429 661/6/436
f 654/8/429 655/10/430 663/9/438
f 655/10/430 656/2/431 665/4/440
f 652/11/427 664/14/439 666/12/441
f 664/14/439 663/9/438 665/4/440
f 662/15/437 664/14/439 652/11/427
f 661/6/436 663/9/438 664/14/439
f 657/17/432 662/15/437 653/16/428
f 658/7/433 661/6/436 662/15/437
f 651/13/426 666/12/441 660/18/435
f 665/4/440 659/3/434 660/18/435
f 676/2/451 670/28/445 679/3/454
f 668/5/443 674/8/449 681/6/456
f 674/8/449 675/10/450 683/9/458
f 675/10/450 676/2/451 685/4/460
f 672/11/447 684/14/459 686/12/461
f 683/9/458 685/4/460 686/12/461
f 682/15/457 684/14/459 672/11/447
f 681/6/456 683/9/458 684/14/459
f 677/17/452 682/15/457 673/16/448
f 678/7/453 681/6/456 682/15/457
f 671/13/446 686/12/461 680/18/455
f 685/4/460 679/3/454 680/18/455
f 696/2/471 690/28/465 699/3/474
f 688/5/463 694/8/469 701/6/476
f 694/8/469 695/10/470 703/9/478
f 695/10/470 696/2/471 705/4/480
f 692/11/467 704/14/479 706/12/481
f 703/9/478 705/4/480 706/12/481
f 702/15/477 704/14/479 692/11/467
f 701/6/476 703/9/478 704/14/479
f 697/17/472 702/15/477 693/16/468
f 698/7/473 701/6/476 702/15/477
f 691/13/466 706/12/481 700/18/475
f 705/4/480 699/3/474 700/18/475
usemtl Flowers0006_5_M
f 718/20/490 713/3/485 722/21/494
f 715/22/487 714/18/486 709/19/482
f 722/21/494 714/18/486 720/23/492
f 711/17/483 721/24/493 719/25/491
f 721/24/493 720/23/492 719/25/491
f 711/17/483 716/26/488 707/1/482
f 719/25/491 715/22/487 716/26/488
f 712/7/484 717/27/489 721/24/493
f 717/27/489 722/21/494 721/24/493
f 718/20/490 710/28/482 713/3/485
f 715/22/487 720/23/492 714/18/486
f 722/21/494 713/3/485 714/18/486
f 711/17/483 712/7/484 721/24/493
f 721/24/493 722/21/494 720/23/492
f 711/17/483 719/25/491 716/26/488
f 719/25/491 720/23/492 715/22/487
f 712/7/484 708/5/482 717/27/489
f 717/27/489 718/20/490 722/21/494
usemtl Flowers0006_5_M2
f 734/20/502 729/3/497 738/21/506
f 731/22/499 730/18/498 725/19/482
f 738/21/506 730/18/498 736/23/504
f 728/7/496 735/25/503 727/17/495
f 737/24/505 736/23/504 735/25/503
f 727/17/495 732/26/500 723/1/482
f 735/25/503 731/22/499 732/26/500
f 728/7/496 733/27/501 737/24/505
f 733/27/501 738/21/506 737/24/505
f 782/20/538 777/3/533 786/21/542
f 779/22/535 778/18/534 773/19/482
f 786/21/542 778/18/534 784/23/540
f 775/17/531 785/24/541 783/25/539
f 785/24/541 784/23/540 783/25/539
f 775/17/531 780/26/536 771/1/482
f 783/25/539 779/22/535 780/26/536
f 776/7/532 781/27/537 785/24/541
f 781/27/537 786/21/542 785/24/541
f 798/20/550 793/3/545 802/21/554
f 795/22/547 794/18/546 789/19/482
f 802/21/554 794/18/546 800/23/552
f 791/17/543 801/24/553 799/25/551
f 799/25/551 802/21/554 800/23/552
f 791/17/543 796/26/548 787/1/482
f 796/26/548 800/23/552 795/22/547
f 792/7/544 797/27/549 801/24/553
f 797/27/549 802/21/554 801/24/553
f 818/21/566 806/28/558 809/3/560
f 816/23/564 805/19/557 811/22/561
f 818/21/566 810/18/560 816/23/564
f 808/7/559 815/25/563 807/17/559
f 817/24/565 816/23/564 815/25/563
f 803/1/555 815/25/563 812/26/561
f 815/25/563 811/22/561 812/26/561
f 804/5/556 817/24/565 808/7/559
f 813/27/562 818/21/566 817/24/565
f 821/22/568 820/18/567 819/19/482
f 734/20/502 726/28/482 729/3/497
f 731/22/499 736/23/504 730/18/498
f 738/21/506 729/3/497 730/18/498
f 728/7/496 737/24/505 735/25/503
f 737/24/505 738/21/506 736/23/504
f 727/17/495 735/25/503 732/26/500
f 735/25/503 736/23/504 731/22/499
f 728/7/496 724/5/482 733/27/501
f 733/27/501 734/20/502 738/21/506
f 782/20/538 774/28/482 777/3/533
f 779/22/535 784/23/540 778/18/534
f 786/21/542 777/3/533 778/18/534
f 775/17/531 776/7/532 785/24/541
f 785/24/541 786/21/542 784/23/540
f 775/17/531 783/25/539 780/26/536
f 783/25/539 784/23/540 779/22/535
f 776/7/532 772/5/482 781/27/537
f 781/27/537 782/20/538 786/21/542
f 798/20/550 790/28/482 793/3/545
f 795/22/547 800/23/552 794/18/546
f 802/21/554 793/3/545 794/18/546
f 791/17/543 792/7/544 801/24/553
f 799/25/551 801/24/553 802/21/554
f 791/17/543 799/25/551 796/26/548
f 796/26/548 799/25/551 800/23/552
f 792/7/544 788/5/482 797/27/549
f 797/27/549 798/20/550 802/21/554
f 818/21/566 814/20/562 806/28/558
f 816/23/564 810/18/560 805/19/557
f 818/21/566 809/3/560 810/18/560
f 808/7/559 817/24/565 815/25/563
f 817/24/565 818/21/566 816/23/564
f 803/1/555 807/17/559 815/25/563
f 815/25/563 816/23/564 811/22/561
f 804/5/556 813/27/562 817/24/565
f 813/27/562 814/20/562 818/21/566
f 821/22/568 822/23/569 820/18/567
usemtl Flowers0006_5_M1
f 750/20/514 745/3/509 754/21/518
f 747/22/511 746/18/510 741/19/482
f 752/23/516 745/3/509 746/18/510
f 744/7/508 751/25/515 743/17/507
f 753/24/517 752/23/516 751/25/515
f 743/17/507 748/26/512 739/1/482
f 751/25/515 747/22/511 748/26/512
f 744/7/508 749/27/513 753/24/517
f 749/27/513 754/21/518 753/24/517
f 770/21/530 758/28/522 761/3/524
f 768/23/528 757/19/521 763/22/525
f 768/23/528 761/3/524 762/18/524
f 760/7/523 767/25/527 759/17/523
f 769/24/529 768/23/528 767/25/527
f 755/1/519 767/25/527 764/26/525
f 767/25/527 763/22/525 764/26/525
f 756/5/520 769/24/529 760/7/523
f 765/27/526 770/21/530 769/24/529
f 750/20/514 742/28/482 745/3/509
f 747/22/511 752/23/516 746/18/510
f 752/23/516 754/21/518 745/3/509
f 744/7/508 753/24/517 751/25/515
f 753/24/517 754/21/518 752/23/516
f 743/17/507 751/25/515 748/26/512
f 751/25/515 752/23/516 747/22/511
f 744/7/508 740/5/482 749/27/513
f 749/27/513 750/20/514 754/21/518
f 770/21/530 766/20/526 758/28/522
f 768/23/528 762/18/524 757/19/521
f 768/23/528 770/21/530 761/3/524
f 760/7/523 769/24/529 767/25/527
f 769/24/529 770/21/530 768/23/528
f 755/1/519 759/17/523 767/25/527
f 767/25/527 768/23/528 763/22/525
f 756/5/520 765/27/526 769/24/529
f 765/27/526 766/20/526 770/21/530
