# Blender 5.1.0
# www.blender.org
mtllib tree.mtl
o Icosphere.001
v 0.034621 -0.074175 0.117221
v 0.122323 -0.073940 0.003346
v 0.041125 -0.073940 -0.115251
v -0.096761 -0.074175 -0.074677
v -0.100781 -0.074320 0.069000
v -0.038891 -0.085005 0.109460
v 0.092246 -0.084781 0.070870
v 0.096069 -0.084643 -0.065774
v -0.032705 -0.084781 -0.111634
v -0.116116 -0.085005 -0.003334
v -0.045933 -0.204108 0.130444
v 0.041942 -0.203628 0.139707
v 0.110793 -0.203841 0.084324
v 0.146757 -0.203347 0.003613
v 0.115362 -0.203675 -0.078983
v 0.049714 -0.203347 -0.138127
v -0.038540 -0.203840 -0.133792
v -0.115077 -0.203628 -0.089635
v -0.138226 -0.204108 -0.004359
v -0.119882 -0.203801 0.082077
v 0.024940 -0.205467 0.081920
v -0.070177 -0.205569 0.048047
v 0.000694 -0.206114 -0.000475
v 0.086548 -0.205302 0.001927
v 0.029508 -0.205302 -0.081385
v -0.067353 -0.205467 -0.052882
v -0.027574 0.145135 0.076989
v 0.023998 0.152732 0.082433
v 0.064424 0.145291 0.049916
v 0.085524 0.152897 0.002546
v 0.067106 0.145389 -0.045944
v 0.028561 0.152897 -0.080655
v -0.023234 0.145291 -0.078117
v -0.068172 0.152732 -0.052190
v -0.081750 0.145135 -0.002140
v -0.070992 0.152631 0.048605
v -0.117998 0.153956 0.330866
v 0.103942 0.186652 0.354297
v 0.277916 0.154630 0.214360
v 0.368720 0.187362 0.010502
v 0.289456 0.155048 -0.198176
v 0.123576 0.187362 -0.347553
v -0.099323 0.154630 -0.336634
v -0.292712 0.186652 -0.225055
v -0.351145 0.153956 -0.009667
v -0.304848 0.186215 0.208715
v -0.020679 0.492858 0.056737
v 0.017110 0.498425 0.060727
v 0.046731 0.492973 0.036900
v 0.062192 0.498546 0.002191
v 0.048696 0.493044 -0.033340
v 0.020453 0.498546 -0.058773
v -0.017499 0.492973 -0.056914
v -0.050426 0.498425 -0.037916
v -0.060375 0.492858 -0.001243
v -0.052492 0.498351 0.035939
v -0.020762 0.499745 0.056794
v 0.017027 0.505312 0.060784
v 0.046648 0.499860 0.036957
v 0.062109 0.505433 0.002248
v 0.048613 0.499931 -0.033283
v 0.020370 0.505433 -0.058716
v -0.017582 0.499860 -0.056857
v -0.050509 0.505312 -0.037859
v -0.060458 0.499745 -0.001186
v -0.052576 0.505237 0.035996
v -0.106633 0.509561 0.297911
v 0.092966 0.538965 0.318983
v 0.249426 0.510167 0.193133
v 0.331089 0.539604 0.009797
v 0.259805 0.510543 -0.177875
v 0.110623 0.539604 -0.312216
v -0.089837 0.510167 -0.302395
v -0.263759 0.538965 -0.202048
v -0.316310 0.509561 -0.008342
v -0.274674 0.538573 0.188056
v -0.021969 1.059784 0.058527
v 0.016623 1.065469 0.062601
v 0.046875 1.059901 0.038268
v 0.062664 1.065592 0.002820
v 0.048881 1.059973 -0.033466
v 0.020037 1.065592 -0.059441
v -0.018722 1.059901 -0.057542
v -0.052350 1.065469 -0.038140
v -0.062510 1.059784 -0.000687
v -0.054460 1.065393 0.037286
v -0.065455 1.095083 0.180525
v 0.054986 1.112826 0.193240
v 0.149396 1.095449 0.117300
v 0.198673 1.113211 0.006672
v 0.155659 1.095675 -0.106572
v 0.065641 1.113211 -0.187634
v -0.055320 1.095449 -0.181709
v -0.160267 1.112826 -0.121158
v -0.191977 1.095083 -0.004273
v -0.166853 1.112589 0.114237
v -0.012394 1.450938 0.030463
v 0.007110 1.453811 0.032522
v 0.022399 1.450997 0.020224
v 0.030378 1.453874 0.002309
v 0.023413 1.451034 -0.016029
v 0.008835 1.453874 -0.029156
v -0.010753 1.450997 -0.028197
v -0.027748 1.453811 -0.018391
v -0.032883 1.450938 0.000537
v -0.028814 1.453773 0.019728
v -0.049997 1.048687 -0.036406
v -0.017889 1.043370 -0.054931
v 0.015858 1.048687 0.059781
v -0.020990 1.043258 0.055890
v 0.046658 1.043439 -0.031944
v 0.059817 1.048804 0.002702
v -0.052012 1.048614 0.035610
v -0.059698 1.043258 -0.000647
v 0.044742 1.043370 0.036547
v 0.019117 1.048804 -0.056744
vn 0.6166 0.1826 0.7658
vn -0.1273 0.1628 0.9784
vn -0.9498 0.1785 -0.2568
vn -0.4719 0.1668 -0.8657
vn -0.5382 0.1770 0.8240
vn -0.0492 0.1851 -0.9815
vn 0.6775 0.1714 -0.7153
vn 0.9179 0.1876 -0.3497
vn 0.8900 0.1689 0.4235
vn -0.9700 0.1614 0.1818
vn 0.0022 -0.9995 0.0312
vn 0.0322 -0.9994 0.0082
vn 0.0197 -0.9994 -0.0274
vn -0.0181 -0.9995 -0.0265
vn -0.0289 -0.9995 0.0097
vn -0.0085 -1.0000 -0.0013
vn -0.0203 -0.9998 -0.0016
vn -0.0283 -0.9995 -0.0133
vn -0.0014 -0.9999 -0.0105
vn -0.0047 -0.9998 -0.0218
vn 0.0040 -0.9994 -0.0330
vn 0.0096 -0.9999 -0.0066
vn 0.0193 -0.9997 -0.0132
vn 0.0327 -0.9994 -0.0084
vn 0.0093 -0.9999 0.0051
vn 0.0186 -0.9998 0.0123
vn 0.0182 -0.9995 0.0265
vn -0.0019 -1.0000 0.0084
vn -0.0059 -0.9998 0.0195
vn -0.0195 -0.9995 0.0235
vn 0.6776 0.1474 -0.7205
vn -0.1565 -0.9874 -0.0214
vn -0.9603 0.1446 -0.2386
vn 0.6362 0.1459 0.7576
vn -0.4762 0.1459 -0.8672
vn -0.1249 0.1446 0.9816
vn 0.9168 0.1474 -0.3711
vn -0.9721 0.1442 0.1848
vn 0.8946 0.1466 0.4220
vn -0.0699 0.1466 -0.9867
vn -0.5239 0.1442 0.8395
vn 0.5740 0.6511 -0.4966
vn -0.0587 -0.9872 -0.1484
vn -0.0279 -0.9871 -0.1574
vn -0.0668 -0.9875 0.1429
vn -0.1574 -0.9875 0.0106
vn 0.1367 -0.9871 0.0830
vn 0.1171 -0.9872 0.1084
vn -0.0366 -0.9874 0.1536
vn 0.1230 -0.9870 -0.1037
vn 0.1411 -0.9870 -0.0772
vn -0.9647 -0.0095 -0.2632
vn -0.7534 0.6490 -0.1059
vn 0.5453 0.6501 0.5292
vn -0.2961 0.6501 -0.6998
vn -0.1738 0.6490 0.7407
vn 0.6706 0.6511 -0.3555
vn -0.7581 0.6489 0.0649
vn 0.6496 0.6504 0.3938
vn -0.1321 0.6504 -0.7480
vn -0.3347 0.6489 0.6833
vn -0.0632 -0.9871 0.1473
vn 0.6269 0.0011 0.7791
vn -0.4996 0.0011 -0.8663
vn -0.1036 -0.0095 0.9946
vn 0.9340 0.0143 -0.3570
vn -0.9778 -0.0136 0.2093
vn 0.9130 0.0077 0.4079
vn -0.0500 0.0077 -0.9987
vn -0.5488 -0.0136 0.8359
vn 0.6706 0.0143 -0.7416
vn -0.5130 -0.1591 -0.8435
vn -0.1602 -0.9871 0.0057
vn 0.1360 -0.9867 0.0886
vn 0.1224 -0.9868 0.1063
vn -0.0422 -0.9871 0.1548
vn 0.1282 -0.9866 -0.1013
vn 0.1408 -0.9866 -0.0829
vn -0.1595 -0.9871 -0.0166
vn -0.0549 -0.9868 -0.1525
vn -0.0334 -0.9867 -0.1589
vn 0.1063 -0.9444 0.3111
vn -0.0800 -0.1617 0.9836
vn 0.9312 -0.1556 -0.3296
vn -0.9601 -0.1628 0.2276
vn 0.9113 -0.1572 0.3807
vn -0.0253 -0.1572 -0.9872
vn -0.5594 -0.1628 0.8127
vn 0.6441 -0.1556 -0.7489
vn -0.9459 -0.1617 -0.2812
vn 0.6008 -0.1591 0.7834
vn -0.9055 0.4031 0.1324
vn 0.3298 -0.9438 0.0209
vn -0.2630 -0.9448 0.1953
vn 0.3305 -0.9438 -0.0043
vn 0.1236 -0.9438 -0.3066
vn -0.2772 -0.9448 0.1746
vn 0.0999 -0.9438 -0.3151
vn -0.2516 -0.9444 -0.2116
vn 0.0821 -0.9444 0.3182
vn -0.2670 -0.9444 -0.1917
vn -0.0014 1.0000 0.0010
vn 0.8092 0.4052 0.4255
vn -0.1040 0.4052 -0.9083
vn -0.4510 0.4031 0.7963
vn 0.6539 0.4060 -0.6384
vn -0.8967 0.4034 -0.1820
vn 0.6172 0.4047 0.6747
vn -0.4058 0.4047 -0.8195
vn -0.1546 0.4034 0.9019
vn 0.8317 0.4060 -0.3788
vn 0.6126 0.4299 0.6632
vn -0.8863 0.4287 -0.1754
vn 0.6487 0.4312 -0.6271
vn -0.4415 0.4284 0.7884
vn -0.1071 0.4304 -0.8963
vn 0.7968 0.4304 0.4240
vn -0.8947 0.4284 0.1264
vn 0.8193 0.4312 -0.3780
vn -0.1571 0.4287 0.8897
vn -0.3967 0.4299 -0.8110
vn 0.6364 0.1668 0.7531
vn -0.1041 0.1785 0.9784
vn -0.9582 0.1628 -0.2352
vn -0.4910 0.1826 -0.8518
vn -0.5203 0.1614 0.8386
vn -0.0730 0.1689 -0.9829
vn 0.6580 0.1876 -0.7293
vn 0.9119 0.1714 -0.3729
vn 0.8972 0.1851 0.4009
vn -0.9629 0.1770 0.2037
vn -0.0501 0.0077 -0.9987
vn 0.3306 -0.9438 -0.0043
vn -0.1776 0.8499 0.4961
vn 0.4153 0.8509 0.3216
vn 0.4326 0.8515 -0.2962
vn -0.1496 0.8509 -0.5035
vn -0.5267 0.8499 -0.0139
s 0
usemtl PLANT.003
f 42//42 51//42 41//42
f 44//53 55//53 54//53
f 38//54 49//54 48//54
f 44//55 53//55 43//55
f 38//56 47//56 37//56
f 40//57 51//57 50//57
f 46//58 55//58 45//58
f 40//59 49//59 39//59
f 42//60 53//60 52//60
f 46//61 47//61 56//61
f 96//92 105//92 95//92
f 100//102 104//102 106//102
f 90//103 99//103 89//103
f 92//104 103//104 102//104
f 96//105 97//105 106//105
f 92//106 101//106 91//106
f 94//107 105//107 104//107
f 88//108 99//108 98//108
f 94//109 103//109 93//109
f 88//110 97//110 87//110
f 90//111 101//111 100//111
f 68//112 115//112 109//112
f 74//113 114//113 107//113
f 72//114 111//114 71//114
f 76//115 110//115 113//115
f 72//116 108//116 116//116
f 70//117 115//117 69//117
f 76//118 114//118 75//118
f 70//119 111//119 112//119
f 68//120 110//120 67//120
f 74//121 108//121 73//121
f 42//42 52//42 51//42
f 44//53 45//53 55//53
f 38//54 39//54 49//54
f 44//55 54//55 53//55
f 38//56 48//56 47//56
f 40//57 41//57 51//57
f 46//58 56//58 55//58
f 40//59 50//59 49//59
f 42//60 43//60 53//60
f 46//61 37//61 47//61
f 96//92 106//92 105//92
f 106//134 97//134 98//134
f 98//135 99//135 100//135
f 100//136 101//136 102//136
f 102//137 103//137 104//137
f 104//138 105//138 106//138
f 106//102 98//102 100//102
f 100//102 102//102 104//102
f 90//103 100//103 99//103
f 92//104 93//104 103//104
f 96//105 87//105 97//105
f 92//106 102//106 101//106
f 94//107 95//107 105//107
f 88//108 89//108 99//108
f 94//109 104//109 103//109
f 88//110 98//110 97//110
f 90//111 91//111 101//111
f 68//112 69//112 115//112
f 74//113 75//113 114//113
f 72//114 116//114 111//114
f 76//115 67//115 110//115
f 72//116 73//116 108//116
f 70//117 112//117 115//117
f 76//118 113//118 114//118
f 70//119 71//119 111//119
f 68//120 109//120 110//120
f 74//121 107//121 108//121
usemtl WOOD.003
f 7//1 12//1 13//1
f 6//2 12//2 1//2
f 10//3 18//3 19//3
f 9//4 18//4 4//4
f 6//5 20//5 11//5
f 9//6 16//6 17//6
f 8//7 16//7 3//7
f 8//8 14//8 15//8
f 7//9 14//9 2//9
f 10//10 20//10 5//10
f 3//31 31//31 8//31
f 4//33 35//33 34//33
f 1//34 29//34 28//34
f 4//35 33//35 9//35
f 1//36 27//36 6//36
f 2//37 31//37 30//37
f 5//38 35//38 10//38
f 2//39 29//39 7//39
f 3//40 33//40 32//40
f 5//41 27//41 36//41
f 54//52 65//52 64//52
f 48//63 59//63 58//63
f 54//64 63//64 53//64
f 48//65 57//65 47//65
f 50//66 61//66 60//66
f 56//67 65//67 55//67
f 50//68 59//68 49//68
f 52//69 63//69 62//69
f 56//70 57//70 66//70
f 52//71 61//71 51//71
f 107//72 83//72 108//72
f 109//83 77//83 110//83
f 112//84 81//84 80//84
f 113//85 85//85 114//85
f 112//86 79//86 115//86
f 116//87 83//87 82//87
f 113//88 77//88 86//88
f 116//89 81//89 111//89
f 107//90 85//90 84//90
f 109//91 79//91 78//91
f 7//122 1//122 12//122
f 6//123 11//123 12//123
f 10//124 4//124 18//124
f 9//125 17//125 18//125
f 6//126 5//126 20//126
f 9//127 3//127 16//127
f 8//128 15//128 16//128
f 8//129 2//129 14//129
f 7//130 13//130 14//130
f 10//131 19//131 20//131
f 3//31 32//31 31//31
f 4//33 10//33 35//33
f 1//34 7//34 29//34
f 4//35 34//35 33//35
f 1//36 28//36 27//36
f 2//37 8//37 31//37
f 5//38 36//38 35//38
f 2//39 30//39 29//39
f 3//40 9//40 33//40
f 5//41 6//41 27//41
f 54//52 55//52 65//52
f 48//63 49//63 59//63
f 54//64 64//64 63//64
f 48//65 58//65 57//65
f 50//66 51//66 61//66
f 56//67 66//67 65//67
f 50//68 60//68 59//68
f 52//132 53//132 63//132
f 56//70 47//70 57//70
f 52//71 62//71 61//71
f 107//72 84//72 83//72
f 109//83 78//83 77//83
f 112//84 111//84 81//84
f 113//85 86//85 85//85
f 112//86 80//86 79//86
f 116//87 108//87 83//87
f 113//88 110//88 77//88
f 116//89 82//89 81//89
f 107//90 114//90 85//90
f 109//91 115//91 79//91
usemtl PLANTDARC.003
f 36//32 37//32 46//32
f 32//43 41//43 31//43
f 34//44 45//44 44//44
f 28//45 39//45 38//45
f 34//46 43//46 33//46
f 28//47 37//47 27//47
f 30//48 41//48 40//48
f 36//49 45//49 35//49
f 30//50 39//50 29//50
f 32//51 43//51 42//51
f 58//62 69//62 68//62
f 64//73 73//73 63//73
f 58//74 67//74 57//74
f 60//75 71//75 70//75
f 66//76 75//76 65//76
f 60//77 69//77 59//77
f 62//78 73//78 72//78
f 66//79 67//79 76//79
f 62//80 71//80 61//80
f 64//81 75//81 74//81
f 78//82 87//82 77//82
f 80//93 91//93 90//93
f 86//94 95//94 85//94
f 80//95 89//95 79//95
f 82//96 93//96 92//96
f 86//97 87//97 96//97
f 82//98 91//98 81//98
f 84//99 95//99 94//99
f 78//100 89//100 88//100
f 84//101 93//101 83//101
f 36//32 27//32 37//32
f 32//43 42//43 41//43
f 34//44 35//44 45//44
f 28//45 29//45 39//45
f 34//46 44//46 43//46
f 28//47 38//47 37//47
f 30//48 31//48 41//48
f 36//49 46//49 45//49
f 30//50 40//50 39//50
f 32//51 33//51 43//51
f 58//62 59//62 69//62
f 64//73 74//73 73//73
f 58//74 68//74 67//74
f 60//75 61//75 71//75
f 66//76 76//76 75//76
f 60//77 70//77 69//77
f 62//78 63//78 73//78
f 66//79 57//79 67//79
f 62//80 72//80 71//80
f 64//81 65//81 75//81
f 78//82 88//82 87//82
f 80//93 81//93 91//93
f 86//94 96//94 95//94
f 80//133 90//133 89//133
f 82//96 83//96 93//96
f 86//97 77//97 87//97
f 82//98 92//98 91//98
f 84//99 85//99 95//99
f 78//100 79//100 89//100
f 84//101 94//101 93//101
usemtl WOODDARC.003
f 12//11 11//11 21//11
f 14//12 13//12 24//12
f 16//13 15//13 25//13
f 18//14 17//14 26//14
f 20//15 19//15 22//15
f 22//16 26//16 23//16
f 22//17 19//17 26//17
f 19//18 18//18 26//18
f 26//19 25//19 23//19
f 26//20 17//20 25//20
f 17//21 16//21 25//21
f 25//22 24//22 23//22
f 25//23 15//23 24//23
f 15//24 14//24 24//24
f 24//25 21//25 23//25
f 24//26 13//26 21//26
f 13//27 12//27 21//27
f 21//28 22//28 23//28
f 21//29 11//29 22//29
f 11//30 20//30 22//30
