# Blender 5.1.0
# www.blender.org
mtllib myCube.mtl
o Cube
v 1.000000 -1.000000 -1.000000
v 1.000000 -1.000000 1.000000
v -1.000000 -1.000000 -1.000000
v -1.000000 -1.000000 1.000000
v 0.291511 1.000000 -0.291511
v 1.000000 0.291511 -1.000000
v 0.291511 1.000000 0.291511
v 1.000000 0.291511 1.000000
v -0.291511 1.000000 -0.291511
v -1.000000 0.291511 -1.000000
v -0.291511 1.000000 0.291511
v -1.000000 0.291511 1.000000
v 0.645755 0.645755 0.645755
v -0.645755 0.645755 0.645755
v 0.645755 0.645755 -0.645755
v -0.645755 0.645755 -0.645755
v 0.291511 1.513835 -0.291511
v 0.291511 1.513835 0.291511
v -0.291511 1.513835 -0.291511
v -0.291511 1.513835 0.291511
v -0.645755 1.151811 0.645755
v -1.000000 0.797567 1.000000
v 1.000000 0.797567 1.000000
v 1.000000 0.797567 -1.000000
v -0.645755 1.151811 -0.645755
v -1.000000 0.797567 -1.000000
v 0.645755 1.151811 0.645755
v 0.645755 1.151811 -0.645755
v 1.949201 -1.000000 -1.949201
v -0.050799 -1.000000 -1.949201
v 1.949201 -1.000000 0.050799
v 1.949201 0.291511 0.050799
v 1.949201 0.291511 -1.949201
v -0.050799 0.291511 -1.949201
vn -0.0000 -1.0000 -0.0000
vn -0.0000 -0.0000 1.0000
vn -0.0000 -0.0000 -1.0000
vn -1.0000 -0.0000 -0.0000
vn 1.0000 -0.0000 -0.0000
vn -0.0000 1.0000 -0.0000
vn -0.0000 0.7071 -0.7071
vn -0.7071 0.7071 -0.0000
vn 0.7071 0.7071 -0.0000
vn -0.0000 0.7071 0.7071
vn 0.7071 -0.0000 0.7071
vn -0.7071 -0.0000 -0.7071
vt 0.125000 0.500000
vt 0.375000 0.500000
vt 0.375000 0.750000
vt 0.125000 0.750000
vt 0.830719 0.544281
vt 0.636070 0.544280
vt 0.558579 0.500000
vt 0.536439 0.250000
vt 0.636070 0.705719
vt 0.558579 0.750000
vt 0.000000 0.993150
vt 0.000000 0.000000
vt 0.991850 0.001850
vt 1.016850 1.000000
vt 0.786439 0.588561
vt 0.786439 0.661439
vt 0.002878 0.647878
vt 0.002878 0.002122
vt 1.002878 0.002122
vt 1.002878 0.647878
vt 0.375000 0.000000
vt 0.536439 0.000000
vt 0.375000 0.250000
vt 0.713561 0.588561
vt 0.830719 0.705719
vt 0.713561 0.661439
vt 0.875000 0.750000
vt 0.875000 0.500000
vt 0.536439 1.000000
vt 0.645755 1.000000
vt -0.000000 1.000000
vt 0.000000 0.000000
vt 0.645755 0.000000
vt 0.020000 -0.000000
vt 0.982111 0.000000
vt 0.982111 1.000000
vt 0.020000 1.000000
s 0
usemtl Brick
f 3/1/1 1/2/1 2/3/1 4/4/1
f 16/5/2 15/6/2 28/6/2 25/5/2
f 6/7/3 10/8/3 26/8/3 24/7/3
f 15/6/4 13/9/4 27/9/4 28/6/4
f 8/10/5 6/7/5 24/7/5 23/10/5
f 1/2/1 3/1/1 30/1/1 29/2/1
f 9/15/4 11/16/4 20/16/4 19/15/4
f 2/17/2 8/18/2 12/19/2 4/20/2
f 4/21/4 12/22/4 10/8/4 3/23/4
f 9/15/7 5/24/7 15/6/7 16/5/7
f 11/16/8 9/15/8 16/5/8 14/25/8
f 5/24/9 7/26/9 13/9/9 15/6/9
f 7/26/10 11/16/10 14/25/10 13/9/10
f 17/24/6 19/15/6 20/16/6 18/26/6
f 7/26/5 5/24/5 17/24/5 18/26/5
f 11/16/2 7/26/2 18/26/2 20/16/2
f 5/24/3 9/15/3 19/15/3 17/24/3
f 27/9/10 21/25/10 22/27/10 23/10/10
f 28/6/9 27/9/9 23/10/9 24/7/9
f 21/25/8 25/5/8 26/28/8 22/27/8
f 25/5/7 28/6/7 24/7/7 26/28/7
f 10/8/4 12/22/4 22/22/4 26/8/4
f 12/29/2 8/10/2 23/10/2 22/29/2
f 13/9/3 14/25/3 21/25/3 27/9/3
f 14/25/5 16/5/5 25/5/5 21/25/5
f 30/23/3 34/8/3 33/7/3 29/2/3
f 29/30/5 33/31/5 32/32/5 31/33/5
f 10/8/6 6/7/6 33/7/6 34/8/6
f 3/23/12 10/8/12 34/8/12 30/23/12
f 2/3/1 1/2/1 29/2/1 31/3/1
usemtl Glass
f 6/11/6 8/12/6 32/13/6 33/14/6
f 8/34/11 2/35/11 31/36/11 32/37/11
